<ttFont>
    <TTGlyph name="A" xMin="13" yMin="0" xMax="621" yMax="700">
      <contour>
        <pt x="397" y="700" on="1"/>
        <pt x="621" y="0" on="1"/>
        <pt x="521" y="0" on="1"/>
        <pt x="461" y="186" on="1"/>
        <pt x="179" y="186" on="1"/>
        <pt x="113" y="0" on="1"/>
        <pt x="13" y="0" on="1"/>
        <pt x="263" y="700" on="1"/>
      </contour>
      <contour>
        <pt x="273" y="451" on="1"/>
        <pt x="208" y="268" on="1"/>
        <pt x="435" y="268" on="1"/>
        <pt x="377" y="451" on="1"/>
        <pt x="354" y="524" on="0"/>
        <pt x="341" y="590" on="1"/>
        <pt x="336" y="615" on="1"/>
        <pt x="320" y="615" on="1"/>
        <pt x="299" y="524" on="0"/>
      </contour>
    </TTGlyph>
    <TTGlyph name="AE" xMin="13" yMin="0" xMax="945" yMax="700">
      <contour>
        <pt x="945" y="0" on="1"/>
        <pt x="528" y="0" on="1"/>
        <pt x="528" y="186" on="1"/>
        <pt x="251" y="186" on="1"/>
        <pt x="133" y="0" on="1"/>
        <pt x="13" y="0" on="1"/>
        <pt x="493" y="700" on="1"/>
        <pt x="945" y="700" on="1"/>
        <pt x="945" y="617" on="1"/>
        <pt x="628" y="617" on="1"/>
        <pt x="628" y="416" on="1"/>
        <pt x="915" y="416" on="1"/>
        <pt x="915" y="332" on="1"/>
        <pt x="628" y="332" on="1"/>
        <pt x="628" y="83" on="1"/>
        <pt x="945" y="83" on="1"/>
      </contour>
      <contour>
        <pt x="528" y="268" on="1"/>
        <pt x="528" y="484" on="1"/>
        <pt x="528" y="531" on="0"/>
        <pt x="542" y="594" on="1"/>
        <pt x="546" y="615" on="1"/>
        <pt x="514" y="615" on="1"/>
        <pt x="501" y="559" on="0"/>
        <pt x="477" y="523" on="1"/>
        <pt x="306" y="268" on="1"/>
      </contour>
    </TTGlyph>
    <TTGlyph name="AEacute" xMin="13" yMin="0" xMax="945" yMax="917">
      <contour>
        <pt x="945" y="0" on="1"/>
        <pt x="528" y="0" on="1"/>
        <pt x="528" y="186" on="1"/>
        <pt x="251" y="186" on="1"/>
        <pt x="133" y="0" on="1"/>
        <pt x="13" y="0" on="1"/>
        <pt x="493" y="700" on="1"/>
        <pt x="945" y="700" on="1"/>
        <pt x="945" y="617" on="1"/>
        <pt x="628" y="617" on="1"/>
        <pt x="628" y="416" on="1"/>
        <pt x="915" y="416" on="1"/>
        <pt x="915" y="332" on="1"/>
        <pt x="628" y="332" on="1"/>
        <pt x="628" y="83" on="1"/>
        <pt x="945" y="83" on="1"/>
      </contour>
      <contour>
        <pt x="528" y="268" on="1"/>
        <pt x="528" y="484" on="1"/>
        <pt x="528" y="531" on="0"/>
        <pt x="542" y="594" on="1"/>
        <pt x="546" y="615" on="1"/>
        <pt x="514" y="615" on="1"/>
        <pt x="501" y="559" on="0"/>
        <pt x="477" y="523" on="1"/>
        <pt x="306" y="268" on="1"/>
      </contour>
      <contour>
        <pt x="808" y="852" on="1"/>
        <pt x="808" y="822" on="0"/>
        <pt x="766" y="811" on="1"/>
        <pt x="581" y="760" on="1"/>
        <pt x="558" y="810" on="1"/>
        <pt x="781" y="917" on="1"/>
        <pt x="804" y="867" on="1"/>
        <pt x="808" y="859" on="0"/>
      </contour>
    </TTGlyph>
    <TTGlyph name="Aacute" xMin="13" yMin="0" xMax="621" yMax="917">
      <contour>
        <pt x="397" y="700" on="1"/>
        <pt x="621" y="0" on="1"/>
        <pt x="521" y="0" on="1"/>
        <pt x="461" y="186" on="1"/>
        <pt x="179" y="186" on="1"/>
        <pt x="113" y="0" on="1"/>
        <pt x="13" y="0" on="1"/>
        <pt x="263" y="700" on="1"/>
      </contour>
      <contour>
        <pt x="273" y="451" on="1"/>
        <pt x="208" y="268" on="1"/>
        <pt x="435" y="268" on="1"/>
        <pt x="377" y="451" on="1"/>
        <pt x="354" y="524" on="0"/>
        <pt x="341" y="590" on="1"/>
        <pt x="336" y="615" on="1"/>
        <pt x="320" y="615" on="1"/>
        <pt x="299" y="524" on="0"/>
      </contour>
      <contour>
        <pt x="481" y="852" on="1"/>
        <pt x="481" y="822" on="0"/>
        <pt x="439" y="811" on="1"/>
        <pt x="254" y="760" on="1"/>
        <pt x="231" y="810" on="1"/>
        <pt x="454" y="917" on="1"/>
        <pt x="477" y="867" on="1"/>
        <pt x="481" y="859" on="0"/>
      </contour>
    </TTGlyph>
    <TTGlyph name="Abreve" xMin="13" yMin="0" xMax="621" yMax="896">
      <contour>
        <pt x="397" y="700" on="1"/>
        <pt x="621" y="0" on="1"/>
        <pt x="521" y="0" on="1"/>
        <pt x="461" y="186" on="1"/>
        <pt x="179" y="186" on="1"/>
        <pt x="113" y="0" on="1"/>
        <pt x="13" y="0" on="1"/>
        <pt x="263" y="700" on="1"/>
      </contour>
      <contour>
        <pt x="273" y="451" on="1"/>
        <pt x="208" y="268" on="1"/>
        <pt x="435" y="268" on="1"/>
        <pt x="377" y="451" on="1"/>
        <pt x="354" y="524" on="0"/>
        <pt x="341" y="590" on="1"/>
        <pt x="336" y="615" on="1"/>
        <pt x="320" y="615" on="1"/>
        <pt x="299" y="524" on="0"/>
      </contour>
      <contour>
        <pt x="513" y="740" on="0"/>
        <pt x="149" y="740" on="0"/>
        <pt x="149" y="887" on="1"/>
        <pt x="206" y="896" on="1"/>
        <pt x="213" y="841" on="0"/>
        <pt x="268" y="804" on="0"/>
        <pt x="394" y="804" on="0"/>
        <pt x="449" y="841" on="0"/>
        <pt x="456" y="896" on="1"/>
        <pt x="513" y="887" on="1"/>
      </contour>
    </TTGlyph>
    <TTGlyph name="Acircumflex" xMin="13" yMin="0" xMax="621" yMax="898">
      <contour>
        <pt x="397" y="700" on="1"/>
        <pt x="621" y="0" on="1"/>
        <pt x="521" y="0" on="1"/>
        <pt x="461" y="186" on="1"/>
        <pt x="179" y="186" on="1"/>
        <pt x="113" y="0" on="1"/>
        <pt x="13" y="0" on="1"/>
        <pt x="263" y="700" on="1"/>
      </contour>
      <contour>
        <pt x="273" y="451" on="1"/>
        <pt x="208" y="268" on="1"/>
        <pt x="435" y="268" on="1"/>
        <pt x="377" y="451" on="1"/>
        <pt x="354" y="524" on="0"/>
        <pt x="341" y="590" on="1"/>
        <pt x="336" y="615" on="1"/>
        <pt x="320" y="615" on="1"/>
        <pt x="299" y="524" on="0"/>
      </contour>
      <contour>
        <pt x="157" y="770" on="1"/>
        <pt x="282" y="898" on="1"/>
        <pt x="375" y="898" on="1"/>
        <pt x="500" y="770" on="1"/>
        <pt x="464" y="738" on="1"/>
        <pt x="328" y="836" on="1"/>
        <pt x="193" y="738" on="1"/>
      </contour>
    </TTGlyph>
    <TTGlyph name="Adieresis" xMin="13" yMin="0" xMax="621" yMax="892">
      <contour>
        <pt x="397" y="700" on="1"/>
        <pt x="621" y="0" on="1"/>
        <pt x="521" y="0" on="1"/>
        <pt x="461" y="186" on="1"/>
        <pt x="179" y="186" on="1"/>
        <pt x="113" y="0" on="1"/>
        <pt x="13" y="0" on="1"/>
        <pt x="263" y="700" on="1"/>
      </contour>
      <contour>
        <pt x="273" y="451" on="1"/>
        <pt x="208" y="268" on="1"/>
        <pt x="435" y="268" on="1"/>
        <pt x="377" y="451" on="1"/>
        <pt x="354" y="524" on="0"/>
        <pt x="341" y="590" on="1"/>
        <pt x="336" y="615" on="1"/>
        <pt x="320" y="615" on="1"/>
        <pt x="299" y="524" on="0"/>
      </contour>
      <contour>
        <pt x="179" y="807" on="0"/>
        <pt x="179" y="857" on="0"/>
        <pt x="215" y="892" on="0"/>
        <pt x="264" y="892" on="0"/>
        <pt x="299" y="857" on="0"/>
        <pt x="299" y="807" on="0"/>
        <pt x="264" y="772" on="0"/>
        <pt x="215" y="772" on="0"/>
      </contour>
      <contour>
        <pt x="482" y="857" on="0"/>
        <pt x="482" y="807" on="0"/>
        <pt x="446" y="772" on="0"/>
        <pt x="397" y="772" on="0"/>
        <pt x="362" y="807" on="0"/>
        <pt x="362" y="857" on="0"/>
        <pt x="397" y="892" on="0"/>
        <pt x="446" y="892" on="0"/>
      </contour>
    </TTGlyph>
    <TTGlyph name="Agrave" xMin="13" yMin="0" xMax="621" yMax="917">
      <contour>
        <pt x="397" y="700" on="1"/>
        <pt x="621" y="0" on="1"/>
        <pt x="521" y="0" on="1"/>
        <pt x="461" y="186" on="1"/>
        <pt x="179" y="186" on="1"/>
        <pt x="113" y="0" on="1"/>
        <pt x="13" y="0" on="1"/>
        <pt x="263" y="700" on="1"/>
      </contour>
      <contour>
        <pt x="273" y="451" on="1"/>
        <pt x="208" y="268" on="1"/>
        <pt x="435" y="268" on="1"/>
        <pt x="377" y="451" on="1"/>
        <pt x="354" y="524" on="0"/>
        <pt x="341" y="590" on="1"/>
        <pt x="336" y="615" on="1"/>
        <pt x="320" y="615" on="1"/>
        <pt x="299" y="524" on="0"/>
      </contour>
      <contour>
        <pt x="163" y="852" on="1"/>
        <pt x="163" y="859" on="0"/>
        <pt x="167" y="867" on="1"/>
        <pt x="190" y="917" on="1"/>
        <pt x="413" y="810" on="1"/>
        <pt x="390" y="760" on="1"/>
        <pt x="205" y="811" on="1"/>
        <pt x="163" y="822" on="0"/>
      </contour>
    </TTGlyph>
    <TTGlyph name="Amacron" xMin="13" yMin="0" xMax="621" yMax="855">
      <contour>
        <pt x="397" y="700" on="1"/>
        <pt x="621" y="0" on="1"/>
        <pt x="521" y="0" on="1"/>
        <pt x="461" y="186" on="1"/>
        <pt x="179" y="186" on="1"/>
        <pt x="113" y="0" on="1"/>
        <pt x="13" y="0" on="1"/>
        <pt x="263" y="700" on="1"/>
      </contour>
      <contour>
        <pt x="273" y="451" on="1"/>
        <pt x="208" y="268" on="1"/>
        <pt x="435" y="268" on="1"/>
        <pt x="377" y="451" on="1"/>
        <pt x="354" y="524" on="0"/>
        <pt x="341" y="590" on="1"/>
        <pt x="336" y="615" on="1"/>
        <pt x="320" y="615" on="1"/>
        <pt x="299" y="524" on="0"/>
      </contour>
      <contour>
        <pt x="172" y="786" on="1"/>
        <pt x="172" y="855" on="1"/>
        <pt x="486" y="855" on="1"/>
        <pt x="486" y="786" on="1"/>
      </contour>
    </TTGlyph>
    <TTGlyph name="Aogonek" xMin="13" yMin="-220" xMax="638" yMax="700">
      <contour>
        <pt x="513" y="-118" on="1"/>
        <pt x="513" y="-140" on="0"/>
        <pt x="541" y="-165" on="0"/>
        <pt x="588" y="-165" on="0"/>
        <pt x="609" y="-151" on="1"/>
        <pt x="638" y="-196" on="1"/>
        <pt x="597" y="-220" on="0"/>
        <pt x="502" y="-220" on="0"/>
        <pt x="446" y="-162" on="0"/>
        <pt x="446" y="-118" on="1"/>
        <pt x="446" y="-57" on="0"/>
        <pt x="521" y="0" on="1"/>
        <pt x="461" y="186" on="1"/>
        <pt x="179" y="186" on="1"/>
        <pt x="113" y="0" on="1"/>
        <pt x="13" y="0" on="1"/>
        <pt x="263" y="700" on="1"/>
        <pt x="397" y="700" on="1"/>
        <pt x="621" y="0" on="1"/>
        <pt x="513" y="-56" on="0"/>
      </contour>
      <contour>
        <pt x="273" y="451" on="1"/>
        <pt x="208" y="268" on="1"/>
        <pt x="435" y="268" on="1"/>
        <pt x="377" y="451" on="1"/>
        <pt x="357" y="515" on="0"/>
        <pt x="344" y="590" on="1"/>
        <pt x="339" y="615" on="1"/>
        <pt x="317" y="615" on="1"/>
        <pt x="299" y="524" on="0"/>
      </contour>
    </TTGlyph>
    <TTGlyph name="Aring" xMin="13" yMin="0" xMax="621" yMax="939">
      <contour>
        <pt x="397" y="700" on="1"/>
        <pt x="621" y="0" on="1"/>
        <pt x="521" y="0" on="1"/>
        <pt x="461" y="186" on="1"/>
        <pt x="179" y="186" on="1"/>
        <pt x="113" y="0" on="1"/>
        <pt x="13" y="0" on="1"/>
        <pt x="263" y="700" on="1"/>
      </contour>
      <contour>
        <pt x="273" y="451" on="1"/>
        <pt x="208" y="268" on="1"/>
        <pt x="435" y="268" on="1"/>
        <pt x="377" y="451" on="1"/>
        <pt x="354" y="524" on="0"/>
        <pt x="341" y="590" on="1"/>
        <pt x="336" y="615" on="1"/>
        <pt x="320" y="615" on="1"/>
        <pt x="299" y="524" on="0"/>
      </contour>
      <contour>
        <pt x="289" y="751" on="0"/>
        <pt x="231" y="804" on="0"/>
        <pt x="231" y="885" on="0"/>
        <pt x="289" y="939" on="0"/>
        <pt x="371" y="939" on="0"/>
        <pt x="430" y="885" on="0"/>
        <pt x="430" y="804" on="0"/>
        <pt x="371" y="751" on="0"/>
      </contour>
      <contour>
        <pt x="312" y="888" on="0"/>
        <pt x="288" y="864" on="0"/>
        <pt x="288" y="825" on="0"/>
        <pt x="312" y="803" on="0"/>
        <pt x="349" y="803" on="0"/>
        <pt x="373" y="825" on="0"/>
        <pt x="373" y="864" on="0"/>
        <pt x="349" y="888" on="0"/>
      </contour>
    </TTGlyph>
    <TTGlyph name="Aringacute" xMin="13" yMin="0" xMax="621" yMax="1007">
      <contour>
        <pt x="253" y="671" on="1"/>
        <pt x="229" y="697" on="0"/>
        <pt x="229" y="774" on="0"/>
        <pt x="287" y="828" on="0"/>
        <pt x="369" y="828" on="0"/>
        <pt x="428" y="774" on="0"/>
        <pt x="428" y="699" on="0"/>
        <pt x="405" y="673" on="1"/>
        <pt x="621" y="0" on="1"/>
        <pt x="521" y="0" on="1"/>
        <pt x="461" y="186" on="1"/>
        <pt x="179" y="186" on="1"/>
        <pt x="113" y="0" on="1"/>
        <pt x="13" y="0" on="1"/>
      </contour>
      <contour>
        <pt x="273" y="451" on="1"/>
        <pt x="208" y="268" on="1"/>
        <pt x="435" y="268" on="1"/>
        <pt x="377" y="451" on="1"/>
        <pt x="354" y="524" on="0"/>
        <pt x="341" y="590" on="1"/>
        <pt x="336" y="615" on="1"/>
        <pt x="320" y="615" on="1"/>
        <pt x="299" y="524" on="0"/>
      </contour>
      <contour>
        <pt x="492" y="942" on="1"/>
        <pt x="492" y="912" on="0"/>
        <pt x="450" y="901" on="1"/>
        <pt x="265" y="850" on="1"/>
        <pt x="242" y="900" on="1"/>
        <pt x="465" y="1007" on="1"/>
        <pt x="488" y="957" on="1"/>
        <pt x="492" y="949" on="0"/>
      </contour>
      <contour>
        <pt x="310" y="777" on="0"/>
        <pt x="286" y="754" on="0"/>
        <pt x="286" y="714" on="0"/>
        <pt x="310" y="692" on="0"/>
        <pt x="347" y="692" on="0"/>
        <pt x="371" y="714" on="0"/>
        <pt x="371" y="753" on="0"/>
        <pt x="347" y="777" on="0"/>
      </contour>
    </TTGlyph>
    <TTGlyph name="Atilde" xMin="13" yMin="0" xMax="621" yMax="889">
      <contour>
        <pt x="397" y="700" on="1"/>
        <pt x="621" y="0" on="1"/>
        <pt x="521" y="0" on="1"/>
        <pt x="461" y="186" on="1"/>
        <pt x="179" y="186" on="1"/>
        <pt x="113" y="0" on="1"/>
        <pt x="13" y="0" on="1"/>
        <pt x="263" y="700" on="1"/>
      </contour>
      <contour>
        <pt x="273" y="451" on="1"/>
        <pt x="208" y="268" on="1"/>
        <pt x="435" y="268" on="1"/>
        <pt x="377" y="451" on="1"/>
        <pt x="354" y="524" on="0"/>
        <pt x="341" y="590" on="1"/>
        <pt x="336" y="615" on="1"/>
        <pt x="320" y="615" on="1"/>
        <pt x="299" y="524" on="0"/>
      </contour>
      <contour>
        <pt x="393" y="773" on="1"/>
        <pt x="360" y="773" on="0"/>
        <pt x="278" y="814" on="0"/>
        <pt x="239" y="814" on="0"/>
        <pt x="216" y="797" on="0"/>
        <pt x="200" y="775" on="1"/>
        <pt x="145" y="811" on="1"/>
        <pt x="185" y="889" on="0"/>
        <pt x="259" y="889" on="1"/>
        <pt x="291" y="889" on="0"/>
        <pt x="376" y="848" on="0"/>
        <pt x="392" y="848" on="1"/>
        <pt x="436" y="848" on="0"/>
        <pt x="452" y="885" on="1"/>
        <pt x="508" y="850" on="1"/>
        <pt x="470" y="773" on="0"/>
      </contour>
    </TTGlyph>
    <TTGlyph name="B" xMin="100" yMin="0" xMax="556" yMax="700">
      <contour>
        <pt x="281" y="0" on="1"/>
        <pt x="100" y="0" on="1"/>
        <pt x="100" y="700" on="1"/>
        <pt x="280" y="700" on="1"/>
        <pt x="512" y="700" on="0"/>
        <pt x="512" y="523" on="1"/>
        <pt x="512" y="482" on="0"/>
        <pt x="464" y="407" on="0"/>
        <pt x="417" y="386" on="1"/>
        <pt x="417" y="370" on="1"/>
        <pt x="491" y="348" on="0"/>
        <pt x="556" y="269" on="0"/>
        <pt x="556" y="202" on="1"/>
        <pt x="556" y="86" on="0"/>
        <pt x="417" y="0" on="0"/>
      </contour>
      <contour>
        <pt x="289" y="332" on="1"/>
        <pt x="200" y="332" on="1"/>
        <pt x="200" y="70" on="1"/>
        <pt x="281" y="70" on="1"/>
        <pt x="370" y="70" on="0"/>
        <pt x="461" y="126" on="0"/>
        <pt x="461" y="202" on="1"/>
        <pt x="461" y="262" on="0"/>
        <pt x="369" y="332" on="0"/>
      </contour>
      <contour>
        <pt x="417" y="521" on="1"/>
        <pt x="417" y="635" on="0"/>
        <pt x="270" y="635" on="1"/>
        <pt x="200" y="635" on="1"/>
        <pt x="200" y="399" on="1"/>
        <pt x="269" y="399" on="1"/>
        <pt x="337" y="399" on="0"/>
        <pt x="417" y="459" on="0"/>
      </contour>
    </TTGlyph>
    <TTGlyph name="Bsmallcap" xMin="100" yMin="0" xMax="492" yMax="546">
      <contour>
        <pt x="255" y="0" on="1"/>
        <pt x="100" y="0" on="1"/>
        <pt x="100" y="546" on="1"/>
        <pt x="257" y="546" on="1"/>
        <pt x="456" y="546" on="0"/>
        <pt x="456" y="408" on="1"/>
        <pt x="456" y="376" on="0"/>
        <pt x="416" y="317" on="0"/>
        <pt x="375" y="301" on="1"/>
        <pt x="375" y="289" on="1"/>
        <pt x="437" y="271" on="0"/>
        <pt x="492" y="210" on="0"/>
        <pt x="492" y="158" on="1"/>
        <pt x="492" y="73" on="0"/>
        <pt x="369" y="0" on="0"/>
      </contour>
      <contour>
        <pt x="262" y="253" on="1"/>
        <pt x="195" y="253" on="1"/>
        <pt x="195" y="63" on="1"/>
        <pt x="255" y="63" on="1"/>
        <pt x="327" y="63" on="0"/>
        <pt x="398" y="102" on="0"/>
        <pt x="398" y="201" on="0"/>
        <pt x="325" y="253" on="0"/>
      </contour>
      <contour>
        <pt x="363" y="406" on="1"/>
        <pt x="363" y="484" on="0"/>
        <pt x="249" y="484" on="1"/>
        <pt x="195" y="484" on="1"/>
        <pt x="195" y="320" on="1"/>
        <pt x="248" y="320" on="1"/>
        <pt x="301" y="320" on="0"/>
        <pt x="363" y="362" on="0"/>
      </contour>
    </TTGlyph>
    <TTGlyph name="C" xMin="60" yMin="-12" xMax="540" yMax="712">
      <contour>
        <pt x="517" y="607" on="1"/>
        <pt x="428" y="634" on="0"/>
        <pt x="309" y="634" on="0"/>
        <pt x="229" y="591" on="0"/>
        <pt x="186" y="511" on="0"/>
        <pt x="167" y="414" on="0"/>
        <pt x="167" y="286" on="0"/>
        <pt x="186" y="189" on="0"/>
        <pt x="208" y="149" on="1"/>
        <pt x="252" y="66" on="0"/>
        <pt x="365" y="66" on="1"/>
        <pt x="425" y="66" on="0"/>
        <pt x="520" y="97" on="1"/>
        <pt x="540" y="24" on="1"/>
        <pt x="456" y="-12" on="0"/>
        <pt x="364" y="-12" on="1"/>
        <pt x="60" y="-12" on="0"/>
        <pt x="60" y="712" on="0"/>
        <pt x="365" y="712" on="1"/>
        <pt x="444" y="712" on="0"/>
        <pt x="537" y="677" on="1"/>
      </contour>
    </TTGlyph>
    <TTGlyph name="Cacute" xMin="60" yMin="-12" xMax="540" yMax="917">
      <contour>
        <pt x="517" y="607" on="1"/>
        <pt x="428" y="634" on="0"/>
        <pt x="309" y="634" on="0"/>
        <pt x="229" y="591" on="0"/>
        <pt x="186" y="511" on="0"/>
        <pt x="167" y="414" on="0"/>
        <pt x="167" y="286" on="0"/>
        <pt x="186" y="189" on="0"/>
        <pt x="208" y="149" on="1"/>
        <pt x="252" y="66" on="0"/>
        <pt x="365" y="66" on="1"/>
        <pt x="425" y="66" on="0"/>
        <pt x="520" y="97" on="1"/>
        <pt x="540" y="24" on="1"/>
        <pt x="456" y="-12" on="0"/>
        <pt x="364" y="-12" on="1"/>
        <pt x="60" y="-12" on="0"/>
        <pt x="60" y="712" on="0"/>
        <pt x="365" y="712" on="1"/>
        <pt x="444" y="712" on="0"/>
        <pt x="537" y="677" on="1"/>
      </contour>
      <contour>
        <pt x="496" y="852" on="1"/>
        <pt x="496" y="822" on="0"/>
        <pt x="454" y="811" on="1"/>
        <pt x="269" y="760" on="1"/>
        <pt x="246" y="810" on="1"/>
        <pt x="469" y="917" on="1"/>
        <pt x="492" y="867" on="1"/>
        <pt x="496" y="859" on="0"/>
      </contour>
    </TTGlyph>
    <TTGlyph name="Ccaron" xMin="60" yMin="-12" xMax="540" yMax="923">
      <contour>
        <pt x="517" y="607" on="1"/>
        <pt x="428" y="634" on="0"/>
        <pt x="309" y="634" on="0"/>
        <pt x="229" y="591" on="0"/>
        <pt x="186" y="511" on="0"/>
        <pt x="167" y="414" on="0"/>
        <pt x="167" y="286" on="0"/>
        <pt x="186" y="189" on="0"/>
        <pt x="208" y="149" on="1"/>
        <pt x="252" y="66" on="0"/>
        <pt x="365" y="66" on="1"/>
        <pt x="425" y="66" on="0"/>
        <pt x="520" y="97" on="1"/>
        <pt x="540" y="24" on="1"/>
        <pt x="456" y="-12" on="0"/>
        <pt x="364" y="-12" on="1"/>
        <pt x="60" y="-12" on="0"/>
        <pt x="60" y="712" on="0"/>
        <pt x="365" y="712" on="1"/>
        <pt x="444" y="712" on="0"/>
        <pt x="537" y="677" on="1"/>
      </contour>
      <contour>
        <pt x="298" y="763" on="1"/>
        <pt x="173" y="891" on="1"/>
        <pt x="209" y="923" on="1"/>
        <pt x="344" y="825" on="1"/>
        <pt x="480" y="923" on="1"/>
        <pt x="516" y="891" on="1"/>
        <pt x="391" y="763" on="1"/>
      </contour>
    </TTGlyph>
    <TTGlyph name="Ccedilla" xMin="60" yMin="-220" xMax="540" yMax="712">
      <contour>
        <pt x="364" y="-12" on="1"/>
        <pt x="351" y="-11" on="1"/>
        <pt x="341" y="-48" on="1"/>
        <pt x="383" y="-54" on="0"/>
        <pt x="430" y="-99" on="0"/>
        <pt x="430" y="-130" on="1"/>
        <pt x="430" y="-220" on="0"/>
        <pt x="318" y="-220" on="1"/>
        <pt x="280" y="-220" on="0"/>
        <pt x="250" y="-210" on="1"/>
        <pt x="260" y="-170" on="1"/>
        <pt x="286" y="-177" on="0"/>
        <pt x="314" y="-177" on="1"/>
        <pt x="368" y="-177" on="0"/>
        <pt x="368" y="-129" on="1"/>
        <pt x="368" y="-105" on="0"/>
        <pt x="323" y="-87" on="0"/>
        <pt x="280" y="-84" on="1"/>
        <pt x="298" y="-7" on="1"/>
        <pt x="60" y="29" on="0"/>
        <pt x="60" y="350" on="1"/>
        <pt x="60" y="712" on="0"/>
        <pt x="365" y="712" on="1"/>
        <pt x="444" y="712" on="0"/>
        <pt x="537" y="677" on="1"/>
        <pt x="517" y="607" on="1"/>
        <pt x="428" y="634" on="0"/>
        <pt x="309" y="634" on="0"/>
        <pt x="229" y="591" on="0"/>
        <pt x="186" y="511" on="0"/>
        <pt x="167" y="414" on="0"/>
        <pt x="167" y="286" on="0"/>
        <pt x="186" y="189" on="0"/>
        <pt x="208" y="149" on="1"/>
        <pt x="252" y="66" on="0"/>
        <pt x="365" y="66" on="1"/>
        <pt x="425" y="66" on="0"/>
        <pt x="520" y="97" on="1"/>
        <pt x="540" y="24" on="1"/>
        <pt x="456" y="-12" on="0"/>
      </contour>
    </TTGlyph>
    <TTGlyph name="Ccircumflex" xMin="60" yMin="-12" xMax="540" yMax="898">
      <contour>
        <pt x="517" y="607" on="1"/>
        <pt x="428" y="634" on="0"/>
        <pt x="309" y="634" on="0"/>
        <pt x="229" y="591" on="0"/>
        <pt x="186" y="511" on="0"/>
        <pt x="167" y="414" on="0"/>
        <pt x="167" y="286" on="0"/>
        <pt x="186" y="189" on="0"/>
        <pt x="208" y="149" on="1"/>
        <pt x="252" y="66" on="0"/>
        <pt x="365" y="66" on="1"/>
        <pt x="425" y="66" on="0"/>
        <pt x="520" y="97" on="1"/>
        <pt x="540" y="24" on="1"/>
        <pt x="456" y="-12" on="0"/>
        <pt x="364" y="-12" on="1"/>
        <pt x="60" y="-12" on="0"/>
        <pt x="60" y="712" on="0"/>
        <pt x="365" y="712" on="1"/>
        <pt x="444" y="712" on="0"/>
        <pt x="537" y="677" on="1"/>
      </contour>
      <contour>
        <pt x="178" y="770" on="1"/>
        <pt x="303" y="898" on="1"/>
        <pt x="396" y="898" on="1"/>
        <pt x="521" y="770" on="1"/>
        <pt x="485" y="738" on="1"/>
        <pt x="349" y="836" on="1"/>
        <pt x="214" y="738" on="1"/>
      </contour>
    </TTGlyph>
    <TTGlyph name="Cdot" xMin="60" yMin="-12" xMax="540" yMax="915">
      <contour>
        <pt x="517" y="607" on="1"/>
        <pt x="428" y="634" on="0"/>
        <pt x="309" y="634" on="0"/>
        <pt x="229" y="591" on="0"/>
        <pt x="186" y="511" on="0"/>
        <pt x="167" y="414" on="0"/>
        <pt x="167" y="286" on="0"/>
        <pt x="186" y="189" on="0"/>
        <pt x="208" y="149" on="1"/>
        <pt x="252" y="66" on="0"/>
        <pt x="365" y="66" on="1"/>
        <pt x="425" y="66" on="0"/>
        <pt x="520" y="97" on="1"/>
        <pt x="540" y="24" on="1"/>
        <pt x="456" y="-12" on="0"/>
        <pt x="364" y="-12" on="1"/>
        <pt x="60" y="-12" on="0"/>
        <pt x="60" y="712" on="0"/>
        <pt x="365" y="712" on="1"/>
        <pt x="444" y="712" on="0"/>
        <pt x="537" y="677" on="1"/>
      </contour>
      <contour>
        <pt x="267" y="815" on="0"/>
        <pt x="267" y="873" on="0"/>
        <pt x="309" y="915" on="0"/>
        <pt x="367" y="915" on="0"/>
        <pt x="409" y="873" on="0"/>
        <pt x="409" y="815" on="0"/>
        <pt x="367" y="773" on="0"/>
        <pt x="309" y="773" on="0"/>
      </contour>
    </TTGlyph>
    <TTGlyph name="D" xMin="85" yMin="0" xMax="623" yMax="700">
      <contour>
        <pt x="185" y="80" on="1"/>
        <pt x="303" y="80" on="1"/>
        <pt x="421" y="80" on="0"/>
        <pt x="518" y="223" on="0"/>
        <pt x="518" y="350" on="1"/>
        <pt x="518" y="624" on="0"/>
        <pt x="301" y="624" on="1"/>
        <pt x="185" y="624" on="1"/>
      </contour>
      <contour>
        <pt x="300" y="0" on="1"/>
        <pt x="85" y="0" on="1"/>
        <pt x="85" y="700" on="1"/>
        <pt x="300" y="700" on="1"/>
        <pt x="464" y="700" on="0"/>
        <pt x="623" y="518" on="0"/>
        <pt x="623" y="350" on="1"/>
        <pt x="623" y="0" on="0"/>
      </contour>
    </TTGlyph>
    <TTGlyph name="Dcaron" xMin="85" yMin="0" xMax="623" yMax="923">
      <contour>
        <pt x="185" y="80" on="1"/>
        <pt x="303" y="80" on="1"/>
        <pt x="421" y="80" on="0"/>
        <pt x="518" y="223" on="0"/>
        <pt x="518" y="350" on="1"/>
        <pt x="518" y="624" on="0"/>
        <pt x="301" y="624" on="1"/>
        <pt x="185" y="624" on="1"/>
      </contour>
      <contour>
        <pt x="300" y="0" on="1"/>
        <pt x="85" y="0" on="1"/>
        <pt x="85" y="700" on="1"/>
        <pt x="300" y="700" on="1"/>
        <pt x="464" y="700" on="0"/>
        <pt x="623" y="518" on="0"/>
        <pt x="623" y="350" on="1"/>
        <pt x="623" y="0" on="0"/>
      </contour>
      <contour>
        <pt x="276" y="763" on="1"/>
        <pt x="151" y="891" on="1"/>
        <pt x="187" y="923" on="1"/>
        <pt x="322" y="825" on="1"/>
        <pt x="458" y="923" on="1"/>
        <pt x="494" y="891" on="1"/>
        <pt x="369" y="763" on="1"/>
      </contour>
    </TTGlyph>
    <TTGlyph name="Dcroat" xMin="14" yMin="0" xMax="623" yMax="700">
      <contour>
        <pt x="14" y="318" on="1"/>
        <pt x="14" y="395" on="1"/>
        <pt x="85" y="395" on="1"/>
        <pt x="85" y="700" on="1"/>
        <pt x="300" y="700" on="1"/>
        <pt x="464" y="700" on="0"/>
        <pt x="623" y="518" on="0"/>
        <pt x="623" y="350" on="1"/>
        <pt x="623" y="0" on="0"/>
        <pt x="300" y="0" on="1"/>
        <pt x="85" y="0" on="1"/>
        <pt x="85" y="318" on="1"/>
      </contour>
      <contour>
        <pt x="185" y="80" on="1"/>
        <pt x="303" y="80" on="1"/>
        <pt x="421" y="80" on="0"/>
        <pt x="518" y="223" on="0"/>
        <pt x="518" y="350" on="1"/>
        <pt x="518" y="624" on="0"/>
        <pt x="301" y="624" on="1"/>
        <pt x="185" y="624" on="1"/>
        <pt x="185" y="395" on="1"/>
        <pt x="344" y="395" on="1"/>
        <pt x="344" y="318" on="1"/>
        <pt x="185" y="318" on="1"/>
      </contour>
    </TTGlyph>
    <TTGlyph name="Delta" xMin="3" yMin="0" xMax="611" yMax="700">
      <contour>
        <pt x="611" y="0" on="1"/>
        <pt x="3" y="0" on="1"/>
        <pt x="240" y="700" on="1"/>
        <pt x="374" y="700" on="1"/>
      </contour>
      <contour>
        <pt x="298" y="617" on="1"/>
        <pt x="283" y="527" on="0"/>
        <pt x="258" y="453" on="1"/>
        <pt x="131" y="84" on="1"/>
        <pt x="482" y="84" on="1"/>
        <pt x="356" y="453" on="1"/>
        <pt x="334" y="519" on="0"/>
        <pt x="320" y="592" on="1"/>
        <pt x="316" y="617" on="1"/>
      </contour>
    </TTGlyph>
    <TTGlyph name="E" xMin="95" yMin="0" xMax="512" yMax="700">
      <contour>
        <pt x="512" y="0" on="1"/>
        <pt x="95" y="0" on="1"/>
        <pt x="95" y="700" on="1"/>
        <pt x="512" y="700" on="1"/>
        <pt x="512" y="617" on="1"/>
        <pt x="195" y="617" on="1"/>
        <pt x="195" y="416" on="1"/>
        <pt x="482" y="416" on="1"/>
        <pt x="482" y="332" on="1"/>
        <pt x="195" y="332" on="1"/>
        <pt x="195" y="83" on="1"/>
        <pt x="512" y="83" on="1"/>
      </contour>
    </TTGlyph>
    <TTGlyph name="Eacute" xMin="95" yMin="0" xMax="512" yMax="917">
      <contour>
        <pt x="512" y="0" on="1"/>
        <pt x="95" y="0" on="1"/>
        <pt x="95" y="700" on="1"/>
        <pt x="512" y="700" on="1"/>
        <pt x="512" y="617" on="1"/>
        <pt x="195" y="617" on="1"/>
        <pt x="195" y="416" on="1"/>
        <pt x="482" y="416" on="1"/>
        <pt x="482" y="332" on="1"/>
        <pt x="195" y="332" on="1"/>
        <pt x="195" y="83" on="1"/>
        <pt x="512" y="83" on="1"/>
      </contour>
      <contour>
        <pt x="434" y="852" on="1"/>
        <pt x="434" y="822" on="0"/>
        <pt x="392" y="811" on="1"/>
        <pt x="207" y="760" on="1"/>
        <pt x="184" y="810" on="1"/>
        <pt x="407" y="917" on="1"/>
        <pt x="430" y="867" on="1"/>
        <pt x="434" y="859" on="0"/>
      </contour>
    </TTGlyph>
    <TTGlyph name="Ebreve" xMin="95" yMin="0" xMax="512" yMax="910">
      <contour>
        <pt x="512" y="0" on="1"/>
        <pt x="95" y="0" on="1"/>
        <pt x="95" y="700" on="1"/>
        <pt x="512" y="700" on="1"/>
        <pt x="512" y="617" on="1"/>
        <pt x="195" y="617" on="1"/>
        <pt x="195" y="416" on="1"/>
        <pt x="482" y="416" on="1"/>
        <pt x="482" y="332" on="1"/>
        <pt x="195" y="332" on="1"/>
        <pt x="195" y="83" on="1"/>
        <pt x="512" y="83" on="1"/>
      </contour>
      <contour>
        <pt x="482" y="754" on="0"/>
        <pt x="118" y="754" on="0"/>
        <pt x="118" y="901" on="1"/>
        <pt x="175" y="910" on="1"/>
        <pt x="182" y="855" on="0"/>
        <pt x="237" y="818" on="0"/>
        <pt x="363" y="818" on="0"/>
        <pt x="418" y="855" on="0"/>
        <pt x="425" y="910" on="1"/>
        <pt x="482" y="901" on="1"/>
      </contour>
    </TTGlyph>
    <TTGlyph name="Ecaron" xMin="95" yMin="0" xMax="512" yMax="923">
      <contour>
        <pt x="512" y="0" on="1"/>
        <pt x="95" y="0" on="1"/>
        <pt x="95" y="700" on="1"/>
        <pt x="512" y="700" on="1"/>
        <pt x="512" y="617" on="1"/>
        <pt x="195" y="617" on="1"/>
        <pt x="195" y="416" on="1"/>
        <pt x="482" y="416" on="1"/>
        <pt x="482" y="332" on="1"/>
        <pt x="195" y="332" on="1"/>
        <pt x="195" y="83" on="1"/>
        <pt x="512" y="83" on="1"/>
      </contour>
      <contour>
        <pt x="249" y="763" on="1"/>
        <pt x="124" y="891" on="1"/>
        <pt x="160" y="923" on="1"/>
        <pt x="295" y="825" on="1"/>
        <pt x="431" y="923" on="1"/>
        <pt x="467" y="891" on="1"/>
        <pt x="342" y="763" on="1"/>
      </contour>
    </TTGlyph>
    <TTGlyph name="Ecircumflex" xMin="95" yMin="0" xMax="512" yMax="898">
      <contour>
        <pt x="512" y="0" on="1"/>
        <pt x="95" y="0" on="1"/>
        <pt x="95" y="700" on="1"/>
        <pt x="512" y="700" on="1"/>
        <pt x="512" y="617" on="1"/>
        <pt x="195" y="617" on="1"/>
        <pt x="195" y="416" on="1"/>
        <pt x="482" y="416" on="1"/>
        <pt x="482" y="332" on="1"/>
        <pt x="195" y="332" on="1"/>
        <pt x="195" y="83" on="1"/>
        <pt x="512" y="83" on="1"/>
      </contour>
      <contour>
        <pt x="137" y="770" on="1"/>
        <pt x="262" y="898" on="1"/>
        <pt x="355" y="898" on="1"/>
        <pt x="480" y="770" on="1"/>
        <pt x="444" y="738" on="1"/>
        <pt x="308" y="836" on="1"/>
        <pt x="173" y="738" on="1"/>
      </contour>
    </TTGlyph>
    <TTGlyph name="Edieresis" xMin="95" yMin="0" xMax="512" yMax="892">
      <contour>
        <pt x="512" y="0" on="1"/>
        <pt x="95" y="0" on="1"/>
        <pt x="95" y="700" on="1"/>
        <pt x="512" y="700" on="1"/>
        <pt x="512" y="617" on="1"/>
        <pt x="195" y="617" on="1"/>
        <pt x="195" y="416" on="1"/>
        <pt x="482" y="416" on="1"/>
        <pt x="482" y="332" on="1"/>
        <pt x="195" y="332" on="1"/>
        <pt x="195" y="83" on="1"/>
        <pt x="512" y="83" on="1"/>
      </contour>
      <contour>
        <pt x="152" y="807" on="0"/>
        <pt x="152" y="857" on="0"/>
        <pt x="188" y="892" on="0"/>
        <pt x="237" y="892" on="0"/>
        <pt x="272" y="857" on="0"/>
        <pt x="272" y="807" on="0"/>
        <pt x="237" y="772" on="0"/>
        <pt x="188" y="772" on="0"/>
      </contour>
      <contour>
        <pt x="455" y="857" on="0"/>
        <pt x="455" y="807" on="0"/>
        <pt x="419" y="772" on="0"/>
        <pt x="370" y="772" on="0"/>
        <pt x="335" y="807" on="0"/>
        <pt x="335" y="857" on="0"/>
        <pt x="370" y="892" on="0"/>
        <pt x="419" y="892" on="0"/>
      </contour>
    </TTGlyph>
    <TTGlyph name="Edotaccent" xMin="95" yMin="0" xMax="512" yMax="915">
      <contour>
        <pt x="512" y="0" on="1"/>
        <pt x="95" y="0" on="1"/>
        <pt x="95" y="700" on="1"/>
        <pt x="512" y="700" on="1"/>
        <pt x="512" y="617" on="1"/>
        <pt x="195" y="617" on="1"/>
        <pt x="195" y="416" on="1"/>
        <pt x="482" y="416" on="1"/>
        <pt x="482" y="332" on="1"/>
        <pt x="195" y="332" on="1"/>
        <pt x="195" y="83" on="1"/>
        <pt x="512" y="83" on="1"/>
      </contour>
      <contour>
        <pt x="234" y="815" on="0"/>
        <pt x="234" y="873" on="0"/>
        <pt x="276" y="915" on="0"/>
        <pt x="334" y="915" on="0"/>
        <pt x="376" y="873" on="0"/>
        <pt x="376" y="815" on="0"/>
        <pt x="334" y="773" on="0"/>
        <pt x="276" y="773" on="0"/>
      </contour>
    </TTGlyph>
    <TTGlyph name="Egrave" xMin="95" yMin="0" xMax="512" yMax="917">
      <contour>
        <pt x="512" y="0" on="1"/>
        <pt x="95" y="0" on="1"/>
        <pt x="95" y="700" on="1"/>
        <pt x="512" y="700" on="1"/>
        <pt x="512" y="617" on="1"/>
        <pt x="195" y="617" on="1"/>
        <pt x="195" y="416" on="1"/>
        <pt x="482" y="416" on="1"/>
        <pt x="482" y="332" on="1"/>
        <pt x="195" y="332" on="1"/>
        <pt x="195" y="83" on="1"/>
        <pt x="512" y="83" on="1"/>
      </contour>
      <contour>
        <pt x="157" y="852" on="1"/>
        <pt x="157" y="859" on="0"/>
        <pt x="161" y="867" on="1"/>
        <pt x="184" y="917" on="1"/>
        <pt x="407" y="810" on="1"/>
        <pt x="384" y="760" on="1"/>
        <pt x="199" y="811" on="1"/>
        <pt x="157" y="822" on="0"/>
      </contour>
    </TTGlyph>
    <TTGlyph name="Emacron" xMin="95" yMin="0" xMax="512" yMax="855">
      <contour>
        <pt x="512" y="0" on="1"/>
        <pt x="95" y="0" on="1"/>
        <pt x="95" y="700" on="1"/>
        <pt x="512" y="700" on="1"/>
        <pt x="512" y="617" on="1"/>
        <pt x="195" y="617" on="1"/>
        <pt x="195" y="416" on="1"/>
        <pt x="482" y="416" on="1"/>
        <pt x="482" y="332" on="1"/>
        <pt x="195" y="332" on="1"/>
        <pt x="195" y="83" on="1"/>
        <pt x="512" y="83" on="1"/>
      </contour>
      <contour>
        <pt x="145" y="786" on="1"/>
        <pt x="145" y="855" on="1"/>
        <pt x="459" y="855" on="1"/>
        <pt x="459" y="786" on="1"/>
      </contour>
    </TTGlyph>
    <TTGlyph name="Eng" xMin="90" yMin="-220" xMax="634" yMax="700">
      <contour>
        <pt x="190" y="449" on="1"/>
        <pt x="190" y="0" on="1"/>
        <pt x="90" y="0" on="1"/>
        <pt x="90" y="700" on="1"/>
        <pt x="180" y="700" on="1"/>
        <pt x="482" y="252" on="1"/>
        <pt x="508" y="215" on="0"/>
        <pt x="526" y="148" on="1"/>
        <pt x="532" y="127" on="1"/>
        <pt x="548" y="130" on="1"/>
        <pt x="534" y="216" on="0"/>
        <pt x="534" y="248" on="1"/>
        <pt x="534" y="700" on="1"/>
        <pt x="634" y="700" on="1"/>
        <pt x="634" y="-77" on="1"/>
        <pt x="634" y="-142" on="0"/>
        <pt x="563" y="-220" on="0"/>
        <pt x="490" y="-220" on="1"/>
        <pt x="449" y="-220" on="0"/>
        <pt x="411" y="-204" on="1"/>
        <pt x="430" y="-143" on="1"/>
        <pt x="455" y="-152" on="0"/>
        <pt x="513" y="-152" on="0"/>
        <pt x="534" y="-112" on="0"/>
        <pt x="534" y="-76" on="1"/>
        <pt x="534" y="15" on="1"/>
        <pt x="240" y="449" on="1"/>
        <pt x="214" y="487" on="0"/>
        <pt x="198" y="550" on="1"/>
        <pt x="192" y="571" on="1"/>
        <pt x="176" y="568" on="1"/>
        <pt x="190" y="481" on="0"/>
      </contour>
    </TTGlyph>
    <TTGlyph name="Eogonek" xMin="95" yMin="-220" xMax="528" yMax="700">
      <contour>
        <pt x="512" y="83" on="1"/>
        <pt x="512" y="0" on="1"/>
        <pt x="464" y="-25" on="0"/>
        <pt x="403" y="-87" on="0"/>
        <pt x="403" y="-140" on="0"/>
        <pt x="431" y="-165" on="0"/>
        <pt x="478" y="-165" on="0"/>
        <pt x="499" y="-151" on="1"/>
        <pt x="528" y="-196" on="1"/>
        <pt x="487" y="-220" on="0"/>
        <pt x="392" y="-220" on="0"/>
        <pt x="336" y="-162" on="0"/>
        <pt x="336" y="-118" on="1"/>
        <pt x="336" y="-57" on="0"/>
        <pt x="411" y="0" on="1"/>
        <pt x="95" y="0" on="1"/>
        <pt x="95" y="700" on="1"/>
        <pt x="512" y="700" on="1"/>
        <pt x="512" y="617" on="1"/>
        <pt x="195" y="617" on="1"/>
        <pt x="195" y="416" on="1"/>
        <pt x="482" y="416" on="1"/>
        <pt x="482" y="332" on="1"/>
        <pt x="195" y="332" on="1"/>
        <pt x="195" y="83" on="1"/>
      </contour>
    </TTGlyph>
    <TTGlyph name="Eth" xMin="14" yMin="0" xMax="623" yMax="700">
      <contour>
        <pt x="14" y="318" on="1"/>
        <pt x="14" y="395" on="1"/>
        <pt x="85" y="395" on="1"/>
        <pt x="85" y="700" on="1"/>
        <pt x="300" y="700" on="1"/>
        <pt x="464" y="700" on="0"/>
        <pt x="623" y="518" on="0"/>
        <pt x="623" y="350" on="1"/>
        <pt x="623" y="0" on="0"/>
        <pt x="300" y="0" on="1"/>
        <pt x="85" y="0" on="1"/>
        <pt x="85" y="318" on="1"/>
      </contour>
      <contour>
        <pt x="185" y="80" on="1"/>
        <pt x="303" y="80" on="1"/>
        <pt x="421" y="80" on="0"/>
        <pt x="518" y="223" on="0"/>
        <pt x="518" y="350" on="1"/>
        <pt x="518" y="624" on="0"/>
        <pt x="301" y="624" on="1"/>
        <pt x="185" y="624" on="1"/>
        <pt x="185" y="395" on="1"/>
        <pt x="344" y="395" on="1"/>
        <pt x="344" y="318" on="1"/>
        <pt x="185" y="318" on="1"/>
      </contour>
    </TTGlyph>
    <TTGlyph name="Euro" xMin="4" yMin="-12" xMax="495" yMax="712">
      <contour>
        <pt x="4" y="392" on="1"/>
        <pt x="4" y="455" on="1"/>
        <pt x="69" y="455" on="1"/>
        <pt x="90" y="579" on="0"/>
        <pt x="230" y="712" on="0"/>
        <pt x="347" y="712" on="1"/>
        <pt x="418" y="712" on="0"/>
        <pt x="495" y="678" on="1"/>
        <pt x="472" y="607" on="1"/>
        <pt x="396" y="634" on="0"/>
        <pt x="343" y="634" on="1"/>
        <pt x="207" y="634" on="0"/>
        <pt x="175" y="455" on="1"/>
        <pt x="428" y="455" on="1"/>
        <pt x="428" y="392" on="1"/>
        <pt x="168" y="392" on="1"/>
        <pt x="167" y="375" on="0"/>
        <pt x="167" y="341" on="1"/>
        <pt x="167" y="323" on="1"/>
        <pt x="398" y="323" on="1"/>
        <pt x="398" y="260" on="1"/>
        <pt x="170" y="260" on="1"/>
        <pt x="178" y="165" on="0"/>
        <pt x="248" y="66" on="0"/>
        <pt x="325" y="66" on="1"/>
        <pt x="378" y="66" on="0"/>
        <pt x="454" y="95" on="1"/>
        <pt x="474" y="25" on="1"/>
        <pt x="400" y="-12" on="0"/>
        <pt x="320" y="-12" on="1"/>
        <pt x="196" y="-12" on="0"/>
        <pt x="75" y="127" on="0"/>
        <pt x="63" y="260" on="1"/>
        <pt x="4" y="260" on="1"/>
        <pt x="4" y="323" on="1"/>
        <pt x="60" y="323" on="1"/>
        <pt x="60" y="338" on="1"/>
        <pt x="60" y="356" on="0"/>
        <pt x="62" y="392" on="1"/>
      </contour>
    </TTGlyph>
    <TTGlyph name="F" xMin="95" yMin="0" xMax="517" yMax="700">
      <contour>
        <pt x="195" y="0" on="1"/>
        <pt x="95" y="0" on="1"/>
        <pt x="95" y="700" on="1"/>
        <pt x="517" y="700" on="1"/>
        <pt x="517" y="616" on="1"/>
        <pt x="195" y="616" on="1"/>
        <pt x="195" y="396" on="1"/>
        <pt x="487" y="396" on="1"/>
        <pt x="487" y="312" on="1"/>
        <pt x="195" y="312" on="1"/>
      </contour>
    </TTGlyph>
    <TTGlyph name="G" xMin="60" yMin="-12" xMax="582" yMax="712">
      <contour>
        <pt x="352" y="-12" on="1"/>
        <pt x="203" y="-12" on="0"/>
        <pt x="60" y="178" on="0"/>
        <pt x="60" y="350" on="1"/>
        <pt x="60" y="712" on="0"/>
        <pt x="371" y="712" on="1"/>
        <pt x="463" y="712" on="0"/>
        <pt x="554" y="679" on="1"/>
        <pt x="534" y="609" on="1"/>
        <pt x="431" y="634" on="0"/>
        <pt x="313" y="634" on="0"/>
        <pt x="231" y="591" on="0"/>
        <pt x="209" y="551" on="1"/>
        <pt x="167" y="475" on="0"/>
        <pt x="167" y="217" on="0"/>
        <pt x="253" y="66" on="0"/>
        <pt x="358" y="66" on="1"/>
        <pt x="440" y="66" on="0"/>
        <pt x="485" y="120" on="1"/>
        <pt x="485" y="273" on="1"/>
        <pt x="347" y="273" on="1"/>
        <pt x="347" y="351" on="1"/>
        <pt x="582" y="351" on="1"/>
        <pt x="582" y="-8" on="1"/>
        <pt x="563" y="-8" on="1"/>
        <pt x="535" y="-8" on="0"/>
        <pt x="520" y="18" on="1"/>
        <pt x="506" y="44" on="1"/>
        <pt x="490" y="44" on="1"/>
        <pt x="468" y="17" on="0"/>
        <pt x="387" y="-12" on="0"/>
      </contour>
    </TTGlyph>
    <TTGlyph name="Gbreve" xMin="60" yMin="-12" xMax="582" yMax="910">
      <contour>
        <pt x="352" y="-12" on="1"/>
        <pt x="203" y="-12" on="0"/>
        <pt x="60" y="178" on="0"/>
        <pt x="60" y="350" on="1"/>
        <pt x="60" y="712" on="0"/>
        <pt x="371" y="712" on="1"/>
        <pt x="463" y="712" on="0"/>
        <pt x="554" y="679" on="1"/>
        <pt x="534" y="609" on="1"/>
        <pt x="431" y="634" on="0"/>
        <pt x="313" y="634" on="0"/>
        <pt x="231" y="591" on="0"/>
        <pt x="209" y="551" on="1"/>
        <pt x="167" y="475" on="0"/>
        <pt x="167" y="217" on="0"/>
        <pt x="253" y="66" on="0"/>
        <pt x="358" y="66" on="1"/>
        <pt x="440" y="66" on="0"/>
        <pt x="485" y="120" on="1"/>
        <pt x="485" y="273" on="1"/>
        <pt x="347" y="273" on="1"/>
        <pt x="347" y="351" on="1"/>
        <pt x="582" y="351" on="1"/>
        <pt x="582" y="-8" on="1"/>
        <pt x="563" y="-8" on="1"/>
        <pt x="535" y="-8" on="0"/>
        <pt x="520" y="18" on="1"/>
        <pt x="506" y="44" on="1"/>
        <pt x="490" y="44" on="1"/>
        <pt x="468" y="17" on="0"/>
        <pt x="387" y="-12" on="0"/>
      </contour>
      <contour>
        <pt x="531" y="754" on="0"/>
        <pt x="167" y="754" on="0"/>
        <pt x="167" y="901" on="1"/>
        <pt x="224" y="910" on="1"/>
        <pt x="231" y="855" on="0"/>
        <pt x="286" y="818" on="0"/>
        <pt x="412" y="818" on="0"/>
        <pt x="467" y="855" on="0"/>
        <pt x="474" y="910" on="1"/>
        <pt x="531" y="901" on="1"/>
      </contour>
    </TTGlyph>
    <TTGlyph name="Gcircumflex" xMin="60" yMin="-12" xMax="582" yMax="898">
      <contour>
        <pt x="352" y="-12" on="1"/>
        <pt x="203" y="-12" on="0"/>
        <pt x="60" y="178" on="0"/>
        <pt x="60" y="350" on="1"/>
        <pt x="60" y="712" on="0"/>
        <pt x="371" y="712" on="1"/>
        <pt x="463" y="712" on="0"/>
        <pt x="554" y="679" on="1"/>
        <pt x="534" y="609" on="1"/>
        <pt x="431" y="634" on="0"/>
        <pt x="313" y="634" on="0"/>
        <pt x="231" y="591" on="0"/>
        <pt x="209" y="551" on="1"/>
        <pt x="167" y="475" on="0"/>
        <pt x="167" y="217" on="0"/>
        <pt x="253" y="66" on="0"/>
        <pt x="358" y="66" on="1"/>
        <pt x="440" y="66" on="0"/>
        <pt x="485" y="120" on="1"/>
        <pt x="485" y="273" on="1"/>
        <pt x="347" y="273" on="1"/>
        <pt x="347" y="351" on="1"/>
        <pt x="582" y="351" on="1"/>
        <pt x="582" y="-8" on="1"/>
        <pt x="563" y="-8" on="1"/>
        <pt x="535" y="-8" on="0"/>
        <pt x="520" y="18" on="1"/>
        <pt x="506" y="44" on="1"/>
        <pt x="490" y="44" on="1"/>
        <pt x="468" y="17" on="0"/>
        <pt x="387" y="-12" on="0"/>
      </contour>
      <contour>
        <pt x="177" y="770" on="1"/>
        <pt x="302" y="898" on="1"/>
        <pt x="395" y="898" on="1"/>
        <pt x="520" y="770" on="1"/>
        <pt x="484" y="738" on="1"/>
        <pt x="348" y="836" on="1"/>
        <pt x="213" y="738" on="1"/>
      </contour>
    </TTGlyph>
    <TTGlyph name="Gcommaaccent" xMin="60" yMin="-335" xMax="582" yMax="712">
      <contour>
        <pt x="352" y="-12" on="1"/>
        <pt x="203" y="-12" on="0"/>
        <pt x="60" y="178" on="0"/>
        <pt x="60" y="350" on="1"/>
        <pt x="60" y="712" on="0"/>
        <pt x="371" y="712" on="1"/>
        <pt x="463" y="712" on="0"/>
        <pt x="554" y="679" on="1"/>
        <pt x="534" y="609" on="1"/>
        <pt x="431" y="634" on="0"/>
        <pt x="313" y="634" on="0"/>
        <pt x="231" y="591" on="0"/>
        <pt x="209" y="551" on="1"/>
        <pt x="167" y="475" on="0"/>
        <pt x="167" y="217" on="0"/>
        <pt x="253" y="66" on="0"/>
        <pt x="358" y="66" on="1"/>
        <pt x="440" y="66" on="0"/>
        <pt x="485" y="120" on="1"/>
        <pt x="485" y="273" on="1"/>
        <pt x="347" y="273" on="1"/>
        <pt x="347" y="351" on="1"/>
        <pt x="582" y="351" on="1"/>
        <pt x="582" y="-8" on="1"/>
        <pt x="563" y="-8" on="1"/>
        <pt x="535" y="-8" on="0"/>
        <pt x="520" y="18" on="1"/>
        <pt x="506" y="44" on="1"/>
        <pt x="490" y="44" on="1"/>
        <pt x="468" y="17" on="0"/>
        <pt x="387" y="-12" on="0"/>
      </contour>
      <contour>
        <pt x="407" y="-62" on="0"/>
        <pt x="429" y="-85" on="0"/>
        <pt x="429" y="-111" on="0"/>
        <pt x="427" y="-118" on="1"/>
        <pt x="406" y="-205" on="1"/>
        <pt x="398" y="-237" on="0"/>
        <pt x="344" y="-311" on="1"/>
        <pt x="327" y="-335" on="1"/>
        <pt x="262" y="-305" on="1"/>
        <pt x="306" y="-208" on="0"/>
        <pt x="320" y="-161" on="0"/>
        <pt x="321" y="-144" on="1"/>
        <pt x="325" y="-58" on="1"/>
        <pt x="386" y="-61" on="1"/>
      </contour>
    </TTGlyph>
    <TTGlyph name="Gdot" xMin="60" yMin="-12" xMax="582" yMax="915">
      <contour>
        <pt x="352" y="-12" on="1"/>
        <pt x="203" y="-12" on="0"/>
        <pt x="60" y="178" on="0"/>
        <pt x="60" y="350" on="1"/>
        <pt x="60" y="712" on="0"/>
        <pt x="371" y="712" on="1"/>
        <pt x="463" y="712" on="0"/>
        <pt x="554" y="679" on="1"/>
        <pt x="534" y="609" on="1"/>
        <pt x="431" y="634" on="0"/>
        <pt x="313" y="634" on="0"/>
        <pt x="231" y="591" on="0"/>
        <pt x="209" y="551" on="1"/>
        <pt x="167" y="475" on="0"/>
        <pt x="167" y="217" on="0"/>
        <pt x="253" y="66" on="0"/>
        <pt x="358" y="66" on="1"/>
        <pt x="440" y="66" on="0"/>
        <pt x="485" y="120" on="1"/>
        <pt x="485" y="273" on="1"/>
        <pt x="347" y="273" on="1"/>
        <pt x="347" y="351" on="1"/>
        <pt x="582" y="351" on="1"/>
        <pt x="582" y="-8" on="1"/>
        <pt x="563" y="-8" on="1"/>
        <pt x="535" y="-8" on="0"/>
        <pt x="520" y="18" on="1"/>
        <pt x="506" y="44" on="1"/>
        <pt x="490" y="44" on="1"/>
        <pt x="468" y="17" on="0"/>
        <pt x="387" y="-12" on="0"/>
      </contour>
      <contour>
        <pt x="275" y="815" on="0"/>
        <pt x="275" y="873" on="0"/>
        <pt x="317" y="915" on="0"/>
        <pt x="375" y="915" on="0"/>
        <pt x="417" y="873" on="0"/>
        <pt x="417" y="815" on="0"/>
        <pt x="375" y="773" on="0"/>
        <pt x="317" y="773" on="0"/>
      </contour>
    </TTGlyph>
    <TTGlyph name="Gsmallcap" xMin="60" yMin="-12" xMax="513" yMax="558">
      <contour>
        <pt x="313" y="-12" on="1"/>
        <pt x="184" y="-12" on="0"/>
        <pt x="60" y="138" on="0"/>
        <pt x="60" y="273" on="1"/>
        <pt x="60" y="558" on="0"/>
        <pt x="330" y="558" on="1"/>
        <pt x="407" y="558" on="0"/>
        <pt x="479" y="535" on="1"/>
        <pt x="471" y="459" on="1"/>
        <pt x="374" y="479" on="0"/>
        <pt x="330" y="479" on="1"/>
        <pt x="165" y="479" on="0"/>
        <pt x="165" y="273" on="1"/>
        <pt x="165" y="176" on="0"/>
        <pt x="234" y="64" on="0"/>
        <pt x="319" y="64" on="1"/>
        <pt x="385" y="64" on="0"/>
        <pt x="417" y="107" on="1"/>
        <pt x="417" y="196" on="1"/>
        <pt x="309" y="196" on="1"/>
        <pt x="309" y="274" on="1"/>
        <pt x="513" y="274" on="1"/>
        <pt x="513" y="-9" on="1"/>
        <pt x="496" y="-9" on="1"/>
        <pt x="473" y="-9" on="0"/>
        <pt x="459" y="12" on="1"/>
        <pt x="447" y="32" on="1"/>
        <pt x="433" y="32" on="1"/>
        <pt x="414" y="11" on="0"/>
        <pt x="344" y="-12" on="0"/>
      </contour>
    </TTGlyph>
    <TTGlyph name="Gsmallhook" xMin="58" yMin="-12" xMax="604" yMax="766">
      <contour>
        <pt x="328" y="479" on="1"/>
        <pt x="163" y="479" on="0"/>
        <pt x="163" y="273" on="1"/>
        <pt x="163" y="176" on="0"/>
        <pt x="232" y="64" on="0"/>
        <pt x="317" y="64" on="1"/>
        <pt x="383" y="64" on="0"/>
        <pt x="415" y="107" on="1"/>
        <pt x="415" y="196" on="1"/>
        <pt x="307" y="196" on="1"/>
        <pt x="307" y="274" on="1"/>
        <pt x="511" y="274" on="1"/>
        <pt x="511" y="-9" on="1"/>
        <pt x="494" y="-9" on="1"/>
        <pt x="471" y="-9" on="0"/>
        <pt x="457" y="12" on="1"/>
        <pt x="445" y="32" on="1"/>
        <pt x="431" y="32" on="1"/>
        <pt x="412" y="11" on="0"/>
        <pt x="342" y="-12" on="0"/>
        <pt x="311" y="-12" on="1"/>
        <pt x="182" y="-12" on="0"/>
        <pt x="58" y="138" on="0"/>
        <pt x="58" y="273" on="1"/>
        <pt x="58" y="558" on="0"/>
        <pt x="328" y="558" on="1"/>
        <pt x="330" y="558" on="0"/>
        <pt x="381" y="555" on="1"/>
        <pt x="381" y="623" on="1"/>
        <pt x="381" y="688" on="0"/>
        <pt x="452" y="766" on="0"/>
        <pt x="525" y="766" on="1"/>
        <pt x="566" y="766" on="0"/>
        <pt x="604" y="750" on="1"/>
        <pt x="585" y="689" on="1"/>
        <pt x="560" y="698" on="0"/>
        <pt x="517" y="698" on="0"/>
        <pt x="492" y="686" on="0"/>
        <pt x="486" y="674" on="1"/>
        <pt x="478" y="654" on="0"/>
        <pt x="478" y="622" on="1"/>
        <pt x="478" y="457" on="1"/>
        <pt x="387" y="479" on="0"/>
      </contour>
    </TTGlyph>
    <TTGlyph name="H" xMin="95" yMin="0" xMax="634" yMax="700">
      <contour>
        <pt x="195" y="0" on="1"/>
        <pt x="95" y="0" on="1"/>
        <pt x="95" y="700" on="1"/>
        <pt x="195" y="700" on="1"/>
        <pt x="195" y="396" on="1"/>
        <pt x="534" y="396" on="1"/>
        <pt x="534" y="700" on="1"/>
        <pt x="634" y="700" on="1"/>
        <pt x="634" y="0" on="1"/>
        <pt x="534" y="0" on="1"/>
        <pt x="534" y="312" on="1"/>
        <pt x="195" y="312" on="1"/>
      </contour>
    </TTGlyph>
    <TTGlyph name="Hbar" xMin="22" yMin="0" xMax="706" yMax="700">
      <contour>
        <pt x="22" y="520" on="1"/>
        <pt x="22" y="583" on="1"/>
        <pt x="95" y="583" on="1"/>
        <pt x="95" y="700" on="1"/>
        <pt x="195" y="700" on="1"/>
        <pt x="195" y="583" on="1"/>
        <pt x="534" y="583" on="1"/>
        <pt x="534" y="700" on="1"/>
        <pt x="634" y="700" on="1"/>
        <pt x="634" y="583" on="1"/>
        <pt x="706" y="583" on="1"/>
        <pt x="706" y="520" on="1"/>
        <pt x="634" y="520" on="1"/>
        <pt x="634" y="0" on="1"/>
        <pt x="534" y="0" on="1"/>
        <pt x="534" y="312" on="1"/>
        <pt x="195" y="312" on="1"/>
        <pt x="195" y="0" on="1"/>
        <pt x="95" y="0" on="1"/>
        <pt x="95" y="520" on="1"/>
      </contour>
      <contour>
        <pt x="195" y="396" on="1"/>
        <pt x="534" y="396" on="1"/>
        <pt x="534" y="520" on="1"/>
        <pt x="195" y="520" on="1"/>
      </contour>
    </TTGlyph>
    <TTGlyph name="Hcircumflex" xMin="95" yMin="0" xMax="634" yMax="898">
      <contour>
        <pt x="195" y="0" on="1"/>
        <pt x="95" y="0" on="1"/>
        <pt x="95" y="700" on="1"/>
        <pt x="195" y="700" on="1"/>
        <pt x="195" y="396" on="1"/>
        <pt x="534" y="396" on="1"/>
        <pt x="534" y="700" on="1"/>
        <pt x="634" y="700" on="1"/>
        <pt x="634" y="0" on="1"/>
        <pt x="534" y="0" on="1"/>
        <pt x="534" y="312" on="1"/>
        <pt x="195" y="312" on="1"/>
      </contour>
      <contour>
        <pt x="187" y="770" on="1"/>
        <pt x="312" y="898" on="1"/>
        <pt x="405" y="898" on="1"/>
        <pt x="530" y="770" on="1"/>
        <pt x="494" y="738" on="1"/>
        <pt x="358" y="836" on="1"/>
        <pt x="223" y="738" on="1"/>
      </contour>
    </TTGlyph>
    <TTGlyph name="Hsmallcap" xMin="95" yMin="0" xMax="557" yMax="546">
      <contour>
        <pt x="195" y="0" on="1"/>
        <pt x="95" y="0" on="1"/>
        <pt x="95" y="546" on="1"/>
        <pt x="195" y="546" on="1"/>
        <pt x="195" y="318" on="1"/>
        <pt x="457" y="318" on="1"/>
        <pt x="457" y="546" on="1"/>
        <pt x="557" y="546" on="1"/>
        <pt x="557" y="0" on="1"/>
        <pt x="457" y="0" on="1"/>
        <pt x="457" y="234" on="1"/>
        <pt x="195" y="234" on="1"/>
      </contour>
    </TTGlyph>
    <TTGlyph name="I" xMin="89" yMin="0" xMax="189" yMax="700">
      <contour>
        <pt x="189" y="0" on="1"/>
        <pt x="89" y="0" on="1"/>
        <pt x="89" y="700" on="1"/>
        <pt x="189" y="700" on="1"/>
      </contour>
    </TTGlyph>
    <TTGlyph name="IJ" xMin="89" yMin="-138" xMax="455" yMax="700">
      <contour>
        <pt x="189" y="0" on="1"/>
        <pt x="89" y="0" on="1"/>
        <pt x="89" y="700" on="1"/>
        <pt x="189" y="700" on="1"/>
      </contour>
      <contour>
        <pt x="245" y="-138" on="1"/>
        <pt x="245" y="-65" on="1"/>
        <pt x="304" y="-65" on="0"/>
        <pt x="355" y="-9" on="0"/>
        <pt x="355" y="63" on="1"/>
        <pt x="355" y="699" on="1"/>
        <pt x="455" y="699" on="1"/>
        <pt x="455" y="76" on="1"/>
        <pt x="455" y="-40" on="0"/>
        <pt x="359" y="-138" on="0"/>
        <pt x="265" y="-138" on="1"/>
      </contour>
    </TTGlyph>
    <TTGlyph name="Iacute" xMin="63" yMin="0" xMax="313" yMax="917">
      <contour>
        <pt x="189" y="0" on="1"/>
        <pt x="89" y="0" on="1"/>
        <pt x="89" y="700" on="1"/>
        <pt x="189" y="700" on="1"/>
      </contour>
      <contour>
        <pt x="313" y="852" on="1"/>
        <pt x="313" y="822" on="0"/>
        <pt x="271" y="811" on="1"/>
        <pt x="86" y="760" on="1"/>
        <pt x="63" y="810" on="1"/>
        <pt x="286" y="917" on="1"/>
        <pt x="309" y="867" on="1"/>
        <pt x="313" y="859" on="0"/>
      </contour>
    </TTGlyph>
    <TTGlyph name="Ibreve" xMin="-43" yMin="0" xMax="321" yMax="910">
      <contour>
        <pt x="189" y="0" on="1"/>
        <pt x="89" y="0" on="1"/>
        <pt x="89" y="700" on="1"/>
        <pt x="189" y="700" on="1"/>
      </contour>
      <contour>
        <pt x="321" y="754" on="0"/>
        <pt x="-43" y="754" on="0"/>
        <pt x="-43" y="901" on="1"/>
        <pt x="14" y="910" on="1"/>
        <pt x="21" y="855" on="0"/>
        <pt x="76" y="818" on="0"/>
        <pt x="202" y="818" on="0"/>
        <pt x="257" y="855" on="0"/>
        <pt x="264" y="910" on="1"/>
        <pt x="321" y="901" on="1"/>
      </contour>
    </TTGlyph>
    <TTGlyph name="Icircumflex" xMin="-32" yMin="0" xMax="311" yMax="898">
      <contour>
        <pt x="189" y="0" on="1"/>
        <pt x="89" y="0" on="1"/>
        <pt x="89" y="700" on="1"/>
        <pt x="189" y="700" on="1"/>
      </contour>
      <contour>
        <pt x="-32" y="770" on="1"/>
        <pt x="93" y="898" on="1"/>
        <pt x="186" y="898" on="1"/>
        <pt x="311" y="770" on="1"/>
        <pt x="275" y="738" on="1"/>
        <pt x="139" y="836" on="1"/>
        <pt x="4" y="738" on="1"/>
      </contour>
    </TTGlyph>
    <TTGlyph name="Idieresis" xMin="-6" yMin="0" xMax="297" yMax="892">
      <contour>
        <pt x="189" y="0" on="1"/>
        <pt x="89" y="0" on="1"/>
        <pt x="89" y="700" on="1"/>
        <pt x="189" y="700" on="1"/>
      </contour>
      <contour>
        <pt x="-6" y="807" on="0"/>
        <pt x="-6" y="857" on="0"/>
        <pt x="30" y="892" on="0"/>
        <pt x="79" y="892" on="0"/>
        <pt x="114" y="857" on="0"/>
        <pt x="114" y="807" on="0"/>
        <pt x="79" y="772" on="0"/>
        <pt x="30" y="772" on="0"/>
      </contour>
      <contour>
        <pt x="297" y="857" on="0"/>
        <pt x="297" y="807" on="0"/>
        <pt x="261" y="772" on="0"/>
        <pt x="212" y="772" on="0"/>
        <pt x="177" y="807" on="0"/>
        <pt x="177" y="857" on="0"/>
        <pt x="212" y="892" on="0"/>
        <pt x="261" y="892" on="0"/>
      </contour>
    </TTGlyph>
    <TTGlyph name="Idot" xMin="69" yMin="0" xMax="211" yMax="915">
      <contour>
        <pt x="189" y="0" on="1"/>
        <pt x="89" y="0" on="1"/>
        <pt x="89" y="700" on="1"/>
        <pt x="189" y="700" on="1"/>
      </contour>
      <contour>
        <pt x="69" y="815" on="0"/>
        <pt x="69" y="873" on="0"/>
        <pt x="111" y="915" on="0"/>
        <pt x="169" y="915" on="0"/>
        <pt x="211" y="873" on="0"/>
        <pt x="211" y="815" on="0"/>
        <pt x="169" y="773" on="0"/>
        <pt x="111" y="773" on="0"/>
      </contour>
    </TTGlyph>
    <TTGlyph name="Igrave" xMin="-31" yMin="0" xMax="219" yMax="917">
      <contour>
        <pt x="189" y="0" on="1"/>
        <pt x="89" y="0" on="1"/>
        <pt x="89" y="700" on="1"/>
        <pt x="189" y="700" on="1"/>
      </contour>
      <contour>
        <pt x="-31" y="852" on="1"/>
        <pt x="-31" y="859" on="0"/>
        <pt x="-27" y="867" on="1"/>
        <pt x="-4" y="917" on="1"/>
        <pt x="219" y="810" on="1"/>
        <pt x="196" y="760" on="1"/>
        <pt x="11" y="811" on="1"/>
        <pt x="-31" y="822" on="0"/>
      </contour>
    </TTGlyph>
    <TTGlyph name="Imacron" xMin="-18" yMin="0" xMax="296" yMax="855">
      <contour>
        <pt x="189" y="0" on="1"/>
        <pt x="89" y="0" on="1"/>
        <pt x="89" y="700" on="1"/>
        <pt x="189" y="700" on="1"/>
      </contour>
      <contour>
        <pt x="-18" y="786" on="1"/>
        <pt x="-18" y="855" on="1"/>
        <pt x="296" y="855" on="1"/>
        <pt x="296" y="786" on="1"/>
      </contour>
    </TTGlyph>
    <TTGlyph name="Iogonek" xMin="13" yMin="-220" xMax="205" yMax="700">
      <contour>
        <pt x="141" y="-25" on="0"/>
        <pt x="80" y="-87" on="0"/>
        <pt x="80" y="-140" on="0"/>
        <pt x="108" y="-165" on="0"/>
        <pt x="155" y="-165" on="0"/>
        <pt x="176" y="-151" on="1"/>
        <pt x="205" y="-196" on="1"/>
        <pt x="164" y="-220" on="0"/>
        <pt x="69" y="-220" on="0"/>
        <pt x="13" y="-162" on="0"/>
        <pt x="13" y="-118" on="1"/>
        <pt x="13" y="-57" on="0"/>
        <pt x="89" y="0" on="1"/>
        <pt x="89" y="700" on="1"/>
        <pt x="189" y="700" on="1"/>
        <pt x="189" y="0" on="1"/>
      </contour>
    </TTGlyph>
    <TTGlyph name="Ismallcap" xMin="34" yMin="0" xMax="254" yMax="546">
      <contour>
        <pt x="34" y="483" on="1"/>
        <pt x="34" y="546" on="1"/>
        <pt x="254" y="546" on="1"/>
        <pt x="254" y="483" on="1"/>
        <pt x="193" y="483" on="1"/>
        <pt x="193" y="63" on="1"/>
        <pt x="254" y="63" on="1"/>
        <pt x="254" y="0" on="1"/>
        <pt x="34" y="0" on="1"/>
        <pt x="34" y="63" on="1"/>
        <pt x="95" y="63" on="1"/>
        <pt x="95" y="483" on="1"/>
      </contour>
    </TTGlyph>
    <TTGlyph name="Itilde" xMin="-48" yMin="0" xMax="315" yMax="889">
      <contour>
        <pt x="189" y="0" on="1"/>
        <pt x="89" y="0" on="1"/>
        <pt x="89" y="700" on="1"/>
        <pt x="189" y="700" on="1"/>
      </contour>
      <contour>
        <pt x="200" y="773" on="1"/>
        <pt x="167" y="773" on="0"/>
        <pt x="85" y="814" on="0"/>
        <pt x="46" y="814" on="0"/>
        <pt x="23" y="797" on="0"/>
        <pt x="7" y="775" on="1"/>
        <pt x="-48" y="811" on="1"/>
        <pt x="-8" y="889" on="0"/>
        <pt x="66" y="889" on="1"/>
        <pt x="98" y="889" on="0"/>
        <pt x="183" y="848" on="0"/>
        <pt x="199" y="848" on="1"/>
        <pt x="243" y="848" on="0"/>
        <pt x="259" y="885" on="1"/>
        <pt x="315" y="850" on="1"/>
        <pt x="277" y="773" on="0"/>
      </contour>
    </TTGlyph>
    <TTGlyph name="J" xMin="-10" yMin="-138" xMax="200" yMax="699">
      <contour>
        <pt x="-10" y="-138" on="1"/>
        <pt x="-10" y="-65" on="1"/>
        <pt x="49" y="-65" on="0"/>
        <pt x="100" y="-9" on="0"/>
        <pt x="100" y="63" on="1"/>
        <pt x="100" y="699" on="1"/>
        <pt x="200" y="699" on="1"/>
        <pt x="200" y="76" on="1"/>
        <pt x="200" y="-40" on="0"/>
        <pt x="104" y="-138" on="0"/>
        <pt x="10" y="-138" on="1"/>
      </contour>
    </TTGlyph>
    <TTGlyph name="Jcircumflex" xMin="-27" yMin="-138" xMax="316" yMax="939">
      <contour>
        <pt x="-10" y="-138" on="1"/>
        <pt x="-10" y="-65" on="1"/>
        <pt x="49" y="-65" on="0"/>
        <pt x="100" y="-9" on="0"/>
        <pt x="100" y="63" on="1"/>
        <pt x="100" y="699" on="1"/>
        <pt x="200" y="699" on="1"/>
        <pt x="200" y="76" on="1"/>
        <pt x="200" y="-40" on="0"/>
        <pt x="104" y="-138" on="0"/>
        <pt x="10" y="-138" on="1"/>
      </contour>
      <contour>
        <pt x="-27" y="791" on="1"/>
        <pt x="98" y="939" on="1"/>
        <pt x="191" y="939" on="1"/>
        <pt x="316" y="791" on="1"/>
        <pt x="280" y="759" on="1"/>
        <pt x="144" y="872" on="1"/>
        <pt x="9" y="759" on="1"/>
      </contour>
    </TTGlyph>
    <TTGlyph name="K" xMin="95" yMin="-15" xMax="579" yMax="700">
      <contour>
        <pt x="563" y="700" on="1"/>
        <pt x="320" y="373" on="1"/>
        <pt x="579" y="-1" on="1"/>
        <pt x="472" y="-15" on="1"/>
        <pt x="218" y="366" on="1"/>
        <pt x="451" y="700" on="1"/>
      </contour>
      <contour>
        <pt x="195" y="0" on="1"/>
        <pt x="95" y="0" on="1"/>
        <pt x="95" y="700" on="1"/>
        <pt x="195" y="700" on="1"/>
      </contour>
    </TTGlyph>
    <TTGlyph name="Kcommaaccent" xMin="95" yMin="-335" xMax="579" yMax="700">
      <contour>
        <pt x="563" y="700" on="1"/>
        <pt x="320" y="373" on="1"/>
        <pt x="579" y="-1" on="1"/>
        <pt x="472" y="-15" on="1"/>
        <pt x="218" y="366" on="1"/>
        <pt x="451" y="700" on="1"/>
      </contour>
      <contour>
        <pt x="195" y="0" on="1"/>
        <pt x="95" y="0" on="1"/>
        <pt x="95" y="700" on="1"/>
        <pt x="195" y="700" on="1"/>
      </contour>
      <contour>
        <pt x="349" y="-62" on="0"/>
        <pt x="371" y="-85" on="0"/>
        <pt x="371" y="-111" on="0"/>
        <pt x="369" y="-118" on="1"/>
        <pt x="348" y="-205" on="1"/>
        <pt x="340" y="-237" on="0"/>
        <pt x="286" y="-311" on="1"/>
        <pt x="269" y="-335" on="1"/>
        <pt x="204" y="-305" on="1"/>
        <pt x="248" y="-208" on="0"/>
        <pt x="262" y="-161" on="0"/>
        <pt x="263" y="-144" on="1"/>
        <pt x="267" y="-58" on="1"/>
        <pt x="328" y="-61" on="1"/>
      </contour>
    </TTGlyph>
    <TTGlyph name="L" xMin="87" yMin="0" xMax="487" yMax="700">
      <contour>
        <pt x="87" y="0" on="1"/>
        <pt x="87" y="700" on="1"/>
        <pt x="187" y="700" on="1"/>
        <pt x="187" y="86" on="1"/>
        <pt x="487" y="86" on="1"/>
        <pt x="487" y="0" on="1"/>
      </contour>
    </TTGlyph>
    <TTGlyph name="Lacute" xMin="87" yMin="0" xMax="487" yMax="917">
      <contour>
        <pt x="87" y="0" on="1"/>
        <pt x="87" y="700" on="1"/>
        <pt x="187" y="700" on="1"/>
        <pt x="187" y="86" on="1"/>
        <pt x="487" y="86" on="1"/>
        <pt x="487" y="0" on="1"/>
      </contour>
      <contour>
        <pt x="434" y="852" on="1"/>
        <pt x="434" y="822" on="0"/>
        <pt x="392" y="811" on="1"/>
        <pt x="207" y="760" on="1"/>
        <pt x="184" y="810" on="1"/>
        <pt x="407" y="917" on="1"/>
        <pt x="430" y="867" on="1"/>
        <pt x="434" y="859" on="0"/>
      </contour>
    </TTGlyph>
    <TTGlyph name="Lcaron" xMin="87" yMin="0" xMax="487" yMax="787">
      <contour>
        <pt x="87" y="0" on="1"/>
        <pt x="87" y="700" on="1"/>
        <pt x="187" y="700" on="1"/>
        <pt x="187" y="86" on="1"/>
        <pt x="487" y="86" on="1"/>
        <pt x="487" y="0" on="1"/>
      </contour>
      <contour>
        <pt x="463" y="747" on="1"/>
        <pt x="463" y="740" on="0"/>
        <pt x="462" y="736" on="1"/>
        <pt x="448" y="662" on="1"/>
        <pt x="442" y="634" on="0"/>
        <pt x="392" y="574" on="1"/>
        <pt x="376" y="554" on="1"/>
        <pt x="312" y="585" on="1"/>
        <pt x="316" y="595" on="0"/>
        <pt x="338" y="643" on="0"/>
        <pt x="343" y="654" on="1"/>
        <pt x="357" y="687" on="0"/>
        <pt x="359" y="715" on="1"/>
        <pt x="363" y="787" on="1"/>
        <pt x="426" y="783" on="1"/>
        <pt x="463" y="780" on="0"/>
      </contour>
    </TTGlyph>
    <TTGlyph name="Lcommaaccent" xMin="87" yMin="-335" xMax="487" yMax="700">
      <contour>
        <pt x="87" y="0" on="1"/>
        <pt x="87" y="700" on="1"/>
        <pt x="187" y="700" on="1"/>
        <pt x="187" y="86" on="1"/>
        <pt x="487" y="86" on="1"/>
        <pt x="487" y="0" on="1"/>
      </contour>
      <contour>
        <pt x="329" y="-62" on="0"/>
        <pt x="351" y="-85" on="0"/>
        <pt x="351" y="-111" on="0"/>
        <pt x="349" y="-118" on="1"/>
        <pt x="328" y="-205" on="1"/>
        <pt x="320" y="-237" on="0"/>
        <pt x="266" y="-311" on="1"/>
        <pt x="249" y="-335" on="1"/>
        <pt x="184" y="-305" on="1"/>
        <pt x="228" y="-208" on="0"/>
        <pt x="242" y="-161" on="0"/>
        <pt x="243" y="-144" on="1"/>
        <pt x="247" y="-58" on="1"/>
        <pt x="308" y="-61" on="1"/>
      </contour>
    </TTGlyph>
    <TTGlyph name="Ldot" xMin="87" yMin="0" xMax="487" yMax="700">
      <contour>
        <pt x="87" y="0" on="1"/>
        <pt x="87" y="700" on="1"/>
        <pt x="187" y="700" on="1"/>
        <pt x="187" y="86" on="1"/>
        <pt x="487" y="86" on="1"/>
        <pt x="487" y="0" on="1"/>
      </contour>
      <contour>
        <pt x="309" y="340" on="0"/>
        <pt x="309" y="398" on="0"/>
        <pt x="351" y="440" on="0"/>
        <pt x="409" y="440" on="0"/>
        <pt x="451" y="398" on="0"/>
        <pt x="451" y="340" on="0"/>
        <pt x="409" y="298" on="0"/>
        <pt x="351" y="298" on="0"/>
      </contour>
    </TTGlyph>
    <TTGlyph name="Lslash" xMin="12" yMin="0" xMax="487" yMax="700">
      <contour>
        <pt x="87" y="700" on="1"/>
        <pt x="187" y="700" on="1"/>
        <pt x="187" y="389" on="1"/>
        <pt x="336" y="435" on="1"/>
        <pt x="336" y="366" on="1"/>
        <pt x="187" y="320" on="1"/>
        <pt x="187" y="86" on="1"/>
        <pt x="487" y="86" on="1"/>
        <pt x="487" y="0" on="1"/>
        <pt x="87" y="0" on="1"/>
        <pt x="87" y="289" on="1"/>
        <pt x="12" y="266" on="1"/>
        <pt x="12" y="335" on="1"/>
        <pt x="87" y="358" on="1"/>
      </contour>
    </TTGlyph>
    <TTGlyph name="Lsmallcap" xMin="87" yMin="0" xMax="431" yMax="546">
      <contour>
        <pt x="87" y="0" on="1"/>
        <pt x="87" y="546" on="1"/>
        <pt x="187" y="546" on="1"/>
        <pt x="187" y="86" on="1"/>
        <pt x="431" y="86" on="1"/>
        <pt x="431" y="0" on="1"/>
      </contour>
    </TTGlyph>
    <TTGlyph name="M" xMin="91" yMin="0" xMax="819" yMax="700">
      <contour>
        <pt x="819" y="700" on="1"/>
        <pt x="819" y="0" on="1"/>
        <pt x="719" y="0" on="1"/>
        <pt x="719" y="489" on="1"/>
        <pt x="728" y="608" on="1"/>
        <pt x="712" y="611" on="1"/>
        <pt x="692" y="525" on="0"/>
        <pt x="675" y="480" on="1"/>
        <pt x="493" y="0" on="1"/>
        <pt x="416" y="0" on="1"/>
        <pt x="235" y="480" on="1"/>
        <pt x="222" y="512" on="0"/>
        <pt x="204" y="588" on="1"/>
        <pt x="198" y="611" on="1"/>
        <pt x="182" y="608" on="1"/>
        <pt x="191" y="521" on="0"/>
        <pt x="191" y="489" on="1"/>
        <pt x="191" y="0" on="1"/>
        <pt x="91" y="0" on="1"/>
        <pt x="91" y="700" on="1"/>
        <pt x="248" y="700" on="1"/>
        <pt x="417" y="251" on="1"/>
        <pt x="440" y="192" on="0"/>
        <pt x="444" y="111" on="1"/>
        <pt x="446" y="85" on="1"/>
        <pt x="464" y="85" on="1"/>
        <pt x="467" y="181" on="0"/>
        <pt x="493" y="251" on="1"/>
        <pt x="662" y="700" on="1"/>
      </contour>
    </TTGlyph>
    <TTGlyph name="N" xMin="90" yMin="0" xMax="634" yMax="700">
      <contour>
        <pt x="190" y="449" on="1"/>
        <pt x="190" y="0" on="1"/>
        <pt x="90" y="0" on="1"/>
        <pt x="90" y="700" on="1"/>
        <pt x="180" y="700" on="1"/>
        <pt x="482" y="252" on="1"/>
        <pt x="508" y="215" on="0"/>
        <pt x="526" y="148" on="1"/>
        <pt x="532" y="127" on="1"/>
        <pt x="548" y="130" on="1"/>
        <pt x="534" y="216" on="0"/>
        <pt x="534" y="248" on="1"/>
        <pt x="534" y="700" on="1"/>
        <pt x="634" y="700" on="1"/>
        <pt x="634" y="0" on="1"/>
        <pt x="544" y="0" on="1"/>
        <pt x="240" y="449" on="1"/>
        <pt x="214" y="487" on="0"/>
        <pt x="198" y="550" on="1"/>
        <pt x="192" y="571" on="1"/>
        <pt x="176" y="568" on="1"/>
        <pt x="190" y="481" on="0"/>
      </contour>
    </TTGlyph>
    <TTGlyph name="Nacute" xMin="90" yMin="0" xMax="634" yMax="917">
      <contour>
        <pt x="190" y="449" on="1"/>
        <pt x="190" y="0" on="1"/>
        <pt x="90" y="0" on="1"/>
        <pt x="90" y="700" on="1"/>
        <pt x="180" y="700" on="1"/>
        <pt x="482" y="252" on="1"/>
        <pt x="508" y="215" on="0"/>
        <pt x="526" y="148" on="1"/>
        <pt x="532" y="127" on="1"/>
        <pt x="548" y="130" on="1"/>
        <pt x="534" y="216" on="0"/>
        <pt x="534" y="248" on="1"/>
        <pt x="534" y="700" on="1"/>
        <pt x="634" y="700" on="1"/>
        <pt x="634" y="0" on="1"/>
        <pt x="544" y="0" on="1"/>
        <pt x="240" y="449" on="1"/>
        <pt x="214" y="487" on="0"/>
        <pt x="198" y="550" on="1"/>
        <pt x="192" y="571" on="1"/>
        <pt x="176" y="568" on="1"/>
        <pt x="190" y="481" on="0"/>
      </contour>
      <contour>
        <pt x="480" y="852" on="1"/>
        <pt x="480" y="822" on="0"/>
        <pt x="438" y="811" on="1"/>
        <pt x="253" y="760" on="1"/>
        <pt x="230" y="810" on="1"/>
        <pt x="453" y="917" on="1"/>
        <pt x="476" y="867" on="1"/>
        <pt x="480" y="859" on="0"/>
      </contour>
    </TTGlyph>
    <TTGlyph name="Ncaron" xMin="90" yMin="0" xMax="634" yMax="923">
      <contour>
        <pt x="190" y="449" on="1"/>
        <pt x="190" y="0" on="1"/>
        <pt x="90" y="0" on="1"/>
        <pt x="90" y="700" on="1"/>
        <pt x="180" y="700" on="1"/>
        <pt x="482" y="252" on="1"/>
        <pt x="508" y="215" on="0"/>
        <pt x="526" y="148" on="1"/>
        <pt x="532" y="127" on="1"/>
        <pt x="548" y="130" on="1"/>
        <pt x="534" y="216" on="0"/>
        <pt x="534" y="248" on="1"/>
        <pt x="534" y="700" on="1"/>
        <pt x="634" y="700" on="1"/>
        <pt x="634" y="0" on="1"/>
        <pt x="544" y="0" on="1"/>
        <pt x="240" y="449" on="1"/>
        <pt x="214" y="487" on="0"/>
        <pt x="198" y="550" on="1"/>
        <pt x="192" y="571" on="1"/>
        <pt x="176" y="568" on="1"/>
        <pt x="190" y="481" on="0"/>
      </contour>
      <contour>
        <pt x="312" y="763" on="1"/>
        <pt x="187" y="891" on="1"/>
        <pt x="223" y="923" on="1"/>
        <pt x="358" y="825" on="1"/>
        <pt x="494" y="923" on="1"/>
        <pt x="530" y="891" on="1"/>
        <pt x="405" y="763" on="1"/>
      </contour>
    </TTGlyph>
    <TTGlyph name="Ncommaaccent" xMin="90" yMin="-335" xMax="634" yMax="700">
      <contour>
        <pt x="190" y="449" on="1"/>
        <pt x="190" y="0" on="1"/>
        <pt x="90" y="0" on="1"/>
        <pt x="90" y="700" on="1"/>
        <pt x="180" y="700" on="1"/>
        <pt x="482" y="252" on="1"/>
        <pt x="508" y="215" on="0"/>
        <pt x="526" y="148" on="1"/>
        <pt x="532" y="127" on="1"/>
        <pt x="548" y="130" on="1"/>
        <pt x="534" y="216" on="0"/>
        <pt x="534" y="248" on="1"/>
        <pt x="534" y="700" on="1"/>
        <pt x="634" y="700" on="1"/>
        <pt x="634" y="0" on="1"/>
        <pt x="544" y="0" on="1"/>
        <pt x="240" y="449" on="1"/>
        <pt x="214" y="487" on="0"/>
        <pt x="198" y="550" on="1"/>
        <pt x="192" y="571" on="1"/>
        <pt x="176" y="568" on="1"/>
        <pt x="190" y="481" on="0"/>
      </contour>
      <contour>
        <pt x="399" y="-62" on="0"/>
        <pt x="421" y="-85" on="0"/>
        <pt x="421" y="-111" on="0"/>
        <pt x="419" y="-118" on="1"/>
        <pt x="398" y="-205" on="1"/>
        <pt x="390" y="-237" on="0"/>
        <pt x="336" y="-311" on="1"/>
        <pt x="319" y="-335" on="1"/>
        <pt x="254" y="-305" on="1"/>
        <pt x="298" y="-208" on="0"/>
        <pt x="312" y="-161" on="0"/>
        <pt x="313" y="-144" on="1"/>
        <pt x="317" y="-58" on="1"/>
        <pt x="378" y="-61" on="1"/>
      </contour>
    </TTGlyph>
    <TTGlyph name="Nsmallcap" xMin="90" yMin="0" xMax="557" yMax="546">
      <contour>
        <pt x="187" y="324" on="1"/>
        <pt x="187" y="0" on="1"/>
        <pt x="90" y="0" on="1"/>
        <pt x="90" y="546" on="1"/>
        <pt x="184" y="546" on="1"/>
        <pt x="417" y="232" on="1"/>
        <pt x="440" y="205" on="0"/>
        <pt x="454" y="160" on="1"/>
        <pt x="458" y="145" on="1"/>
        <pt x="473" y="147" on="1"/>
        <pt x="460" y="207" on="0"/>
        <pt x="460" y="229" on="1"/>
        <pt x="460" y="546" on="1"/>
        <pt x="557" y="546" on="1"/>
        <pt x="557" y="0" on="1"/>
        <pt x="472" y="0" on="1"/>
        <pt x="227" y="324" on="1"/>
        <pt x="207" y="346" on="0"/>
        <pt x="192" y="392" on="1"/>
        <pt x="188" y="406" on="1"/>
        <pt x="175" y="403" on="1"/>
        <pt x="187" y="344" on="0"/>
      </contour>
    </TTGlyph>
    <TTGlyph name="Ntilde" xMin="90" yMin="0" xMax="634" yMax="890">
      <contour>
        <pt x="190" y="449" on="1"/>
        <pt x="190" y="0" on="1"/>
        <pt x="90" y="0" on="1"/>
        <pt x="90" y="700" on="1"/>
        <pt x="180" y="700" on="1"/>
        <pt x="482" y="252" on="1"/>
        <pt x="508" y="215" on="0"/>
        <pt x="526" y="148" on="1"/>
        <pt x="532" y="127" on="1"/>
        <pt x="548" y="130" on="1"/>
        <pt x="534" y="216" on="0"/>
        <pt x="534" y="248" on="1"/>
        <pt x="534" y="700" on="1"/>
        <pt x="634" y="700" on="1"/>
        <pt x="634" y="0" on="1"/>
        <pt x="544" y="0" on="1"/>
        <pt x="240" y="449" on="1"/>
        <pt x="214" y="487" on="0"/>
        <pt x="198" y="550" on="1"/>
        <pt x="192" y="571" on="1"/>
        <pt x="176" y="568" on="1"/>
        <pt x="190" y="481" on="0"/>
      </contour>
      <contour>
        <pt x="429" y="774" on="1"/>
        <pt x="396" y="774" on="0"/>
        <pt x="314" y="815" on="0"/>
        <pt x="275" y="815" on="0"/>
        <pt x="252" y="798" on="0"/>
        <pt x="236" y="776" on="1"/>
        <pt x="181" y="812" on="1"/>
        <pt x="221" y="890" on="0"/>
        <pt x="295" y="890" on="1"/>
        <pt x="327" y="890" on="0"/>
        <pt x="412" y="849" on="0"/>
        <pt x="428" y="849" on="1"/>
        <pt x="472" y="849" on="0"/>
        <pt x="488" y="886" on="1"/>
        <pt x="544" y="851" on="1"/>
        <pt x="506" y="774" on="0"/>
      </contour>
    </TTGlyph>
    <TTGlyph name="O" xMin="60" yMin="-12" xMax="675" yMax="712">
      <contour>
        <pt x="675" y="350" on="1"/>
        <pt x="675" y="-12" on="0"/>
        <pt x="60" y="-12" on="0"/>
        <pt x="60" y="712" on="0"/>
        <pt x="367" y="712" on="1"/>
        <pt x="524" y="712" on="0"/>
        <pt x="675" y="524" on="0"/>
      </contour>
      <contour>
        <pt x="368" y="66" on="1"/>
        <pt x="570" y="66" on="0"/>
        <pt x="570" y="634" on="0"/>
        <pt x="368" y="634" on="1"/>
        <pt x="254" y="634" on="0"/>
        <pt x="208" y="551" on="1"/>
        <pt x="167" y="476" on="0"/>
        <pt x="167" y="350" on="1"/>
        <pt x="167" y="142" on="0"/>
        <pt x="270" y="88" on="1"/>
        <pt x="311" y="66" on="0"/>
      </contour>
    </TTGlyph>
    <TTGlyph name="OE" xMin="60" yMin="-12" xMax="885" yMax="712">
      <contour>
        <pt x="885" y="0" on="1"/>
        <pt x="468" y="0" on="1"/>
        <pt x="423" y="-12" on="0"/>
        <pt x="367" y="-12" on="1"/>
        <pt x="60" y="-12" on="0"/>
        <pt x="60" y="712" on="0"/>
        <pt x="367" y="712" on="1"/>
        <pt x="422" y="712" on="0"/>
        <pt x="469" y="700" on="1"/>
        <pt x="885" y="700" on="1"/>
        <pt x="885" y="617" on="1"/>
        <pt x="568" y="617" on="1"/>
        <pt x="568" y="416" on="1"/>
        <pt x="855" y="416" on="1"/>
        <pt x="855" y="332" on="1"/>
        <pt x="568" y="332" on="1"/>
        <pt x="568" y="83" on="1"/>
        <pt x="885" y="83" on="1"/>
      </contour>
      <contour>
        <pt x="230" y="109" on="0"/>
        <pt x="311" y="66" on="0"/>
        <pt x="427" y="66" on="0"/>
        <pt x="468" y="89" on="1"/>
        <pt x="468" y="611" on="1"/>
        <pt x="427" y="634" on="0"/>
        <pt x="311" y="634" on="0"/>
        <pt x="230" y="591" on="0"/>
        <pt x="186" y="511" on="0"/>
        <pt x="167" y="413" on="0"/>
        <pt x="167" y="287" on="0"/>
        <pt x="186" y="189" on="0"/>
      </contour>
    </TTGlyph>
    <TTGlyph name="OEsmallcap" xMin="60" yMin="-12" xMax="770" yMax="555">
      <contour>
        <pt x="770" y="-3" on="1"/>
        <pt x="412" y="-3" on="1"/>
        <pt x="412" y="-2" on="1"/>
        <pt x="369" y="-12" on="0"/>
        <pt x="324" y="-12" on="1"/>
        <pt x="60" y="-12" on="0"/>
        <pt x="60" y="555" on="0"/>
        <pt x="324" y="555" on="1"/>
        <pt x="375" y="555" on="0"/>
        <pt x="412" y="545" on="1"/>
        <pt x="412" y="546" on="1"/>
        <pt x="770" y="546" on="1"/>
        <pt x="770" y="464" on="1"/>
        <pt x="511" y="464" on="1"/>
        <pt x="511" y="331" on="1"/>
        <pt x="745" y="331" on="1"/>
        <pt x="745" y="249" on="1"/>
        <pt x="511" y="249" on="1"/>
        <pt x="511" y="79" on="1"/>
        <pt x="770" y="79" on="1"/>
      </contour>
      <contour>
        <pt x="325" y="64" on="1"/>
        <pt x="378" y="64" on="0"/>
        <pt x="412" y="82" on="1"/>
        <pt x="412" y="460" on="1"/>
        <pt x="376" y="479" on="0"/>
        <pt x="325" y="479" on="1"/>
        <pt x="237" y="479" on="0"/>
        <pt x="167" y="368" on="0"/>
        <pt x="167" y="174" on="0"/>
        <pt x="237" y="64" on="0"/>
      </contour>
    </TTGlyph>
    <TTGlyph name="Oacute" xMin="60" yMin="-12" xMax="675" yMax="917">
      <contour>
        <pt x="675" y="350" on="1"/>
        <pt x="675" y="-12" on="0"/>
        <pt x="60" y="-12" on="0"/>
        <pt x="60" y="712" on="0"/>
        <pt x="367" y="712" on="1"/>
        <pt x="524" y="712" on="0"/>
        <pt x="675" y="524" on="0"/>
      </contour>
      <contour>
        <pt x="368" y="66" on="1"/>
        <pt x="570" y="66" on="0"/>
        <pt x="570" y="634" on="0"/>
        <pt x="368" y="634" on="1"/>
        <pt x="254" y="634" on="0"/>
        <pt x="208" y="551" on="1"/>
        <pt x="167" y="476" on="0"/>
        <pt x="167" y="350" on="1"/>
        <pt x="167" y="142" on="0"/>
        <pt x="270" y="88" on="1"/>
        <pt x="311" y="66" on="0"/>
      </contour>
      <contour>
        <pt x="512" y="852" on="1"/>
        <pt x="512" y="822" on="0"/>
        <pt x="470" y="811" on="1"/>
        <pt x="285" y="760" on="1"/>
        <pt x="262" y="810" on="1"/>
        <pt x="485" y="917" on="1"/>
        <pt x="508" y="867" on="1"/>
        <pt x="512" y="859" on="0"/>
      </contour>
    </TTGlyph>
    <TTGlyph name="Obreve" xMin="60" yMin="-12" xMax="675" yMax="910">
      <contour>
        <pt x="675" y="350" on="1"/>
        <pt x="675" y="-12" on="0"/>
        <pt x="60" y="-12" on="0"/>
        <pt x="60" y="712" on="0"/>
        <pt x="367" y="712" on="1"/>
        <pt x="524" y="712" on="0"/>
        <pt x="675" y="524" on="0"/>
      </contour>
      <contour>
        <pt x="368" y="66" on="1"/>
        <pt x="570" y="66" on="0"/>
        <pt x="570" y="634" on="0"/>
        <pt x="368" y="634" on="1"/>
        <pt x="254" y="634" on="0"/>
        <pt x="208" y="551" on="1"/>
        <pt x="167" y="476" on="0"/>
        <pt x="167" y="350" on="1"/>
        <pt x="167" y="142" on="0"/>
        <pt x="270" y="88" on="1"/>
        <pt x="311" y="66" on="0"/>
      </contour>
      <contour>
        <pt x="551" y="754" on="0"/>
        <pt x="187" y="754" on="0"/>
        <pt x="187" y="901" on="1"/>
        <pt x="244" y="910" on="1"/>
        <pt x="251" y="855" on="0"/>
        <pt x="306" y="818" on="0"/>
        <pt x="432" y="818" on="0"/>
        <pt x="487" y="855" on="0"/>
        <pt x="494" y="910" on="1"/>
        <pt x="551" y="901" on="1"/>
      </contour>
    </TTGlyph>
    <TTGlyph name="Ocircumflex" xMin="60" yMin="-12" xMax="675" yMax="898">
      <contour>
        <pt x="675" y="350" on="1"/>
        <pt x="675" y="-12" on="0"/>
        <pt x="60" y="-12" on="0"/>
        <pt x="60" y="712" on="0"/>
        <pt x="367" y="712" on="1"/>
        <pt x="524" y="712" on="0"/>
        <pt x="675" y="524" on="0"/>
      </contour>
      <contour>
        <pt x="368" y="66" on="1"/>
        <pt x="570" y="66" on="0"/>
        <pt x="570" y="634" on="0"/>
        <pt x="368" y="634" on="1"/>
        <pt x="254" y="634" on="0"/>
        <pt x="208" y="551" on="1"/>
        <pt x="167" y="476" on="0"/>
        <pt x="167" y="350" on="1"/>
        <pt x="167" y="142" on="0"/>
        <pt x="270" y="88" on="1"/>
        <pt x="311" y="66" on="0"/>
      </contour>
      <contour>
        <pt x="200" y="770" on="1"/>
        <pt x="325" y="898" on="1"/>
        <pt x="418" y="898" on="1"/>
        <pt x="543" y="770" on="1"/>
        <pt x="507" y="738" on="1"/>
        <pt x="371" y="836" on="1"/>
        <pt x="236" y="738" on="1"/>
      </contour>
    </TTGlyph>
    <TTGlyph name="Odieresis" xMin="60" yMin="-12" xMax="675" yMax="892">
      <contour>
        <pt x="675" y="350" on="1"/>
        <pt x="675" y="-12" on="0"/>
        <pt x="60" y="-12" on="0"/>
        <pt x="60" y="712" on="0"/>
        <pt x="367" y="712" on="1"/>
        <pt x="524" y="712" on="0"/>
        <pt x="675" y="524" on="0"/>
      </contour>
      <contour>
        <pt x="368" y="66" on="1"/>
        <pt x="570" y="66" on="0"/>
        <pt x="570" y="634" on="0"/>
        <pt x="368" y="634" on="1"/>
        <pt x="254" y="634" on="0"/>
        <pt x="208" y="551" on="1"/>
        <pt x="167" y="476" on="0"/>
        <pt x="167" y="350" on="1"/>
        <pt x="167" y="142" on="0"/>
        <pt x="270" y="88" on="1"/>
        <pt x="311" y="66" on="0"/>
      </contour>
      <contour>
        <pt x="223" y="807" on="0"/>
        <pt x="223" y="857" on="0"/>
        <pt x="259" y="892" on="0"/>
        <pt x="308" y="892" on="0"/>
        <pt x="343" y="857" on="0"/>
        <pt x="343" y="807" on="0"/>
        <pt x="308" y="772" on="0"/>
        <pt x="259" y="772" on="0"/>
      </contour>
      <contour>
        <pt x="526" y="857" on="0"/>
        <pt x="526" y="807" on="0"/>
        <pt x="490" y="772" on="0"/>
        <pt x="441" y="772" on="0"/>
        <pt x="406" y="807" on="0"/>
        <pt x="406" y="857" on="0"/>
        <pt x="441" y="892" on="0"/>
        <pt x="490" y="892" on="0"/>
      </contour>
    </TTGlyph>
    <TTGlyph name="Ograve" xMin="60" yMin="-12" xMax="675" yMax="917">
      <contour>
        <pt x="675" y="350" on="1"/>
        <pt x="675" y="-12" on="0"/>
        <pt x="60" y="-12" on="0"/>
        <pt x="60" y="712" on="0"/>
        <pt x="367" y="712" on="1"/>
        <pt x="524" y="712" on="0"/>
        <pt x="675" y="524" on="0"/>
      </contour>
      <contour>
        <pt x="368" y="66" on="1"/>
        <pt x="570" y="66" on="0"/>
        <pt x="570" y="634" on="0"/>
        <pt x="368" y="634" on="1"/>
        <pt x="254" y="634" on="0"/>
        <pt x="208" y="551" on="1"/>
        <pt x="167" y="476" on="0"/>
        <pt x="167" y="350" on="1"/>
        <pt x="167" y="142" on="0"/>
        <pt x="270" y="88" on="1"/>
        <pt x="311" y="66" on="0"/>
      </contour>
      <contour>
        <pt x="228" y="852" on="1"/>
        <pt x="228" y="859" on="0"/>
        <pt x="232" y="867" on="1"/>
        <pt x="255" y="917" on="1"/>
        <pt x="478" y="810" on="1"/>
        <pt x="455" y="760" on="1"/>
        <pt x="270" y="811" on="1"/>
        <pt x="228" y="822" on="0"/>
      </contour>
    </TTGlyph>
    <TTGlyph name="Ohorn" xMin="60" yMin="-12" xMax="772" yMax="752">
      <contour>
        <pt x="682" y="752" on="1"/>
        <pt x="747" y="752" on="1"/>
        <pt x="772" y="752" on="0"/>
        <pt x="772" y="729" on="1"/>
        <pt x="772" y="650" on="0"/>
        <pt x="720" y="595" on="1"/>
        <pt x="690" y="563" on="0"/>
        <pt x="643" y="542" on="1"/>
        <pt x="675" y="465" on="0"/>
        <pt x="675" y="350" on="1"/>
        <pt x="675" y="-12" on="0"/>
        <pt x="60" y="-12" on="0"/>
        <pt x="60" y="712" on="0"/>
        <pt x="367" y="712" on="1"/>
        <pt x="533" y="712" on="0"/>
        <pt x="611" y="603" on="1"/>
        <pt x="682" y="633" on="0"/>
      </contour>
      <contour>
        <pt x="368" y="66" on="1"/>
        <pt x="570" y="66" on="0"/>
        <pt x="570" y="634" on="0"/>
        <pt x="368" y="634" on="1"/>
        <pt x="254" y="634" on="0"/>
        <pt x="208" y="551" on="1"/>
        <pt x="167" y="476" on="0"/>
        <pt x="167" y="350" on="1"/>
        <pt x="167" y="142" on="0"/>
        <pt x="270" y="88" on="1"/>
        <pt x="311" y="66" on="0"/>
      </contour>
    </TTGlyph>
    <TTGlyph name="Ohungarumlaut" xMin="60" yMin="-12" xMax="675" yMax="974">
      <contour>
        <pt x="675" y="350" on="1"/>
        <pt x="675" y="-12" on="0"/>
        <pt x="60" y="-12" on="0"/>
        <pt x="60" y="712" on="0"/>
        <pt x="367" y="712" on="1"/>
        <pt x="524" y="712" on="0"/>
        <pt x="675" y="524" on="0"/>
      </contour>
      <contour>
        <pt x="368" y="66" on="1"/>
        <pt x="570" y="66" on="0"/>
        <pt x="570" y="634" on="0"/>
        <pt x="368" y="634" on="1"/>
        <pt x="254" y="634" on="0"/>
        <pt x="208" y="551" on="1"/>
        <pt x="167" y="476" on="0"/>
        <pt x="167" y="350" on="1"/>
        <pt x="167" y="142" on="0"/>
        <pt x="270" y="88" on="1"/>
        <pt x="311" y="66" on="0"/>
      </contour>
      <contour>
        <pt x="404" y="940" on="1"/>
        <pt x="417" y="929" on="0"/>
        <pt x="417" y="890" on="0"/>
        <pt x="395" y="871" on="1"/>
        <pt x="249" y="746" on="1"/>
        <pt x="207" y="781" on="1"/>
        <pt x="361" y="974" on="1"/>
      </contour>
      <contour>
        <pt x="582" y="940" on="1"/>
        <pt x="595" y="929" on="0"/>
        <pt x="595" y="890" on="0"/>
        <pt x="573" y="871" on="1"/>
        <pt x="427" y="746" on="1"/>
        <pt x="385" y="781" on="1"/>
        <pt x="539" y="974" on="1"/>
      </contour>
    </TTGlyph>
    <TTGlyph name="Omacron" xMin="60" yMin="-12" xMax="675" yMax="855">
      <contour>
        <pt x="675" y="350" on="1"/>
        <pt x="675" y="-12" on="0"/>
        <pt x="60" y="-12" on="0"/>
        <pt x="60" y="712" on="0"/>
        <pt x="367" y="712" on="1"/>
        <pt x="524" y="712" on="0"/>
        <pt x="675" y="524" on="0"/>
      </contour>
      <contour>
        <pt x="368" y="66" on="1"/>
        <pt x="570" y="66" on="0"/>
        <pt x="570" y="634" on="0"/>
        <pt x="368" y="634" on="1"/>
        <pt x="254" y="634" on="0"/>
        <pt x="208" y="551" on="1"/>
        <pt x="167" y="476" on="0"/>
        <pt x="167" y="350" on="1"/>
        <pt x="167" y="142" on="0"/>
        <pt x="270" y="88" on="1"/>
        <pt x="311" y="66" on="0"/>
      </contour>
      <contour>
        <pt x="210" y="786" on="1"/>
        <pt x="210" y="855" on="1"/>
        <pt x="524" y="855" on="1"/>
        <pt x="524" y="786" on="1"/>
      </contour>
    </TTGlyph>
    <TTGlyph name="Omega" xMin="60" yMin="0" xMax="730" yMax="711">
      <contour>
        <pt x="491" y="634" on="0"/>
        <pt x="299" y="634" on="0"/>
        <pt x="187" y="492" on="0"/>
        <pt x="187" y="358" on="1"/>
        <pt x="187" y="267" on="0"/>
        <pt x="260" y="100" on="0"/>
        <pt x="314" y="76" on="1"/>
        <pt x="314" y="0" on="1"/>
        <pt x="60" y="0" on="1"/>
        <pt x="60" y="86" on="1"/>
        <pt x="97" y="86" on="1"/>
        <pt x="156" y="86" on="0"/>
        <pt x="213" y="62" on="1"/>
        <pt x="232" y="54" on="1"/>
        <pt x="242" y="70" on="1"/>
        <pt x="168" y="111" on="0"/>
        <pt x="81" y="268" on="0"/>
        <pt x="81" y="368" on="1"/>
        <pt x="81" y="478" on="0"/>
        <pt x="124" y="561" on="1"/>
        <pt x="173" y="655" on="0"/>
        <pt x="272" y="691" on="1"/>
        <pt x="327" y="711" on="0"/>
        <pt x="463" y="711" on="0"/>
        <pt x="572" y="671" on="0"/>
        <pt x="642" y="606" on="0"/>
        <pt x="666" y="561" on="1"/>
        <pt x="709" y="478" on="0"/>
        <pt x="709" y="268" on="0"/>
        <pt x="622" y="111" on="0"/>
        <pt x="548" y="70" on="1"/>
        <pt x="558" y="54" on="1"/>
        <pt x="626" y="86" on="0"/>
        <pt x="693" y="86" on="1"/>
        <pt x="730" y="86" on="1"/>
        <pt x="730" y="0" on="1"/>
        <pt x="476" y="0" on="1"/>
        <pt x="476" y="76" on="1"/>
        <pt x="530" y="100" on="0"/>
        <pt x="603" y="267" on="0"/>
        <pt x="603" y="358" on="1"/>
        <pt x="603" y="492" on="0"/>
      </contour>
    </TTGlyph>
    <TTGlyph name="Oslash" xMin="60" yMin="-33" xMax="675" yMax="735">
      <contour>
        <pt x="60" y="350" on="1"/>
        <pt x="60" y="712" on="0"/>
        <pt x="367" y="712" on="1"/>
        <pt x="473" y="712" on="0"/>
        <pt x="544" y="667" on="1"/>
        <pt x="594" y="735" on="1"/>
        <pt x="666" y="682" on="1"/>
        <pt x="610" y="604" on="1"/>
        <pt x="675" y="512" on="0"/>
        <pt x="675" y="350" on="1"/>
        <pt x="675" y="-12" on="0"/>
        <pt x="367" y="-12" on="1"/>
        <pt x="264" y="-12" on="0"/>
        <pt x="196" y="29" on="1"/>
        <pt x="152" y="-33" on="1"/>
        <pt x="76" y="19" on="1"/>
        <pt x="128" y="90" on="1"/>
        <pt x="60" y="181" on="0"/>
      </contour>
      <contour>
        <pt x="492" y="594" on="1"/>
        <pt x="446" y="634" on="0"/>
        <pt x="311" y="634" on="0"/>
        <pt x="230" y="591" on="0"/>
        <pt x="208" y="551" on="1"/>
        <pt x="167" y="476" on="0"/>
        <pt x="167" y="350" on="1"/>
        <pt x="167" y="291" on="0"/>
        <pt x="177" y="224" on="0"/>
        <pt x="186" y="175" on="1"/>
        <pt x="204" y="172" on="1"/>
        <pt x="218" y="214" on="0"/>
        <pt x="261" y="274" on="1"/>
      </contour>
      <contour>
        <pt x="368" y="66" on="1"/>
        <pt x="570" y="66" on="0"/>
        <pt x="570" y="350" on="1"/>
        <pt x="570" y="456" on="0"/>
        <pt x="552" y="519" on="1"/>
        <pt x="534" y="522" on="1"/>
        <pt x="521" y="481" on="0"/>
        <pt x="485" y="430" on="1"/>
        <pt x="248" y="101" on="1"/>
        <pt x="294" y="66" on="0"/>
      </contour>
    </TTGlyph>
    <TTGlyph name="Oslashacute" xMin="60" yMin="-33" xMax="675" yMax="917">
      <contour>
        <pt x="60" y="350" on="1"/>
        <pt x="60" y="712" on="0"/>
        <pt x="367" y="712" on="1"/>
        <pt x="473" y="712" on="0"/>
        <pt x="544" y="667" on="1"/>
        <pt x="594" y="735" on="1"/>
        <pt x="666" y="682" on="1"/>
        <pt x="610" y="604" on="1"/>
        <pt x="675" y="512" on="0"/>
        <pt x="675" y="350" on="1"/>
        <pt x="675" y="-12" on="0"/>
        <pt x="367" y="-12" on="1"/>
        <pt x="264" y="-12" on="0"/>
        <pt x="196" y="29" on="1"/>
        <pt x="152" y="-33" on="1"/>
        <pt x="76" y="19" on="1"/>
        <pt x="128" y="90" on="1"/>
        <pt x="60" y="181" on="0"/>
      </contour>
      <contour>
        <pt x="492" y="594" on="1"/>
        <pt x="446" y="634" on="0"/>
        <pt x="311" y="634" on="0"/>
        <pt x="230" y="591" on="0"/>
        <pt x="208" y="551" on="1"/>
        <pt x="167" y="476" on="0"/>
        <pt x="167" y="350" on="1"/>
        <pt x="167" y="291" on="0"/>
        <pt x="177" y="224" on="0"/>
        <pt x="186" y="175" on="1"/>
        <pt x="204" y="172" on="1"/>
        <pt x="218" y="214" on="0"/>
        <pt x="261" y="274" on="1"/>
      </contour>
      <contour>
        <pt x="368" y="66" on="1"/>
        <pt x="570" y="66" on="0"/>
        <pt x="570" y="350" on="1"/>
        <pt x="570" y="456" on="0"/>
        <pt x="552" y="519" on="1"/>
        <pt x="534" y="522" on="1"/>
        <pt x="521" y="481" on="0"/>
        <pt x="485" y="430" on="1"/>
        <pt x="248" y="101" on="1"/>
        <pt x="294" y="66" on="0"/>
      </contour>
      <contour>
        <pt x="522" y="852" on="1"/>
        <pt x="522" y="822" on="0"/>
        <pt x="480" y="811" on="1"/>
        <pt x="295" y="760" on="1"/>
        <pt x="272" y="810" on="1"/>
        <pt x="495" y="917" on="1"/>
        <pt x="518" y="867" on="1"/>
        <pt x="522" y="859" on="0"/>
      </contour>
    </TTGlyph>
    <TTGlyph name="Otilde" xMin="60" yMin="-12" xMax="675" yMax="889">
      <contour>
        <pt x="675" y="350" on="1"/>
        <pt x="675" y="-12" on="0"/>
        <pt x="60" y="-12" on="0"/>
        <pt x="60" y="712" on="0"/>
        <pt x="367" y="712" on="1"/>
        <pt x="524" y="712" on="0"/>
        <pt x="675" y="524" on="0"/>
      </contour>
      <contour>
        <pt x="368" y="66" on="1"/>
        <pt x="570" y="66" on="0"/>
        <pt x="570" y="634" on="0"/>
        <pt x="368" y="634" on="1"/>
        <pt x="254" y="634" on="0"/>
        <pt x="208" y="551" on="1"/>
        <pt x="167" y="476" on="0"/>
        <pt x="167" y="350" on="1"/>
        <pt x="167" y="142" on="0"/>
        <pt x="270" y="88" on="1"/>
        <pt x="311" y="66" on="0"/>
      </contour>
      <contour>
        <pt x="438" y="773" on="1"/>
        <pt x="405" y="773" on="0"/>
        <pt x="323" y="814" on="0"/>
        <pt x="284" y="814" on="0"/>
        <pt x="261" y="797" on="0"/>
        <pt x="245" y="775" on="1"/>
        <pt x="190" y="811" on="1"/>
        <pt x="230" y="889" on="0"/>
        <pt x="304" y="889" on="1"/>
        <pt x="336" y="889" on="0"/>
        <pt x="421" y="848" on="0"/>
        <pt x="437" y="848" on="1"/>
        <pt x="481" y="848" on="0"/>
        <pt x="497" y="885" on="1"/>
        <pt x="553" y="850" on="1"/>
        <pt x="515" y="773" on="0"/>
      </contour>
    </TTGlyph>
    <TTGlyph name="P" xMin="88" yMin="0" xMax="537" yMax="700">
      <contour>
        <pt x="188" y="0" on="1"/>
        <pt x="88" y="0" on="1"/>
        <pt x="88" y="700" on="1"/>
        <pt x="307" y="700" on="1"/>
        <pt x="419" y="700" on="0"/>
        <pt x="537" y="589" on="0"/>
        <pt x="537" y="479" on="1"/>
        <pt x="537" y="258" on="0"/>
        <pt x="267" y="258" on="1"/>
        <pt x="188" y="258" on="1"/>
      </contour>
      <contour>
        <pt x="188" y="334" on="1"/>
        <pt x="284" y="334" on="1"/>
        <pt x="358" y="334" on="0"/>
        <pt x="441" y="408" on="0"/>
        <pt x="441" y="479" on="1"/>
        <pt x="441" y="626" on="0"/>
        <pt x="299" y="626" on="1"/>
        <pt x="188" y="626" on="1"/>
      </contour>
    </TTGlyph>
    <TTGlyph name="Q" xMin="60" yMin="-86" xMax="675" yMax="712">
      <contour>
        <pt x="675" y="350" on="1"/>
        <pt x="675" y="129" on="0"/>
        <pt x="557" y="41" on="1"/>
        <pt x="638" y="-46" on="1"/>
        <pt x="590" y="-79" on="1"/>
        <pt x="579" y="-86" on="0"/>
        <pt x="567" y="-86" on="1"/>
        <pt x="540" y="-86" on="0"/>
        <pt x="520" y="-59" on="1"/>
        <pt x="474" y="2" on="1"/>
        <pt x="426" y="-12" on="0"/>
        <pt x="367" y="-12" on="1"/>
        <pt x="60" y="-12" on="0"/>
        <pt x="60" y="712" on="0"/>
        <pt x="367" y="712" on="1"/>
        <pt x="524" y="712" on="0"/>
        <pt x="675" y="524" on="0"/>
      </contour>
      <contour>
        <pt x="570" y="350" on="1"/>
        <pt x="570" y="634" on="0"/>
        <pt x="368" y="634" on="1"/>
        <pt x="254" y="634" on="0"/>
        <pt x="208" y="551" on="1"/>
        <pt x="167" y="476" on="0"/>
        <pt x="167" y="350" on="1"/>
        <pt x="167" y="142" on="0"/>
        <pt x="270" y="88" on="1"/>
        <pt x="311" y="66" on="0"/>
        <pt x="402" y="66" on="0"/>
        <pt x="422" y="71" on="1"/>
        <pt x="350" y="169" on="1"/>
        <pt x="405" y="206" on="1"/>
        <pt x="495" y="108" on="1"/>
        <pt x="570" y="175" on="0"/>
      </contour>
    </TTGlyph>
    <TTGlyph name="R" xMin="88" yMin="0" xMax="595" yMax="700">
      <contour>
        <pt x="188" y="0" on="1"/>
        <pt x="88" y="0" on="1"/>
        <pt x="88" y="700" on="1"/>
        <pt x="307" y="700" on="1"/>
        <pt x="419" y="700" on="0"/>
        <pt x="537" y="595" on="0"/>
        <pt x="537" y="491" on="1"/>
        <pt x="537" y="345" on="0"/>
        <pt x="411" y="298" on="1"/>
        <pt x="595" y="0" on="1"/>
        <pt x="484" y="0" on="1"/>
        <pt x="320" y="278" on="1"/>
        <pt x="286" y="276" on="0"/>
        <pt x="267" y="276" on="1"/>
        <pt x="188" y="276" on="1"/>
      </contour>
      <contour>
        <pt x="188" y="352" on="1"/>
        <pt x="284" y="352" on="1"/>
        <pt x="441" y="352" on="0"/>
        <pt x="441" y="491" on="1"/>
        <pt x="441" y="626" on="0"/>
        <pt x="299" y="626" on="1"/>
        <pt x="188" y="626" on="1"/>
      </contour>
    </TTGlyph>
    <TTGlyph name="Racute" xMin="88" yMin="0" xMax="595" yMax="917">
      <contour>
        <pt x="188" y="0" on="1"/>
        <pt x="88" y="0" on="1"/>
        <pt x="88" y="700" on="1"/>
        <pt x="307" y="700" on="1"/>
        <pt x="419" y="700" on="0"/>
        <pt x="537" y="595" on="0"/>
        <pt x="537" y="491" on="1"/>
        <pt x="537" y="345" on="0"/>
        <pt x="411" y="298" on="1"/>
        <pt x="595" y="0" on="1"/>
        <pt x="484" y="0" on="1"/>
        <pt x="320" y="278" on="1"/>
        <pt x="286" y="276" on="0"/>
        <pt x="267" y="276" on="1"/>
        <pt x="188" y="276" on="1"/>
      </contour>
      <contour>
        <pt x="188" y="352" on="1"/>
        <pt x="284" y="352" on="1"/>
        <pt x="441" y="352" on="0"/>
        <pt x="441" y="491" on="1"/>
        <pt x="441" y="626" on="0"/>
        <pt x="299" y="626" on="1"/>
        <pt x="188" y="626" on="1"/>
      </contour>
      <contour>
        <pt x="437" y="852" on="1"/>
        <pt x="437" y="822" on="0"/>
        <pt x="395" y="811" on="1"/>
        <pt x="210" y="760" on="1"/>
        <pt x="187" y="810" on="1"/>
        <pt x="410" y="917" on="1"/>
        <pt x="433" y="867" on="1"/>
        <pt x="437" y="859" on="0"/>
      </contour>
    </TTGlyph>
    <TTGlyph name="Rcaron" xMin="88" yMin="0" xMax="595" yMax="923">
      <contour>
        <pt x="188" y="0" on="1"/>
        <pt x="88" y="0" on="1"/>
        <pt x="88" y="700" on="1"/>
        <pt x="307" y="700" on="1"/>
        <pt x="419" y="700" on="0"/>
        <pt x="537" y="595" on="0"/>
        <pt x="537" y="491" on="1"/>
        <pt x="537" y="345" on="0"/>
        <pt x="411" y="298" on="1"/>
        <pt x="595" y="0" on="1"/>
        <pt x="484" y="0" on="1"/>
        <pt x="320" y="278" on="1"/>
        <pt x="286" y="276" on="0"/>
        <pt x="267" y="276" on="1"/>
        <pt x="188" y="276" on="1"/>
      </contour>
      <contour>
        <pt x="188" y="352" on="1"/>
        <pt x="284" y="352" on="1"/>
        <pt x="441" y="352" on="0"/>
        <pt x="441" y="491" on="1"/>
        <pt x="441" y="626" on="0"/>
        <pt x="299" y="626" on="1"/>
        <pt x="188" y="626" on="1"/>
      </contour>
      <contour>
        <pt x="237" y="763" on="1"/>
        <pt x="112" y="891" on="1"/>
        <pt x="148" y="923" on="1"/>
        <pt x="283" y="825" on="1"/>
        <pt x="419" y="923" on="1"/>
        <pt x="455" y="891" on="1"/>
        <pt x="330" y="763" on="1"/>
      </contour>
    </TTGlyph>
    <TTGlyph name="Rcommaaccent" xMin="88" yMin="-335" xMax="595" yMax="700">
      <contour>
        <pt x="188" y="0" on="1"/>
        <pt x="88" y="0" on="1"/>
        <pt x="88" y="700" on="1"/>
        <pt x="307" y="700" on="1"/>
        <pt x="419" y="700" on="0"/>
        <pt x="537" y="595" on="0"/>
        <pt x="537" y="491" on="1"/>
        <pt x="537" y="345" on="0"/>
        <pt x="411" y="298" on="1"/>
        <pt x="595" y="0" on="1"/>
        <pt x="484" y="0" on="1"/>
        <pt x="320" y="278" on="1"/>
        <pt x="286" y="276" on="0"/>
        <pt x="267" y="276" on="1"/>
        <pt x="188" y="276" on="1"/>
      </contour>
      <contour>
        <pt x="188" y="352" on="1"/>
        <pt x="284" y="352" on="1"/>
        <pt x="441" y="352" on="0"/>
        <pt x="441" y="491" on="1"/>
        <pt x="441" y="626" on="0"/>
        <pt x="299" y="626" on="1"/>
        <pt x="188" y="626" on="1"/>
      </contour>
      <contour>
        <pt x="339" y="-62" on="0"/>
        <pt x="361" y="-85" on="0"/>
        <pt x="361" y="-111" on="0"/>
        <pt x="359" y="-118" on="1"/>
        <pt x="338" y="-205" on="1"/>
        <pt x="330" y="-237" on="0"/>
        <pt x="276" y="-311" on="1"/>
        <pt x="259" y="-335" on="1"/>
        <pt x="194" y="-305" on="1"/>
        <pt x="238" y="-208" on="0"/>
        <pt x="252" y="-161" on="0"/>
        <pt x="253" y="-144" on="1"/>
        <pt x="257" y="-58" on="1"/>
        <pt x="318" y="-61" on="1"/>
      </contour>
    </TTGlyph>
    <TTGlyph name="Rsmallcap" xMin="88" yMin="0" xMax="523" yMax="546">
      <contour>
        <pt x="183" y="0" on="1"/>
        <pt x="88" y="0" on="1"/>
        <pt x="88" y="546" on="1"/>
        <pt x="275" y="546" on="1"/>
        <pt x="473" y="546" on="0"/>
        <pt x="473" y="383" on="1"/>
        <pt x="473" y="273" on="0"/>
        <pt x="379" y="233" on="1"/>
        <pt x="523" y="0" on="1"/>
        <pt x="417" y="0" on="1"/>
        <pt x="294" y="212" on="1"/>
        <pt x="277" y="210" on="0"/>
        <pt x="241" y="210" on="1"/>
        <pt x="183" y="210" on="1"/>
      </contour>
      <contour>
        <pt x="183" y="280" on="1"/>
        <pt x="255" y="280" on="1"/>
        <pt x="376" y="280" on="0"/>
        <pt x="376" y="383" on="1"/>
        <pt x="376" y="476" on="0"/>
        <pt x="269" y="476" on="1"/>
        <pt x="183" y="476" on="1"/>
      </contour>
    </TTGlyph>
    <TTGlyph name="Rsmallinverted" xMin="88" yMin="0" xMax="523" yMax="546">
      <contour>
        <pt x="88" y="546" on="1"/>
        <pt x="183" y="546" on="1"/>
        <pt x="183" y="336" on="1"/>
        <pt x="241" y="336" on="1"/>
        <pt x="268" y="336" on="0"/>
        <pt x="294" y="333" on="1"/>
        <pt x="417" y="546" on="1"/>
        <pt x="523" y="546" on="1"/>
        <pt x="379" y="313" on="1"/>
        <pt x="473" y="272" on="0"/>
        <pt x="473" y="163" on="1"/>
        <pt x="473" y="0" on="0"/>
        <pt x="275" y="0" on="1"/>
        <pt x="88" y="0" on="1"/>
      </contour>
      <contour>
        <pt x="255" y="266" on="1"/>
        <pt x="183" y="266" on="1"/>
        <pt x="183" y="70" on="1"/>
        <pt x="269" y="70" on="1"/>
        <pt x="376" y="70" on="0"/>
        <pt x="376" y="163" on="1"/>
        <pt x="376" y="266" on="0"/>
      </contour>
    </TTGlyph>
    <TTGlyph name="S" xMin="37" yMin="-12" xMax="498" yMax="712">
      <contour>
        <pt x="267" y="67" on="1"/>
        <pt x="318" y="67" on="0"/>
        <pt x="387" y="123" on="0"/>
        <pt x="387" y="171" on="1"/>
        <pt x="387" y="245" on="0"/>
        <pt x="279" y="296" on="1"/>
        <pt x="177" y="344" on="1"/>
        <pt x="52" y="403" on="0"/>
        <pt x="52" y="519" on="1"/>
        <pt x="52" y="608" on="0"/>
        <pt x="192" y="712" on="0"/>
        <pt x="286" y="712" on="1"/>
        <pt x="365" y="712" on="0"/>
        <pt x="424" y="691" on="1"/>
        <pt x="443" y="684" on="0"/>
        <pt x="478" y="670" on="1"/>
        <pt x="451" y="599" on="1"/>
        <pt x="354" y="635" on="0"/>
        <pt x="284" y="635" on="1"/>
        <pt x="160" y="635" on="0"/>
        <pt x="160" y="540" on="1"/>
        <pt x="160" y="505" on="0"/>
        <pt x="201" y="458" on="0"/>
        <pt x="245" y="437" on="1"/>
        <pt x="365" y="378" on="1"/>
        <pt x="498" y="312" on="0"/>
        <pt x="498" y="196" on="1"/>
        <pt x="498" y="141" on="0"/>
        <pt x="456" y="57" on="0"/>
        <pt x="421" y="34" on="1"/>
        <pt x="351" y="-12" on="0"/>
        <pt x="157" y="-12" on="0"/>
        <pt x="37" y="41" on="1"/>
        <pt x="69" y="116" on="1"/>
        <pt x="179" y="67" on="0"/>
      </contour>
    </TTGlyph>
    <TTGlyph name="Sacute" xMin="37" yMin="-12" xMax="498" yMax="917">
      <contour>
        <pt x="267" y="67" on="1"/>
        <pt x="318" y="67" on="0"/>
        <pt x="387" y="123" on="0"/>
        <pt x="387" y="171" on="1"/>
        <pt x="387" y="245" on="0"/>
        <pt x="279" y="296" on="1"/>
        <pt x="177" y="344" on="1"/>
        <pt x="52" y="403" on="0"/>
        <pt x="52" y="519" on="1"/>
        <pt x="52" y="608" on="0"/>
        <pt x="192" y="712" on="0"/>
        <pt x="286" y="712" on="1"/>
        <pt x="365" y="712" on="0"/>
        <pt x="424" y="691" on="1"/>
        <pt x="443" y="684" on="0"/>
        <pt x="478" y="670" on="1"/>
        <pt x="451" y="599" on="1"/>
        <pt x="354" y="635" on="0"/>
        <pt x="284" y="635" on="1"/>
        <pt x="160" y="635" on="0"/>
        <pt x="160" y="540" on="1"/>
        <pt x="160" y="505" on="0"/>
        <pt x="201" y="458" on="0"/>
        <pt x="245" y="437" on="1"/>
        <pt x="365" y="378" on="1"/>
        <pt x="498" y="312" on="0"/>
        <pt x="498" y="196" on="1"/>
        <pt x="498" y="141" on="0"/>
        <pt x="456" y="57" on="0"/>
        <pt x="421" y="34" on="1"/>
        <pt x="351" y="-12" on="0"/>
        <pt x="157" y="-12" on="0"/>
        <pt x="37" y="41" on="1"/>
        <pt x="69" y="116" on="1"/>
        <pt x="179" y="67" on="0"/>
      </contour>
      <contour>
        <pt x="398" y="852" on="1"/>
        <pt x="398" y="822" on="0"/>
        <pt x="356" y="811" on="1"/>
        <pt x="171" y="760" on="1"/>
        <pt x="148" y="810" on="1"/>
        <pt x="371" y="917" on="1"/>
        <pt x="394" y="867" on="1"/>
        <pt x="398" y="859" on="0"/>
      </contour>
    </TTGlyph>
    <TTGlyph name="Scaron" xMin="37" yMin="-12" xMax="498" yMax="923">
      <contour>
        <pt x="267" y="67" on="1"/>
        <pt x="318" y="67" on="0"/>
        <pt x="387" y="123" on="0"/>
        <pt x="387" y="171" on="1"/>
        <pt x="387" y="245" on="0"/>
        <pt x="279" y="296" on="1"/>
        <pt x="177" y="344" on="1"/>
        <pt x="52" y="403" on="0"/>
        <pt x="52" y="519" on="1"/>
        <pt x="52" y="608" on="0"/>
        <pt x="192" y="712" on="0"/>
        <pt x="286" y="712" on="1"/>
        <pt x="365" y="712" on="0"/>
        <pt x="424" y="691" on="1"/>
        <pt x="443" y="684" on="0"/>
        <pt x="478" y="670" on="1"/>
        <pt x="451" y="599" on="1"/>
        <pt x="354" y="635" on="0"/>
        <pt x="284" y="635" on="1"/>
        <pt x="160" y="635" on="0"/>
        <pt x="160" y="540" on="1"/>
        <pt x="160" y="505" on="0"/>
        <pt x="201" y="458" on="0"/>
        <pt x="245" y="437" on="1"/>
        <pt x="365" y="378" on="1"/>
        <pt x="498" y="312" on="0"/>
        <pt x="498" y="196" on="1"/>
        <pt x="498" y="141" on="0"/>
        <pt x="456" y="57" on="0"/>
        <pt x="421" y="34" on="1"/>
        <pt x="351" y="-12" on="0"/>
        <pt x="157" y="-12" on="0"/>
        <pt x="37" y="41" on="1"/>
        <pt x="69" y="116" on="1"/>
        <pt x="179" y="67" on="0"/>
      </contour>
      <contour>
        <pt x="228" y="763" on="1"/>
        <pt x="103" y="891" on="1"/>
        <pt x="139" y="923" on="1"/>
        <pt x="274" y="825" on="1"/>
        <pt x="410" y="923" on="1"/>
        <pt x="446" y="891" on="1"/>
        <pt x="321" y="763" on="1"/>
      </contour>
    </TTGlyph>
    <TTGlyph name="Scedilla" xMin="37" yMin="-220" xMax="498" yMax="712">
      <contour>
        <pt x="243" y="-177" on="1"/>
        <pt x="297" y="-177" on="0"/>
        <pt x="297" y="-129" on="1"/>
        <pt x="297" y="-105" on="0"/>
        <pt x="252" y="-87" on="0"/>
        <pt x="209" y="-84" on="1"/>
        <pt x="226" y="-10" on="1"/>
        <pt x="134" y="-3" on="0"/>
        <pt x="37" y="41" on="1"/>
        <pt x="69" y="116" on="1"/>
        <pt x="179" y="67" on="0"/>
        <pt x="267" y="67" on="1"/>
        <pt x="318" y="67" on="0"/>
        <pt x="387" y="123" on="0"/>
        <pt x="387" y="171" on="1"/>
        <pt x="387" y="245" on="0"/>
        <pt x="279" y="296" on="1"/>
        <pt x="177" y="344" on="1"/>
        <pt x="52" y="403" on="0"/>
        <pt x="52" y="519" on="1"/>
        <pt x="52" y="608" on="0"/>
        <pt x="192" y="712" on="0"/>
        <pt x="286" y="712" on="1"/>
        <pt x="365" y="712" on="0"/>
        <pt x="424" y="691" on="1"/>
        <pt x="443" y="684" on="0"/>
        <pt x="478" y="670" on="1"/>
        <pt x="451" y="599" on="1"/>
        <pt x="354" y="635" on="0"/>
        <pt x="284" y="635" on="1"/>
        <pt x="160" y="635" on="0"/>
        <pt x="160" y="540" on="1"/>
        <pt x="160" y="505" on="0"/>
        <pt x="201" y="458" on="0"/>
        <pt x="245" y="437" on="1"/>
        <pt x="365" y="378" on="1"/>
        <pt x="498" y="312" on="0"/>
        <pt x="498" y="196" on="1"/>
        <pt x="498" y="143" on="0"/>
        <pt x="459" y="62" on="0"/>
        <pt x="426" y="38" on="1"/>
        <pt x="364" y="-7" on="0"/>
        <pt x="280" y="-11" on="1"/>
        <pt x="270" y="-48" on="1"/>
        <pt x="312" y="-54" on="0"/>
        <pt x="359" y="-99" on="0"/>
        <pt x="359" y="-130" on="1"/>
        <pt x="359" y="-220" on="0"/>
        <pt x="247" y="-220" on="1"/>
        <pt x="209" y="-220" on="0"/>
        <pt x="179" y="-210" on="1"/>
        <pt x="189" y="-170" on="1"/>
        <pt x="215" y="-177" on="0"/>
      </contour>
    </TTGlyph>
    <TTGlyph name="Scircumflex" xMin="37" yMin="-12" xMax="498" yMax="898">
      <contour>
        <pt x="267" y="67" on="1"/>
        <pt x="318" y="67" on="0"/>
        <pt x="387" y="123" on="0"/>
        <pt x="387" y="171" on="1"/>
        <pt x="387" y="245" on="0"/>
        <pt x="279" y="296" on="1"/>
        <pt x="177" y="344" on="1"/>
        <pt x="52" y="403" on="0"/>
        <pt x="52" y="519" on="1"/>
        <pt x="52" y="608" on="0"/>
        <pt x="192" y="712" on="0"/>
        <pt x="286" y="712" on="1"/>
        <pt x="365" y="712" on="0"/>
        <pt x="424" y="691" on="1"/>
        <pt x="443" y="684" on="0"/>
        <pt x="478" y="670" on="1"/>
        <pt x="451" y="599" on="1"/>
        <pt x="354" y="635" on="0"/>
        <pt x="284" y="635" on="1"/>
        <pt x="160" y="635" on="0"/>
        <pt x="160" y="540" on="1"/>
        <pt x="160" y="505" on="0"/>
        <pt x="201" y="458" on="0"/>
        <pt x="245" y="437" on="1"/>
        <pt x="365" y="378" on="1"/>
        <pt x="498" y="312" on="0"/>
        <pt x="498" y="196" on="1"/>
        <pt x="498" y="141" on="0"/>
        <pt x="456" y="57" on="0"/>
        <pt x="421" y="34" on="1"/>
        <pt x="351" y="-12" on="0"/>
        <pt x="157" y="-12" on="0"/>
        <pt x="37" y="41" on="1"/>
        <pt x="69" y="116" on="1"/>
        <pt x="179" y="67" on="0"/>
      </contour>
      <contour>
        <pt x="106" y="770" on="1"/>
        <pt x="231" y="898" on="1"/>
        <pt x="324" y="898" on="1"/>
        <pt x="449" y="770" on="1"/>
        <pt x="413" y="738" on="1"/>
        <pt x="277" y="836" on="1"/>
        <pt x="142" y="738" on="1"/>
      </contour>
    </TTGlyph>
    <TTGlyph name="Scommaaccent" xMin="37" yMin="-335" xMax="498" yMax="712">
      <contour>
        <pt x="267" y="67" on="1"/>
        <pt x="318" y="67" on="0"/>
        <pt x="387" y="123" on="0"/>
        <pt x="387" y="171" on="1"/>
        <pt x="387" y="245" on="0"/>
        <pt x="279" y="296" on="1"/>
        <pt x="177" y="344" on="1"/>
        <pt x="52" y="403" on="0"/>
        <pt x="52" y="519" on="1"/>
        <pt x="52" y="608" on="0"/>
        <pt x="192" y="712" on="0"/>
        <pt x="286" y="712" on="1"/>
        <pt x="365" y="712" on="0"/>
        <pt x="424" y="691" on="1"/>
        <pt x="443" y="684" on="0"/>
        <pt x="478" y="670" on="1"/>
        <pt x="451" y="599" on="1"/>
        <pt x="354" y="635" on="0"/>
        <pt x="284" y="635" on="1"/>
        <pt x="160" y="635" on="0"/>
        <pt x="160" y="540" on="1"/>
        <pt x="160" y="505" on="0"/>
        <pt x="201" y="458" on="0"/>
        <pt x="245" y="437" on="1"/>
        <pt x="365" y="378" on="1"/>
        <pt x="498" y="312" on="0"/>
        <pt x="498" y="196" on="1"/>
        <pt x="498" y="141" on="0"/>
        <pt x="456" y="57" on="0"/>
        <pt x="421" y="34" on="1"/>
        <pt x="351" y="-12" on="0"/>
        <pt x="157" y="-12" on="0"/>
        <pt x="37" y="41" on="1"/>
        <pt x="69" y="116" on="1"/>
        <pt x="179" y="67" on="0"/>
      </contour>
      <contour>
        <pt x="315" y="-62" on="0"/>
        <pt x="337" y="-85" on="0"/>
        <pt x="337" y="-111" on="0"/>
        <pt x="335" y="-118" on="1"/>
        <pt x="314" y="-205" on="1"/>
        <pt x="306" y="-237" on="0"/>
        <pt x="252" y="-311" on="1"/>
        <pt x="235" y="-335" on="1"/>
        <pt x="170" y="-305" on="1"/>
        <pt x="214" y="-208" on="0"/>
        <pt x="228" y="-161" on="0"/>
        <pt x="229" y="-144" on="1"/>
        <pt x="233" y="-58" on="1"/>
        <pt x="294" y="-61" on="1"/>
      </contour>
    </TTGlyph>
    <TTGlyph name="T" xMin="3" yMin="0" xMax="532" yMax="700">
      <contour>
        <pt x="317" y="0" on="1"/>
        <pt x="216" y="0" on="1"/>
        <pt x="216" y="611" on="1"/>
        <pt x="3" y="611" on="1"/>
        <pt x="3" y="700" on="1"/>
        <pt x="532" y="700" on="1"/>
        <pt x="532" y="611" on="1"/>
        <pt x="317" y="611" on="1"/>
      </contour>
    </TTGlyph>
    <TTGlyph name="Tbar" xMin="3" yMin="0" xMax="532" yMax="700">
      <contour>
        <pt x="45" y="334" on="1"/>
        <pt x="45" y="397" on="1"/>
        <pt x="216" y="397" on="1"/>
        <pt x="216" y="611" on="1"/>
        <pt x="3" y="611" on="1"/>
        <pt x="3" y="700" on="1"/>
        <pt x="532" y="700" on="1"/>
        <pt x="532" y="611" on="1"/>
        <pt x="317" y="611" on="1"/>
        <pt x="317" y="397" on="1"/>
        <pt x="489" y="397" on="1"/>
        <pt x="489" y="334" on="1"/>
        <pt x="317" y="334" on="1"/>
        <pt x="317" y="0" on="1"/>
        <pt x="216" y="0" on="1"/>
        <pt x="216" y="334" on="1"/>
      </contour>
    </TTGlyph>
    <TTGlyph name="Tcaron" xMin="3" yMin="0" xMax="532" yMax="923">
      <contour>
        <pt x="317" y="0" on="1"/>
        <pt x="216" y="0" on="1"/>
        <pt x="216" y="611" on="1"/>
        <pt x="3" y="611" on="1"/>
        <pt x="3" y="700" on="1"/>
        <pt x="532" y="700" on="1"/>
        <pt x="532" y="611" on="1"/>
        <pt x="317" y="611" on="1"/>
      </contour>
      <contour>
        <pt x="218" y="763" on="1"/>
        <pt x="93" y="891" on="1"/>
        <pt x="129" y="923" on="1"/>
        <pt x="264" y="825" on="1"/>
        <pt x="400" y="923" on="1"/>
        <pt x="436" y="891" on="1"/>
        <pt x="311" y="763" on="1"/>
      </contour>
    </TTGlyph>
    <TTGlyph name="Tcedilla" xMin="3" yMin="-220" xMax="532" yMax="700">
      <contour>
        <pt x="250" y="-177" on="1"/>
        <pt x="304" y="-177" on="0"/>
        <pt x="304" y="-129" on="1"/>
        <pt x="304" y="-105" on="0"/>
        <pt x="259" y="-87" on="0"/>
        <pt x="216" y="-84" on="1"/>
        <pt x="236" y="0" on="1"/>
        <pt x="216" y="0" on="1"/>
        <pt x="216" y="611" on="1"/>
        <pt x="3" y="611" on="1"/>
        <pt x="3" y="700" on="1"/>
        <pt x="532" y="700" on="1"/>
        <pt x="532" y="611" on="1"/>
        <pt x="317" y="611" on="1"/>
        <pt x="317" y="0" on="1"/>
        <pt x="290" y="0" on="1"/>
        <pt x="277" y="-48" on="1"/>
        <pt x="319" y="-54" on="0"/>
        <pt x="366" y="-99" on="0"/>
        <pt x="366" y="-130" on="1"/>
        <pt x="366" y="-220" on="0"/>
        <pt x="254" y="-220" on="1"/>
        <pt x="216" y="-220" on="0"/>
        <pt x="186" y="-210" on="1"/>
        <pt x="196" y="-170" on="1"/>
        <pt x="222" y="-177" on="0"/>
      </contour>
    </TTGlyph>
    <TTGlyph name="Tcommaaccent" xMin="3" yMin="-335" xMax="532" yMax="700">
      <contour>
        <pt x="317" y="0" on="1"/>
        <pt x="216" y="0" on="1"/>
        <pt x="216" y="611" on="1"/>
        <pt x="3" y="611" on="1"/>
        <pt x="3" y="700" on="1"/>
        <pt x="532" y="700" on="1"/>
        <pt x="532" y="611" on="1"/>
        <pt x="317" y="611" on="1"/>
      </contour>
      <contour>
        <pt x="302" y="-62" on="0"/>
        <pt x="324" y="-85" on="0"/>
        <pt x="324" y="-111" on="0"/>
        <pt x="322" y="-118" on="1"/>
        <pt x="301" y="-205" on="1"/>
        <pt x="293" y="-237" on="0"/>
        <pt x="240" y="-311" on="1"/>
        <pt x="222" y="-335" on="1"/>
        <pt x="157" y="-305" on="1"/>
        <pt x="201" y="-208" on="0"/>
        <pt x="215" y="-161" on="0"/>
        <pt x="216" y="-144" on="1"/>
        <pt x="220" y="-58" on="1"/>
        <pt x="281" y="-61" on="1"/>
      </contour>
    </TTGlyph>
    <TTGlyph name="Thorn" xMin="88" yMin="0" xMax="537" yMax="700">
      <contour>
        <pt x="188" y="0" on="1"/>
        <pt x="88" y="0" on="1"/>
        <pt x="88" y="700" on="1"/>
        <pt x="188" y="700" on="1"/>
        <pt x="188" y="558" on="1"/>
        <pt x="307" y="558" on="1"/>
        <pt x="419" y="558" on="0"/>
        <pt x="537" y="447" on="0"/>
        <pt x="537" y="337" on="1"/>
        <pt x="537" y="116" on="0"/>
        <pt x="267" y="116" on="1"/>
        <pt x="188" y="116" on="1"/>
      </contour>
      <contour>
        <pt x="188" y="192" on="1"/>
        <pt x="284" y="192" on="1"/>
        <pt x="358" y="192" on="0"/>
        <pt x="441" y="266" on="0"/>
        <pt x="441" y="337" on="1"/>
        <pt x="441" y="484" on="0"/>
        <pt x="299" y="484" on="1"/>
        <pt x="188" y="484" on="1"/>
      </contour>
    </TTGlyph>
    <TTGlyph name="U" xMin="80" yMin="-12" xMax="614" yMax="700">
      <contour>
        <pt x="614" y="700" on="1"/>
        <pt x="614" y="260" on="1"/>
        <pt x="614" y="-12" on="0"/>
        <pt x="80" y="-12" on="0"/>
        <pt x="80" y="260" on="1"/>
        <pt x="80" y="700" on="1"/>
        <pt x="180" y="700" on="1"/>
        <pt x="180" y="280" on="1"/>
        <pt x="180" y="178" on="0"/>
        <pt x="250" y="71" on="0"/>
        <pt x="444" y="71" on="0"/>
        <pt x="514" y="178" on="0"/>
        <pt x="514" y="280" on="1"/>
        <pt x="514" y="700" on="1"/>
      </contour>
    </TTGlyph>
    <TTGlyph name="Uacute" xMin="80" yMin="-12" xMax="614" yMax="917">
      <contour>
        <pt x="614" y="700" on="1"/>
        <pt x="614" y="260" on="1"/>
        <pt x="614" y="-12" on="0"/>
        <pt x="80" y="-12" on="0"/>
        <pt x="80" y="260" on="1"/>
        <pt x="80" y="700" on="1"/>
        <pt x="180" y="700" on="1"/>
        <pt x="180" y="280" on="1"/>
        <pt x="180" y="178" on="0"/>
        <pt x="250" y="71" on="0"/>
        <pt x="444" y="71" on="0"/>
        <pt x="514" y="178" on="0"/>
        <pt x="514" y="280" on="1"/>
        <pt x="514" y="700" on="1"/>
      </contour>
      <contour>
        <pt x="483" y="852" on="1"/>
        <pt x="483" y="822" on="0"/>
        <pt x="441" y="811" on="1"/>
        <pt x="256" y="760" on="1"/>
        <pt x="233" y="810" on="1"/>
        <pt x="456" y="917" on="1"/>
        <pt x="479" y="867" on="1"/>
        <pt x="483" y="859" on="0"/>
      </contour>
    </TTGlyph>
    <TTGlyph name="Ubreve" xMin="80" yMin="-12" xMax="614" yMax="910">
      <contour>
        <pt x="614" y="700" on="1"/>
        <pt x="614" y="260" on="1"/>
        <pt x="614" y="-12" on="0"/>
        <pt x="80" y="-12" on="0"/>
        <pt x="80" y="260" on="1"/>
        <pt x="80" y="700" on="1"/>
        <pt x="180" y="700" on="1"/>
        <pt x="180" y="280" on="1"/>
        <pt x="180" y="178" on="0"/>
        <pt x="250" y="71" on="0"/>
        <pt x="444" y="71" on="0"/>
        <pt x="514" y="178" on="0"/>
        <pt x="514" y="280" on="1"/>
        <pt x="514" y="700" on="1"/>
      </contour>
      <contour>
        <pt x="532" y="754" on="0"/>
        <pt x="168" y="754" on="0"/>
        <pt x="168" y="901" on="1"/>
        <pt x="225" y="910" on="1"/>
        <pt x="232" y="855" on="0"/>
        <pt x="287" y="818" on="0"/>
        <pt x="413" y="818" on="0"/>
        <pt x="468" y="855" on="0"/>
        <pt x="475" y="910" on="1"/>
        <pt x="532" y="901" on="1"/>
      </contour>
    </TTGlyph>
    <TTGlyph name="Ucircumflex" xMin="80" yMin="-12" xMax="614" yMax="898">
      <contour>
        <pt x="614" y="700" on="1"/>
        <pt x="614" y="260" on="1"/>
        <pt x="614" y="-12" on="0"/>
        <pt x="80" y="-12" on="0"/>
        <pt x="80" y="260" on="1"/>
        <pt x="80" y="700" on="1"/>
        <pt x="180" y="700" on="1"/>
        <pt x="180" y="280" on="1"/>
        <pt x="180" y="178" on="0"/>
        <pt x="250" y="71" on="0"/>
        <pt x="444" y="71" on="0"/>
        <pt x="514" y="178" on="0"/>
        <pt x="514" y="280" on="1"/>
        <pt x="514" y="700" on="1"/>
      </contour>
      <contour>
        <pt x="178" y="770" on="1"/>
        <pt x="303" y="898" on="1"/>
        <pt x="396" y="898" on="1"/>
        <pt x="521" y="770" on="1"/>
        <pt x="485" y="738" on="1"/>
        <pt x="349" y="836" on="1"/>
        <pt x="214" y="738" on="1"/>
      </contour>
    </TTGlyph>
    <TTGlyph name="Udieresis" xMin="80" yMin="-12" xMax="614" yMax="892">
      <contour>
        <pt x="614" y="700" on="1"/>
        <pt x="614" y="260" on="1"/>
        <pt x="614" y="-12" on="0"/>
        <pt x="80" y="-12" on="0"/>
        <pt x="80" y="260" on="1"/>
        <pt x="80" y="700" on="1"/>
        <pt x="180" y="700" on="1"/>
        <pt x="180" y="280" on="1"/>
        <pt x="180" y="178" on="0"/>
        <pt x="250" y="71" on="0"/>
        <pt x="444" y="71" on="0"/>
        <pt x="514" y="178" on="0"/>
        <pt x="514" y="280" on="1"/>
        <pt x="514" y="700" on="1"/>
      </contour>
      <contour>
        <pt x="197" y="807" on="0"/>
        <pt x="197" y="857" on="0"/>
        <pt x="233" y="892" on="0"/>
        <pt x="282" y="892" on="0"/>
        <pt x="317" y="857" on="0"/>
        <pt x="317" y="807" on="0"/>
        <pt x="282" y="772" on="0"/>
        <pt x="233" y="772" on="0"/>
      </contour>
      <contour>
        <pt x="500" y="857" on="0"/>
        <pt x="500" y="807" on="0"/>
        <pt x="464" y="772" on="0"/>
        <pt x="415" y="772" on="0"/>
        <pt x="380" y="807" on="0"/>
        <pt x="380" y="857" on="0"/>
        <pt x="415" y="892" on="0"/>
        <pt x="464" y="892" on="0"/>
      </contour>
    </TTGlyph>
    <TTGlyph name="Ugrave" xMin="80" yMin="-12" xMax="614" yMax="917">
      <contour>
        <pt x="614" y="700" on="1"/>
        <pt x="614" y="260" on="1"/>
        <pt x="614" y="-12" on="0"/>
        <pt x="80" y="-12" on="0"/>
        <pt x="80" y="260" on="1"/>
        <pt x="80" y="700" on="1"/>
        <pt x="180" y="700" on="1"/>
        <pt x="180" y="280" on="1"/>
        <pt x="180" y="178" on="0"/>
        <pt x="250" y="71" on="0"/>
        <pt x="444" y="71" on="0"/>
        <pt x="514" y="178" on="0"/>
        <pt x="514" y="280" on="1"/>
        <pt x="514" y="700" on="1"/>
      </contour>
      <contour>
        <pt x="213" y="852" on="1"/>
        <pt x="213" y="859" on="0"/>
        <pt x="217" y="867" on="1"/>
        <pt x="240" y="917" on="1"/>
        <pt x="463" y="810" on="1"/>
        <pt x="440" y="760" on="1"/>
        <pt x="255" y="811" on="1"/>
        <pt x="213" y="822" on="0"/>
      </contour>
    </TTGlyph>
    <TTGlyph name="Uhorn" xMin="80" yMin="-12" xMax="804" yMax="752">
      <contour>
        <pt x="614" y="700" on="1"/>
        <pt x="614" y="260" on="1"/>
        <pt x="614" y="-12" on="0"/>
        <pt x="80" y="-12" on="0"/>
        <pt x="80" y="260" on="1"/>
        <pt x="80" y="700" on="1"/>
        <pt x="180" y="700" on="1"/>
        <pt x="180" y="280" on="1"/>
        <pt x="180" y="178" on="0"/>
        <pt x="250" y="71" on="0"/>
        <pt x="444" y="71" on="0"/>
        <pt x="514" y="178" on="0"/>
        <pt x="514" y="280" on="1"/>
        <pt x="514" y="700" on="1"/>
      </contour>
      <contour>
        <pt x="714" y="752" on="1"/>
        <pt x="779" y="752" on="1"/>
        <pt x="804" y="752" on="0"/>
        <pt x="804" y="729" on="1"/>
        <pt x="804" y="650" on="0"/>
        <pt x="707" y="548" on="0"/>
        <pt x="630" y="526" on="1"/>
        <pt x="630" y="599" on="1"/>
        <pt x="714" y="622" on="0"/>
      </contour>
    </TTGlyph>
    <TTGlyph name="Uhungarumlaut" xMin="80" yMin="-12" xMax="614" yMax="974">
      <contour>
        <pt x="614" y="700" on="1"/>
        <pt x="614" y="260" on="1"/>
        <pt x="614" y="-12" on="0"/>
        <pt x="80" y="-12" on="0"/>
        <pt x="80" y="260" on="1"/>
        <pt x="80" y="700" on="1"/>
        <pt x="180" y="700" on="1"/>
        <pt x="180" y="280" on="1"/>
        <pt x="180" y="178" on="0"/>
        <pt x="250" y="71" on="0"/>
        <pt x="444" y="71" on="0"/>
        <pt x="514" y="178" on="0"/>
        <pt x="514" y="280" on="1"/>
        <pt x="514" y="700" on="1"/>
      </contour>
      <contour>
        <pt x="387" y="940" on="1"/>
        <pt x="400" y="929" on="0"/>
        <pt x="400" y="890" on="0"/>
        <pt x="378" y="871" on="1"/>
        <pt x="232" y="746" on="1"/>
        <pt x="190" y="781" on="1"/>
        <pt x="344" y="974" on="1"/>
      </contour>
      <contour>
        <pt x="565" y="940" on="1"/>
        <pt x="578" y="929" on="0"/>
        <pt x="578" y="890" on="0"/>
        <pt x="556" y="871" on="1"/>
        <pt x="410" y="746" on="1"/>
        <pt x="368" y="781" on="1"/>
        <pt x="522" y="974" on="1"/>
      </contour>
    </TTGlyph>
    <TTGlyph name="Umacron" xMin="80" yMin="-12" xMax="614" yMax="855">
      <contour>
        <pt x="614" y="700" on="1"/>
        <pt x="614" y="260" on="1"/>
        <pt x="614" y="-12" on="0"/>
        <pt x="80" y="-12" on="0"/>
        <pt x="80" y="260" on="1"/>
        <pt x="80" y="700" on="1"/>
        <pt x="180" y="700" on="1"/>
        <pt x="180" y="280" on="1"/>
        <pt x="180" y="178" on="0"/>
        <pt x="250" y="71" on="0"/>
        <pt x="444" y="71" on="0"/>
        <pt x="514" y="178" on="0"/>
        <pt x="514" y="280" on="1"/>
        <pt x="514" y="700" on="1"/>
      </contour>
      <contour>
        <pt x="190" y="786" on="1"/>
        <pt x="190" y="855" on="1"/>
        <pt x="504" y="855" on="1"/>
        <pt x="504" y="786" on="1"/>
      </contour>
    </TTGlyph>
    <TTGlyph name="Uogonek" xMin="80" yMin="-220" xMax="614" yMax="700">
      <contour>
        <pt x="614" y="700" on="1"/>
        <pt x="614" y="260" on="1"/>
        <pt x="614" y="70" on="0"/>
        <pt x="484" y="13" on="1"/>
        <pt x="425" y="-13" on="0"/>
        <pt x="348" y="-82" on="0"/>
        <pt x="348" y="-118" on="1"/>
        <pt x="348" y="-140" on="0"/>
        <pt x="376" y="-165" on="0"/>
        <pt x="423" y="-165" on="0"/>
        <pt x="444" y="-151" on="1"/>
        <pt x="473" y="-196" on="1"/>
        <pt x="432" y="-220" on="0"/>
        <pt x="337" y="-220" on="0"/>
        <pt x="281" y="-162" on="0"/>
        <pt x="281" y="-63" on="0"/>
        <pt x="341" y="-12" on="1"/>
        <pt x="80" y="-9" on="0"/>
        <pt x="80" y="260" on="1"/>
        <pt x="80" y="700" on="1"/>
        <pt x="180" y="700" on="1"/>
        <pt x="180" y="280" on="1"/>
        <pt x="180" y="178" on="0"/>
        <pt x="250" y="71" on="0"/>
        <pt x="444" y="71" on="0"/>
        <pt x="514" y="178" on="0"/>
        <pt x="514" y="280" on="1"/>
        <pt x="514" y="700" on="1"/>
      </contour>
    </TTGlyph>
    <TTGlyph name="Uring" xMin="80" yMin="-12" xMax="614" yMax="939">
      <contour>
        <pt x="614" y="700" on="1"/>
        <pt x="614" y="260" on="1"/>
        <pt x="614" y="-12" on="0"/>
        <pt x="80" y="-12" on="0"/>
        <pt x="80" y="260" on="1"/>
        <pt x="80" y="700" on="1"/>
        <pt x="180" y="700" on="1"/>
        <pt x="180" y="280" on="1"/>
        <pt x="180" y="178" on="0"/>
        <pt x="250" y="71" on="0"/>
        <pt x="444" y="71" on="0"/>
        <pt x="514" y="178" on="0"/>
        <pt x="514" y="280" on="1"/>
        <pt x="514" y="700" on="1"/>
      </contour>
      <contour>
        <pt x="306" y="751" on="0"/>
        <pt x="248" y="804" on="0"/>
        <pt x="248" y="885" on="0"/>
        <pt x="306" y="939" on="0"/>
        <pt x="388" y="939" on="0"/>
        <pt x="447" y="885" on="0"/>
        <pt x="447" y="804" on="0"/>
        <pt x="388" y="751" on="0"/>
      </contour>
      <contour>
        <pt x="328" y="888" on="0"/>
        <pt x="305" y="864" on="0"/>
        <pt x="305" y="825" on="0"/>
        <pt x="329" y="803" on="0"/>
        <pt x="366" y="803" on="0"/>
        <pt x="390" y="825" on="0"/>
        <pt x="390" y="864" on="0"/>
        <pt x="366" y="888" on="0"/>
      </contour>
    </TTGlyph>
    <TTGlyph name="Utilde" xMin="80" yMin="-12" xMax="614" yMax="889">
      <contour>
        <pt x="614" y="700" on="1"/>
        <pt x="614" y="260" on="1"/>
        <pt x="614" y="-12" on="0"/>
        <pt x="80" y="-12" on="0"/>
        <pt x="80" y="260" on="1"/>
        <pt x="80" y="700" on="1"/>
        <pt x="180" y="700" on="1"/>
        <pt x="180" y="280" on="1"/>
        <pt x="180" y="178" on="0"/>
        <pt x="250" y="71" on="0"/>
        <pt x="444" y="71" on="0"/>
        <pt x="514" y="178" on="0"/>
        <pt x="514" y="280" on="1"/>
        <pt x="514" y="700" on="1"/>
      </contour>
      <contour>
        <pt x="414" y="773" on="1"/>
        <pt x="381" y="773" on="0"/>
        <pt x="299" y="814" on="0"/>
        <pt x="260" y="814" on="0"/>
        <pt x="237" y="797" on="0"/>
        <pt x="221" y="775" on="1"/>
        <pt x="166" y="811" on="1"/>
        <pt x="206" y="889" on="0"/>
        <pt x="280" y="889" on="1"/>
        <pt x="312" y="889" on="0"/>
        <pt x="397" y="848" on="0"/>
        <pt x="413" y="848" on="1"/>
        <pt x="457" y="848" on="0"/>
        <pt x="473" y="885" on="1"/>
        <pt x="529" y="850" on="1"/>
        <pt x="491" y="773" on="0"/>
      </contour>
    </TTGlyph>
    <TTGlyph name="V" xMin="3" yMin="0" xMax="611" yMax="700">
      <contour>
        <pt x="611" y="700" on="1"/>
        <pt x="359" y="0" on="1"/>
        <pt x="229" y="0" on="1"/>
        <pt x="3" y="700" on="1"/>
        <pt x="103" y="700" on="1"/>
        <pt x="247" y="247" on="1"/>
        <pt x="267" y="183" on="0"/>
        <pt x="282" y="108" on="1"/>
        <pt x="287" y="83" on="1"/>
        <pt x="305" y="83" on="1"/>
        <pt x="325" y="174" on="0"/>
        <pt x="351" y="247" on="1"/>
        <pt x="511" y="700" on="1"/>
      </contour>
    </TTGlyph>
    <TTGlyph name="W" xMin="7" yMin="0" xMax="911" yMax="700">
      <contour>
        <pt x="430" y="461" on="1"/>
        <pt x="323" y="0" on="1"/>
        <pt x="186" y="0" on="1"/>
        <pt x="7" y="700" on="1"/>
        <pt x="113" y="700" on="1"/>
        <pt x="226" y="229" on="1"/>
        <pt x="241" y="165" on="0"/>
        <pt x="246" y="106" on="1"/>
        <pt x="247" y="85" on="1"/>
        <pt x="263" y="85" on="1"/>
        <pt x="269" y="164" on="0"/>
        <pt x="284" y="229" on="1"/>
        <pt x="391" y="700" on="1"/>
        <pt x="527" y="700" on="1"/>
        <pt x="634" y="229" on="1"/>
        <pt x="646" y="178" on="0"/>
        <pt x="653" y="106" on="1"/>
        <pt x="655" y="85" on="1"/>
        <pt x="671" y="85" on="1"/>
        <pt x="676" y="164" on="0"/>
        <pt x="692" y="229" on="1"/>
        <pt x="805" y="700" on="1"/>
        <pt x="911" y="700" on="1"/>
        <pt x="732" y="0" on="1"/>
        <pt x="595" y="0" on="1"/>
        <pt x="488" y="461" on="1"/>
        <pt x="476" y="512" on="0"/>
        <pt x="469" y="584" on="1"/>
        <pt x="467" y="605" on="1"/>
        <pt x="451" y="605" on="1"/>
        <pt x="445" y="526" on="0"/>
      </contour>
    </TTGlyph>
    <TTGlyph name="Wacute" xMin="7" yMin="0" xMax="911" yMax="917">
      <contour>
        <pt x="323" y="0" on="1"/>
        <pt x="186" y="0" on="1"/>
        <pt x="7" y="700" on="1"/>
        <pt x="113" y="700" on="1"/>
        <pt x="226" y="229" on="1"/>
        <pt x="242" y="164" on="0"/>
        <pt x="247" y="85" on="1"/>
        <pt x="263" y="85" on="1"/>
        <pt x="265" y="106" on="1"/>
        <pt x="272" y="178" on="0"/>
        <pt x="284" y="229" on="1"/>
        <pt x="391" y="700" on="1"/>
        <pt x="527" y="700" on="1"/>
        <pt x="634" y="229" on="1"/>
        <pt x="649" y="164" on="0"/>
        <pt x="655" y="85" on="1"/>
        <pt x="671" y="85" on="1"/>
        <pt x="672" y="106" on="1"/>
        <pt x="677" y="165" on="0"/>
        <pt x="692" y="229" on="1"/>
        <pt x="805" y="700" on="1"/>
        <pt x="911" y="700" on="1"/>
        <pt x="732" y="0" on="1"/>
        <pt x="595" y="0" on="1"/>
        <pt x="488" y="461" on="1"/>
        <pt x="473" y="526" on="0"/>
        <pt x="467" y="605" on="1"/>
        <pt x="451" y="605" on="1"/>
        <pt x="449" y="584" on="1"/>
        <pt x="442" y="512" on="0"/>
        <pt x="430" y="461" on="1"/>
      </contour>
      <contour>
        <pt x="614" y="852" on="1"/>
        <pt x="614" y="822" on="0"/>
        <pt x="572" y="811" on="1"/>
        <pt x="387" y="760" on="1"/>
        <pt x="364" y="810" on="1"/>
        <pt x="587" y="917" on="1"/>
        <pt x="610" y="867" on="1"/>
        <pt x="614" y="859" on="0"/>
      </contour>
    </TTGlyph>
    <TTGlyph name="Wcircumflex" xMin="7" yMin="0" xMax="911" yMax="898">
      <contour>
        <pt x="430" y="461" on="1"/>
        <pt x="323" y="0" on="1"/>
        <pt x="186" y="0" on="1"/>
        <pt x="7" y="700" on="1"/>
        <pt x="113" y="700" on="1"/>
        <pt x="226" y="229" on="1"/>
        <pt x="241" y="165" on="0"/>
        <pt x="246" y="106" on="1"/>
        <pt x="247" y="85" on="1"/>
        <pt x="263" y="85" on="1"/>
        <pt x="269" y="164" on="0"/>
        <pt x="284" y="229" on="1"/>
        <pt x="391" y="700" on="1"/>
        <pt x="527" y="700" on="1"/>
        <pt x="634" y="229" on="1"/>
        <pt x="646" y="178" on="0"/>
        <pt x="653" y="106" on="1"/>
        <pt x="655" y="85" on="1"/>
        <pt x="671" y="85" on="1"/>
        <pt x="676" y="164" on="0"/>
        <pt x="692" y="229" on="1"/>
        <pt x="805" y="700" on="1"/>
        <pt x="911" y="700" on="1"/>
        <pt x="732" y="0" on="1"/>
        <pt x="595" y="0" on="1"/>
        <pt x="488" y="461" on="1"/>
        <pt x="476" y="512" on="0"/>
        <pt x="469" y="584" on="1"/>
        <pt x="467" y="605" on="1"/>
        <pt x="451" y="605" on="1"/>
        <pt x="445" y="526" on="0"/>
      </contour>
      <contour>
        <pt x="288" y="770" on="1"/>
        <pt x="413" y="898" on="1"/>
        <pt x="506" y="898" on="1"/>
        <pt x="631" y="770" on="1"/>
        <pt x="595" y="738" on="1"/>
        <pt x="459" y="836" on="1"/>
        <pt x="324" y="738" on="1"/>
      </contour>
    </TTGlyph>
    <TTGlyph name="Wdieresis" xMin="7" yMin="0" xMax="911" yMax="892">
      <contour>
        <pt x="323" y="0" on="1"/>
        <pt x="186" y="0" on="1"/>
        <pt x="7" y="700" on="1"/>
        <pt x="113" y="700" on="1"/>
        <pt x="226" y="229" on="1"/>
        <pt x="242" y="164" on="0"/>
        <pt x="247" y="85" on="1"/>
        <pt x="263" y="85" on="1"/>
        <pt x="265" y="106" on="1"/>
        <pt x="272" y="178" on="0"/>
        <pt x="284" y="229" on="1"/>
        <pt x="391" y="700" on="1"/>
        <pt x="527" y="700" on="1"/>
        <pt x="634" y="229" on="1"/>
        <pt x="649" y="164" on="0"/>
        <pt x="655" y="85" on="1"/>
        <pt x="671" y="85" on="1"/>
        <pt x="672" y="106" on="1"/>
        <pt x="677" y="165" on="0"/>
        <pt x="692" y="229" on="1"/>
        <pt x="805" y="700" on="1"/>
        <pt x="911" y="700" on="1"/>
        <pt x="732" y="0" on="1"/>
        <pt x="595" y="0" on="1"/>
        <pt x="488" y="461" on="1"/>
        <pt x="473" y="526" on="0"/>
        <pt x="467" y="605" on="1"/>
        <pt x="451" y="605" on="1"/>
        <pt x="449" y="584" on="1"/>
        <pt x="442" y="512" on="0"/>
        <pt x="430" y="461" on="1"/>
      </contour>
      <contour>
        <pt x="312" y="807" on="0"/>
        <pt x="312" y="857" on="0"/>
        <pt x="348" y="892" on="0"/>
        <pt x="397" y="892" on="0"/>
        <pt x="432" y="857" on="0"/>
        <pt x="432" y="807" on="0"/>
        <pt x="397" y="772" on="0"/>
        <pt x="348" y="772" on="0"/>
      </contour>
      <contour>
        <pt x="615" y="857" on="0"/>
        <pt x="615" y="807" on="0"/>
        <pt x="579" y="772" on="0"/>
        <pt x="530" y="772" on="0"/>
        <pt x="495" y="807" on="0"/>
        <pt x="495" y="857" on="0"/>
        <pt x="530" y="892" on="0"/>
        <pt x="579" y="892" on="0"/>
      </contour>
    </TTGlyph>
    <TTGlyph name="Wgrave" xMin="7" yMin="0" xMax="911" yMax="917">
      <contour>
        <pt x="430" y="461" on="1"/>
        <pt x="323" y="0" on="1"/>
        <pt x="186" y="0" on="1"/>
        <pt x="7" y="700" on="1"/>
        <pt x="113" y="700" on="1"/>
        <pt x="226" y="229" on="1"/>
        <pt x="241" y="165" on="0"/>
        <pt x="246" y="106" on="1"/>
        <pt x="247" y="85" on="1"/>
        <pt x="263" y="85" on="1"/>
        <pt x="269" y="164" on="0"/>
        <pt x="284" y="229" on="1"/>
        <pt x="391" y="700" on="1"/>
        <pt x="527" y="700" on="1"/>
        <pt x="634" y="229" on="1"/>
        <pt x="646" y="178" on="0"/>
        <pt x="653" y="106" on="1"/>
        <pt x="655" y="85" on="1"/>
        <pt x="671" y="85" on="1"/>
        <pt x="676" y="164" on="0"/>
        <pt x="692" y="229" on="1"/>
        <pt x="805" y="700" on="1"/>
        <pt x="911" y="700" on="1"/>
        <pt x="732" y="0" on="1"/>
        <pt x="595" y="0" on="1"/>
        <pt x="488" y="461" on="1"/>
        <pt x="476" y="512" on="0"/>
        <pt x="469" y="584" on="1"/>
        <pt x="467" y="605" on="1"/>
        <pt x="451" y="605" on="1"/>
        <pt x="445" y="526" on="0"/>
      </contour>
      <contour>
        <pt x="314" y="852" on="1"/>
        <pt x="314" y="859" on="0"/>
        <pt x="318" y="867" on="1"/>
        <pt x="341" y="917" on="1"/>
        <pt x="564" y="810" on="1"/>
        <pt x="541" y="760" on="1"/>
        <pt x="356" y="811" on="1"/>
        <pt x="314" y="822" on="0"/>
      </contour>
    </TTGlyph>
    <TTGlyph name="X" xMin="4" yMin="0" xMax="567" yMax="700">
      <contour>
        <pt x="302" y="280" on="1"/>
        <pt x="286" y="280" on="1"/>
        <pt x="265" y="229" on="0"/>
        <pt x="223" y="163" on="1"/>
        <pt x="120" y="0" on="1"/>
        <pt x="4" y="0" on="1"/>
        <pt x="246" y="363" on="1"/>
        <pt x="43" y="700" on="1"/>
        <pt x="154" y="700" on="1"/>
        <pt x="239" y="542" on="1"/>
        <pt x="288" y="440" on="1"/>
        <pt x="304" y="440" on="1"/>
        <pt x="326" y="491" on="0"/>
        <pt x="357" y="542" on="1"/>
        <pt x="450" y="700" on="1"/>
        <pt x="561" y="700" on="1"/>
        <pt x="346" y="363" on="1"/>
        <pt x="567" y="0" on="1"/>
        <pt x="451" y="0" on="1"/>
        <pt x="361" y="163" on="1"/>
      </contour>
    </TTGlyph>
    <TTGlyph name="Y" xMin="3" yMin="0" xMax="557" yMax="700">
      <contour>
        <pt x="325" y="0" on="1"/>
        <pt x="227" y="0" on="1"/>
        <pt x="227" y="263" on="1"/>
        <pt x="3" y="700" on="1"/>
        <pt x="109" y="700" on="1"/>
        <pt x="238" y="429" on="1"/>
        <pt x="258" y="387" on="0"/>
        <pt x="266" y="339" on="1"/>
        <pt x="268" y="323" on="1"/>
        <pt x="284" y="323" on="1"/>
        <pt x="293" y="382" on="0"/>
        <pt x="316" y="429" on="1"/>
        <pt x="451" y="700" on="1"/>
        <pt x="557" y="700" on="1"/>
        <pt x="325" y="263" on="1"/>
      </contour>
    </TTGlyph>
    <TTGlyph name="Yacute" xMin="3" yMin="0" xMax="557" yMax="917">
      <contour>
        <pt x="325" y="0" on="1"/>
        <pt x="227" y="0" on="1"/>
        <pt x="227" y="263" on="1"/>
        <pt x="3" y="700" on="1"/>
        <pt x="109" y="700" on="1"/>
        <pt x="238" y="429" on="1"/>
        <pt x="258" y="387" on="0"/>
        <pt x="266" y="339" on="1"/>
        <pt x="268" y="323" on="1"/>
        <pt x="284" y="323" on="1"/>
        <pt x="293" y="382" on="0"/>
        <pt x="316" y="429" on="1"/>
        <pt x="451" y="700" on="1"/>
        <pt x="557" y="700" on="1"/>
        <pt x="325" y="263" on="1"/>
      </contour>
      <contour>
        <pt x="433" y="852" on="1"/>
        <pt x="433" y="822" on="0"/>
        <pt x="391" y="811" on="1"/>
        <pt x="206" y="760" on="1"/>
        <pt x="183" y="810" on="1"/>
        <pt x="406" y="917" on="1"/>
        <pt x="429" y="867" on="1"/>
        <pt x="433" y="859" on="0"/>
      </contour>
    </TTGlyph>
    <TTGlyph name="Ycircumflex" xMin="3" yMin="0" xMax="557" yMax="898">
      <contour>
        <pt x="325" y="0" on="1"/>
        <pt x="227" y="0" on="1"/>
        <pt x="227" y="263" on="1"/>
        <pt x="3" y="700" on="1"/>
        <pt x="109" y="700" on="1"/>
        <pt x="238" y="429" on="1"/>
        <pt x="258" y="387" on="0"/>
        <pt x="266" y="339" on="1"/>
        <pt x="268" y="323" on="1"/>
        <pt x="284" y="323" on="1"/>
        <pt x="293" y="382" on="0"/>
        <pt x="316" y="429" on="1"/>
        <pt x="451" y="700" on="1"/>
        <pt x="557" y="700" on="1"/>
        <pt x="325" y="263" on="1"/>
      </contour>
      <contour>
        <pt x="106" y="770" on="1"/>
        <pt x="231" y="898" on="1"/>
        <pt x="324" y="898" on="1"/>
        <pt x="449" y="770" on="1"/>
        <pt x="413" y="738" on="1"/>
        <pt x="277" y="836" on="1"/>
        <pt x="142" y="738" on="1"/>
      </contour>
    </TTGlyph>
    <TTGlyph name="Ydieresis" xMin="3" yMin="0" xMax="557" yMax="892">
      <contour>
        <pt x="325" y="0" on="1"/>
        <pt x="227" y="0" on="1"/>
        <pt x="227" y="263" on="1"/>
        <pt x="3" y="700" on="1"/>
        <pt x="109" y="700" on="1"/>
        <pt x="238" y="429" on="1"/>
        <pt x="258" y="387" on="0"/>
        <pt x="266" y="339" on="1"/>
        <pt x="268" y="323" on="1"/>
        <pt x="284" y="323" on="1"/>
        <pt x="293" y="382" on="0"/>
        <pt x="316" y="429" on="1"/>
        <pt x="451" y="700" on="1"/>
        <pt x="557" y="700" on="1"/>
        <pt x="325" y="263" on="1"/>
      </contour>
      <contour>
        <pt x="123" y="807" on="0"/>
        <pt x="123" y="857" on="0"/>
        <pt x="159" y="892" on="0"/>
        <pt x="208" y="892" on="0"/>
        <pt x="243" y="857" on="0"/>
        <pt x="243" y="807" on="0"/>
        <pt x="208" y="772" on="0"/>
        <pt x="159" y="772" on="0"/>
      </contour>
      <contour>
        <pt x="426" y="857" on="0"/>
        <pt x="426" y="807" on="0"/>
        <pt x="390" y="772" on="0"/>
        <pt x="341" y="772" on="0"/>
        <pt x="306" y="807" on="0"/>
        <pt x="306" y="857" on="0"/>
        <pt x="341" y="892" on="0"/>
        <pt x="390" y="892" on="0"/>
      </contour>
    </TTGlyph>
    <TTGlyph name="Ygrave" xMin="3" yMin="0" xMax="557" yMax="917">
      <contour>
        <pt x="325" y="0" on="1"/>
        <pt x="227" y="0" on="1"/>
        <pt x="227" y="263" on="1"/>
        <pt x="3" y="700" on="1"/>
        <pt x="109" y="700" on="1"/>
        <pt x="238" y="429" on="1"/>
        <pt x="258" y="387" on="0"/>
        <pt x="266" y="339" on="1"/>
        <pt x="268" y="323" on="1"/>
        <pt x="284" y="323" on="1"/>
        <pt x="293" y="382" on="0"/>
        <pt x="316" y="429" on="1"/>
        <pt x="451" y="700" on="1"/>
        <pt x="557" y="700" on="1"/>
        <pt x="325" y="263" on="1"/>
      </contour>
      <contour>
        <pt x="139" y="852" on="1"/>
        <pt x="139" y="859" on="0"/>
        <pt x="143" y="867" on="1"/>
        <pt x="166" y="917" on="1"/>
        <pt x="389" y="810" on="1"/>
        <pt x="366" y="760" on="1"/>
        <pt x="181" y="811" on="1"/>
        <pt x="139" y="822" on="0"/>
      </contour>
    </TTGlyph>
    <TTGlyph name="Ysmallcap" xMin="3" yMin="0" xMax="477" yMax="546">
      <contour>
        <pt x="284" y="0" on="1"/>
        <pt x="189" y="0" on="1"/>
        <pt x="189" y="205" on="1"/>
        <pt x="3" y="546" on="1"/>
        <pt x="103" y="546" on="1"/>
        <pt x="206" y="349" on="1"/>
        <pt x="222" y="318" on="0"/>
        <pt x="228" y="283" on="1"/>
        <pt x="230" y="272" on="1"/>
        <pt x="243" y="272" on="1"/>
        <pt x="250" y="312" on="0"/>
        <pt x="270" y="349" on="1"/>
        <pt x="378" y="546" on="1"/>
        <pt x="477" y="546" on="1"/>
        <pt x="284" y="205" on="1"/>
      </contour>
    </TTGlyph>
    <TTGlyph name="Z" xMin="25" yMin="0" xMax="515" yMax="700">
      <contour>
        <pt x="242" y="86" on="1"/>
        <pt x="515" y="86" on="1"/>
        <pt x="515" y="0" on="1"/>
        <pt x="25" y="0" on="1"/>
        <pt x="25" y="86" on="1"/>
        <pt x="321" y="529" on="1"/>
        <pt x="349" y="571" on="0"/>
        <pt x="386" y="608" on="1"/>
        <pt x="399" y="621" on="1"/>
        <pt x="390" y="637" on="1"/>
        <pt x="341" y="618" on="0"/>
        <pt x="290" y="618" on="1"/>
        <pt x="53" y="618" on="1"/>
        <pt x="53" y="700" on="1"/>
        <pt x="494" y="700" on="1"/>
        <pt x="494" y="618" on="1"/>
        <pt x="195" y="175" on="1"/>
        <pt x="169" y="136" on="0"/>
        <pt x="130" y="95" on="1"/>
        <pt x="117" y="82" on="1"/>
        <pt x="126" y="66" on="1"/>
        <pt x="170" y="86" on="0"/>
      </contour>
    </TTGlyph>
    <TTGlyph name="Zacute" xMin="25" yMin="0" xMax="515" yMax="917">
      <contour>
        <pt x="242" y="86" on="1"/>
        <pt x="515" y="86" on="1"/>
        <pt x="515" y="0" on="1"/>
        <pt x="25" y="0" on="1"/>
        <pt x="25" y="86" on="1"/>
        <pt x="321" y="529" on="1"/>
        <pt x="349" y="571" on="0"/>
        <pt x="386" y="608" on="1"/>
        <pt x="399" y="621" on="1"/>
        <pt x="390" y="637" on="1"/>
        <pt x="341" y="618" on="0"/>
        <pt x="290" y="618" on="1"/>
        <pt x="53" y="618" on="1"/>
        <pt x="53" y="700" on="1"/>
        <pt x="494" y="700" on="1"/>
        <pt x="494" y="618" on="1"/>
        <pt x="195" y="175" on="1"/>
        <pt x="169" y="136" on="0"/>
        <pt x="130" y="95" on="1"/>
        <pt x="117" y="82" on="1"/>
        <pt x="126" y="66" on="1"/>
        <pt x="170" y="86" on="0"/>
      </contour>
      <contour>
        <pt x="427" y="852" on="1"/>
        <pt x="427" y="822" on="0"/>
        <pt x="385" y="811" on="1"/>
        <pt x="200" y="760" on="1"/>
        <pt x="177" y="810" on="1"/>
        <pt x="400" y="917" on="1"/>
        <pt x="423" y="867" on="1"/>
        <pt x="427" y="859" on="0"/>
      </contour>
    </TTGlyph>
    <TTGlyph name="Zcaron" xMin="25" yMin="0" xMax="515" yMax="923">
      <contour>
        <pt x="242" y="86" on="1"/>
        <pt x="515" y="86" on="1"/>
        <pt x="515" y="0" on="1"/>
        <pt x="25" y="0" on="1"/>
        <pt x="25" y="86" on="1"/>
        <pt x="321" y="529" on="1"/>
        <pt x="349" y="571" on="0"/>
        <pt x="386" y="608" on="1"/>
        <pt x="399" y="621" on="1"/>
        <pt x="390" y="637" on="1"/>
        <pt x="341" y="618" on="0"/>
        <pt x="290" y="618" on="1"/>
        <pt x="53" y="618" on="1"/>
        <pt x="53" y="700" on="1"/>
        <pt x="494" y="700" on="1"/>
        <pt x="494" y="618" on="1"/>
        <pt x="195" y="175" on="1"/>
        <pt x="169" y="136" on="0"/>
        <pt x="130" y="95" on="1"/>
        <pt x="117" y="82" on="1"/>
        <pt x="126" y="66" on="1"/>
        <pt x="170" y="86" on="0"/>
      </contour>
      <contour>
        <pt x="224" y="763" on="1"/>
        <pt x="99" y="891" on="1"/>
        <pt x="135" y="923" on="1"/>
        <pt x="270" y="825" on="1"/>
        <pt x="406" y="923" on="1"/>
        <pt x="442" y="891" on="1"/>
        <pt x="317" y="763" on="1"/>
      </contour>
    </TTGlyph>
    <TTGlyph name="Zdotaccent" xMin="25" yMin="0" xMax="515" yMax="915">
      <contour>
        <pt x="242" y="86" on="1"/>
        <pt x="515" y="86" on="1"/>
        <pt x="515" y="0" on="1"/>
        <pt x="25" y="0" on="1"/>
        <pt x="25" y="86" on="1"/>
        <pt x="321" y="529" on="1"/>
        <pt x="349" y="571" on="0"/>
        <pt x="386" y="608" on="1"/>
        <pt x="399" y="621" on="1"/>
        <pt x="390" y="637" on="1"/>
        <pt x="341" y="618" on="0"/>
        <pt x="290" y="618" on="1"/>
        <pt x="53" y="618" on="1"/>
        <pt x="53" y="700" on="1"/>
        <pt x="494" y="700" on="1"/>
        <pt x="494" y="618" on="1"/>
        <pt x="195" y="175" on="1"/>
        <pt x="169" y="136" on="0"/>
        <pt x="130" y="95" on="1"/>
        <pt x="117" y="82" on="1"/>
        <pt x="126" y="66" on="1"/>
        <pt x="170" y="86" on="0"/>
      </contour>
      <contour>
        <pt x="197" y="815" on="0"/>
        <pt x="197" y="873" on="0"/>
        <pt x="239" y="915" on="0"/>
        <pt x="297" y="915" on="0"/>
        <pt x="339" y="873" on="0"/>
        <pt x="339" y="815" on="0"/>
        <pt x="297" y="773" on="0"/>
        <pt x="239" y="773" on="0"/>
      </contour>
    </TTGlyph>
    <TTGlyph name="a" xMin="57" yMin="-12" xMax="514" yMax="528">
      <contour>
        <pt x="476" y="358" on="1"/>
        <pt x="476" y="123" on="1"/>
        <pt x="476" y="89" on="0"/>
        <pt x="490" y="60" on="0"/>
        <pt x="514" y="53" on="1"/>
        <pt x="500" y="-7" on="1"/>
        <pt x="493" y="-12" on="0"/>
        <pt x="446" y="-11" on="0"/>
        <pt x="416" y="6" on="0"/>
        <pt x="402" y="31" on="1"/>
        <pt x="387" y="58" on="1"/>
        <pt x="371" y="58" on="1"/>
        <pt x="318" y="-12" on="0"/>
        <pt x="224" y="-12" on="1"/>
        <pt x="147" y="-12" on="0"/>
        <pt x="57" y="69" on="0"/>
        <pt x="57" y="223" on="0"/>
        <pt x="157" y="299" on="0"/>
        <pt x="263" y="307" on="1"/>
        <pt x="377" y="316" on="1"/>
        <pt x="377" y="349" on="1"/>
        <pt x="377" y="409" on="0"/>
        <pt x="325" y="460" on="0"/>
        <pt x="204" y="460" on="0"/>
        <pt x="114" y="438" on="1"/>
        <pt x="96" y="497" on="1"/>
        <pt x="130" y="510" on="0"/>
        <pt x="234" y="528" on="0"/>
        <pt x="272" y="528" on="1"/>
        <pt x="373" y="528" on="0"/>
        <pt x="476" y="447" on="0"/>
      </contour>
      <contour>
        <pt x="377" y="165" on="1"/>
        <pt x="377" y="254" on="1"/>
        <pt x="281" y="247" on="1"/>
        <pt x="159" y="238" on="0"/>
        <pt x="159" y="150" on="1"/>
        <pt x="159" y="56" on="0"/>
        <pt x="253" y="56" on="1"/>
        <pt x="306" y="56" on="0"/>
        <pt x="377" y="107" on="0"/>
      </contour>
    </TTGlyph>
    <TTGlyph name="aacute" xMin="57" yMin="-12" xMax="514" yMax="777">
      <contour>
        <pt x="476" y="358" on="1"/>
        <pt x="476" y="123" on="1"/>
        <pt x="476" y="89" on="0"/>
        <pt x="490" y="60" on="0"/>
        <pt x="514" y="53" on="1"/>
        <pt x="500" y="-7" on="1"/>
        <pt x="493" y="-12" on="0"/>
        <pt x="446" y="-11" on="0"/>
        <pt x="416" y="6" on="0"/>
        <pt x="402" y="31" on="1"/>
        <pt x="387" y="58" on="1"/>
        <pt x="371" y="58" on="1"/>
        <pt x="318" y="-12" on="0"/>
        <pt x="224" y="-12" on="1"/>
        <pt x="147" y="-12" on="0"/>
        <pt x="57" y="69" on="0"/>
        <pt x="57" y="223" on="0"/>
        <pt x="157" y="299" on="0"/>
        <pt x="263" y="307" on="1"/>
        <pt x="377" y="316" on="1"/>
        <pt x="377" y="349" on="1"/>
        <pt x="377" y="409" on="0"/>
        <pt x="325" y="460" on="0"/>
        <pt x="204" y="460" on="0"/>
        <pt x="114" y="438" on="1"/>
        <pt x="96" y="497" on="1"/>
        <pt x="130" y="510" on="0"/>
        <pt x="234" y="528" on="0"/>
        <pt x="272" y="528" on="1"/>
        <pt x="373" y="528" on="0"/>
        <pt x="476" y="447" on="0"/>
      </contour>
      <contour>
        <pt x="377" y="165" on="1"/>
        <pt x="377" y="254" on="1"/>
        <pt x="281" y="247" on="1"/>
        <pt x="159" y="238" on="0"/>
        <pt x="159" y="150" on="1"/>
        <pt x="159" y="56" on="0"/>
        <pt x="253" y="56" on="1"/>
        <pt x="306" y="56" on="0"/>
        <pt x="377" y="107" on="0"/>
      </contour>
      <contour>
        <pt x="402" y="711" on="1"/>
        <pt x="402" y="684" on="0"/>
        <pt x="368" y="669" on="1"/>
        <pt x="194" y="587" on="1"/>
        <pt x="163" y="632" on="1"/>
        <pt x="363" y="777" on="1"/>
        <pt x="395" y="732" on="1"/>
        <pt x="402" y="722" on="0"/>
      </contour>
    </TTGlyph>
    <TTGlyph name="abreve" xMin="57" yMin="-12" xMax="514" yMax="761">
      <contour>
        <pt x="476" y="358" on="1"/>
        <pt x="476" y="123" on="1"/>
        <pt x="476" y="89" on="0"/>
        <pt x="490" y="60" on="0"/>
        <pt x="514" y="53" on="1"/>
        <pt x="500" y="-7" on="1"/>
        <pt x="493" y="-12" on="0"/>
        <pt x="446" y="-11" on="0"/>
        <pt x="416" y="6" on="0"/>
        <pt x="402" y="31" on="1"/>
        <pt x="387" y="58" on="1"/>
        <pt x="371" y="58" on="1"/>
        <pt x="318" y="-12" on="0"/>
        <pt x="224" y="-12" on="1"/>
        <pt x="147" y="-12" on="0"/>
        <pt x="57" y="69" on="0"/>
        <pt x="57" y="223" on="0"/>
        <pt x="157" y="299" on="0"/>
        <pt x="263" y="307" on="1"/>
        <pt x="377" y="316" on="1"/>
        <pt x="377" y="349" on="1"/>
        <pt x="377" y="409" on="0"/>
        <pt x="325" y="460" on="0"/>
        <pt x="204" y="460" on="0"/>
        <pt x="114" y="438" on="1"/>
        <pt x="96" y="497" on="1"/>
        <pt x="130" y="510" on="0"/>
        <pt x="234" y="528" on="0"/>
        <pt x="272" y="528" on="1"/>
        <pt x="373" y="528" on="0"/>
        <pt x="476" y="447" on="0"/>
      </contour>
      <contour>
        <pt x="377" y="165" on="1"/>
        <pt x="377" y="254" on="1"/>
        <pt x="281" y="247" on="1"/>
        <pt x="159" y="238" on="0"/>
        <pt x="159" y="150" on="1"/>
        <pt x="159" y="56" on="0"/>
        <pt x="253" y="56" on="1"/>
        <pt x="306" y="56" on="0"/>
        <pt x="377" y="107" on="0"/>
      </contour>
      <contour>
        <pt x="466" y="605" on="0"/>
        <pt x="102" y="605" on="0"/>
        <pt x="102" y="752" on="1"/>
        <pt x="159" y="761" on="1"/>
        <pt x="166" y="706" on="0"/>
        <pt x="221" y="669" on="0"/>
        <pt x="347" y="669" on="0"/>
        <pt x="402" y="706" on="0"/>
        <pt x="409" y="761" on="1"/>
        <pt x="466" y="752" on="1"/>
      </contour>
    </TTGlyph>
    <TTGlyph name="acircumflex" xMin="57" yMin="-12" xMax="514" yMax="759">
      <contour>
        <pt x="476" y="358" on="1"/>
        <pt x="476" y="123" on="1"/>
        <pt x="476" y="89" on="0"/>
        <pt x="490" y="60" on="0"/>
        <pt x="514" y="53" on="1"/>
        <pt x="500" y="-7" on="1"/>
        <pt x="493" y="-12" on="0"/>
        <pt x="446" y="-11" on="0"/>
        <pt x="416" y="6" on="0"/>
        <pt x="402" y="31" on="1"/>
        <pt x="387" y="58" on="1"/>
        <pt x="371" y="58" on="1"/>
        <pt x="318" y="-12" on="0"/>
        <pt x="224" y="-12" on="1"/>
        <pt x="147" y="-12" on="0"/>
        <pt x="57" y="69" on="0"/>
        <pt x="57" y="223" on="0"/>
        <pt x="157" y="299" on="0"/>
        <pt x="263" y="307" on="1"/>
        <pt x="377" y="316" on="1"/>
        <pt x="377" y="349" on="1"/>
        <pt x="377" y="409" on="0"/>
        <pt x="325" y="460" on="0"/>
        <pt x="204" y="460" on="0"/>
        <pt x="114" y="438" on="1"/>
        <pt x="96" y="497" on="1"/>
        <pt x="130" y="510" on="0"/>
        <pt x="234" y="528" on="0"/>
        <pt x="272" y="528" on="1"/>
        <pt x="373" y="528" on="0"/>
        <pt x="476" y="447" on="0"/>
      </contour>
      <contour>
        <pt x="377" y="165" on="1"/>
        <pt x="377" y="254" on="1"/>
        <pt x="281" y="247" on="1"/>
        <pt x="159" y="238" on="0"/>
        <pt x="159" y="150" on="1"/>
        <pt x="159" y="56" on="0"/>
        <pt x="253" y="56" on="1"/>
        <pt x="306" y="56" on="0"/>
        <pt x="377" y="107" on="0"/>
      </contour>
      <contour>
        <pt x="113" y="611" on="1"/>
        <pt x="238" y="759" on="1"/>
        <pt x="331" y="759" on="1"/>
        <pt x="456" y="611" on="1"/>
        <pt x="420" y="579" on="1"/>
        <pt x="284" y="692" on="1"/>
        <pt x="149" y="579" on="1"/>
      </contour>
    </TTGlyph>
    <TTGlyph name="acute" xMin="38" yMin="587" xMax="277" yMax="777">
      <contour>
        <pt x="277" y="711" on="1"/>
        <pt x="277" y="684" on="0"/>
        <pt x="243" y="669" on="1"/>
        <pt x="69" y="587" on="1"/>
        <pt x="38" y="632" on="1"/>
        <pt x="238" y="777" on="1"/>
        <pt x="270" y="732" on="1"/>
        <pt x="277" y="722" on="0"/>
      </contour>
    </TTGlyph>
    <TTGlyph name="acute.cap" xMin="24" yMin="760" xMax="274" yMax="917">
      <contour>
        <pt x="274" y="852" on="1"/>
        <pt x="274" y="822" on="0"/>
        <pt x="232" y="811" on="1"/>
        <pt x="47" y="760" on="1"/>
        <pt x="24" y="810" on="1"/>
        <pt x="247" y="917" on="1"/>
        <pt x="270" y="867" on="1"/>
        <pt x="274" y="859" on="0"/>
      </contour>
    </TTGlyph>
    <TTGlyph name="acutecomb" xMin="-412" yMin="587" xMax="-173" yMax="777">
      <contour>
        <pt x="-173" y="711" on="1"/>
        <pt x="-173" y="684" on="0"/>
        <pt x="-207" y="669" on="1"/>
        <pt x="-381" y="587" on="1"/>
        <pt x="-412" y="632" on="1"/>
        <pt x="-212" y="777" on="1"/>
        <pt x="-180" y="732" on="1"/>
        <pt x="-173" y="722" on="0"/>
      </contour>
    </TTGlyph>
    <TTGlyph name="adieresis" xMin="57" yMin="-12" xMax="514" yMax="728">
      <contour>
        <pt x="476" y="358" on="1"/>
        <pt x="476" y="123" on="1"/>
        <pt x="476" y="89" on="0"/>
        <pt x="490" y="60" on="0"/>
        <pt x="514" y="53" on="1"/>
        <pt x="500" y="-7" on="1"/>
        <pt x="493" y="-12" on="0"/>
        <pt x="446" y="-11" on="0"/>
        <pt x="416" y="6" on="0"/>
        <pt x="402" y="31" on="1"/>
        <pt x="387" y="58" on="1"/>
        <pt x="371" y="58" on="1"/>
        <pt x="318" y="-12" on="0"/>
        <pt x="224" y="-12" on="1"/>
        <pt x="147" y="-12" on="0"/>
        <pt x="57" y="69" on="0"/>
        <pt x="57" y="223" on="0"/>
        <pt x="157" y="299" on="0"/>
        <pt x="263" y="307" on="1"/>
        <pt x="377" y="316" on="1"/>
        <pt x="377" y="349" on="1"/>
        <pt x="377" y="409" on="0"/>
        <pt x="325" y="460" on="0"/>
        <pt x="204" y="460" on="0"/>
        <pt x="114" y="438" on="1"/>
        <pt x="96" y="497" on="1"/>
        <pt x="130" y="510" on="0"/>
        <pt x="234" y="528" on="0"/>
        <pt x="272" y="528" on="1"/>
        <pt x="373" y="528" on="0"/>
        <pt x="476" y="447" on="0"/>
      </contour>
      <contour>
        <pt x="377" y="165" on="1"/>
        <pt x="377" y="254" on="1"/>
        <pt x="281" y="247" on="1"/>
        <pt x="159" y="238" on="0"/>
        <pt x="159" y="150" on="1"/>
        <pt x="159" y="56" on="0"/>
        <pt x="253" y="56" on="1"/>
        <pt x="306" y="56" on="0"/>
        <pt x="377" y="107" on="0"/>
      </contour>
      <contour>
        <pt x="118" y="643" on="0"/>
        <pt x="118" y="693" on="0"/>
        <pt x="154" y="728" on="0"/>
        <pt x="203" y="728" on="0"/>
        <pt x="238" y="693" on="0"/>
        <pt x="238" y="643" on="0"/>
        <pt x="203" y="608" on="0"/>
        <pt x="154" y="608" on="0"/>
      </contour>
      <contour>
        <pt x="452" y="693" on="0"/>
        <pt x="452" y="643" on="0"/>
        <pt x="416" y="608" on="0"/>
        <pt x="367" y="608" on="0"/>
        <pt x="332" y="643" on="0"/>
        <pt x="332" y="693" on="0"/>
        <pt x="367" y="728" on="0"/>
        <pt x="416" y="728" on="0"/>
      </contour>
    </TTGlyph>
    <TTGlyph name="ae" xMin="57" yMin="-12" xMax="813" yMax="528">
      <contour>
        <pt x="597" y="528" on="1"/>
        <pt x="813" y="528" on="0"/>
        <pt x="813" y="284" on="1"/>
        <pt x="813" y="247" on="1"/>
        <pt x="476" y="247" on="1"/>
        <pt x="476" y="59" on="0"/>
        <pt x="617" y="59" on="1"/>
        <pt x="691" y="59" on="0"/>
        <pt x="774" y="87" on="1"/>
        <pt x="794" y="27" on="1"/>
        <pt x="703" y="-12" on="0"/>
        <pt x="610" y="-12" on="1"/>
        <pt x="481" y="-12" on="0"/>
        <pt x="421" y="70" on="1"/>
        <pt x="405" y="70" on="1"/>
        <pt x="349" y="-12" on="0"/>
        <pt x="153" y="-12" on="0"/>
        <pt x="57" y="68" on="0"/>
        <pt x="57" y="222" on="0"/>
        <pt x="160" y="297" on="0"/>
        <pt x="265" y="303" on="1"/>
        <pt x="377" y="309" on="1"/>
        <pt x="377" y="349" on="1"/>
        <pt x="377" y="409" on="0"/>
        <pt x="325" y="460" on="0"/>
        <pt x="204" y="460" on="0"/>
        <pt x="114" y="438" on="1"/>
        <pt x="96" y="497" on="1"/>
        <pt x="175" y="528" on="0"/>
        <pt x="272" y="528" on="1"/>
        <pt x="393" y="528" on="0"/>
        <pt x="433" y="466" on="1"/>
        <pt x="449" y="466" on="1"/>
        <pt x="481" y="502" on="0"/>
        <pt x="549" y="528" on="0"/>
      </contour>
      <contour>
        <pt x="377" y="165" on="1"/>
        <pt x="377" y="247" on="1"/>
        <pt x="281" y="243" on="1"/>
        <pt x="159" y="239" on="0"/>
        <pt x="159" y="150" on="1"/>
        <pt x="159" y="56" on="0"/>
        <pt x="253" y="56" on="1"/>
        <pt x="306" y="56" on="0"/>
        <pt x="377" y="107" on="0"/>
      </contour>
      <contour>
        <pt x="713" y="309" on="1"/>
        <pt x="713" y="380" on="0"/>
        <pt x="662" y="461" on="0"/>
        <pt x="530" y="461" on="0"/>
        <pt x="480" y="381" on="0"/>
        <pt x="476" y="309" on="1"/>
      </contour>
    </TTGlyph>
    <TTGlyph name="aeacute" xMin="68" yMin="-12" xMax="824" yMax="777">
      <contour>
        <pt x="608" y="528" on="1"/>
        <pt x="824" y="528" on="0"/>
        <pt x="824" y="284" on="1"/>
        <pt x="824" y="247" on="1"/>
        <pt x="487" y="247" on="1"/>
        <pt x="487" y="59" on="0"/>
        <pt x="628" y="59" on="1"/>
        <pt x="702" y="59" on="0"/>
        <pt x="785" y="87" on="1"/>
        <pt x="805" y="27" on="1"/>
        <pt x="714" y="-12" on="0"/>
        <pt x="621" y="-12" on="1"/>
        <pt x="492" y="-12" on="0"/>
        <pt x="432" y="70" on="1"/>
        <pt x="416" y="70" on="1"/>
        <pt x="360" y="-12" on="0"/>
        <pt x="164" y="-12" on="0"/>
        <pt x="68" y="68" on="0"/>
        <pt x="68" y="222" on="0"/>
        <pt x="171" y="297" on="0"/>
        <pt x="276" y="303" on="1"/>
        <pt x="388" y="309" on="1"/>
        <pt x="388" y="349" on="1"/>
        <pt x="388" y="409" on="0"/>
        <pt x="336" y="460" on="0"/>
        <pt x="215" y="460" on="0"/>
        <pt x="125" y="438" on="1"/>
        <pt x="107" y="497" on="1"/>
        <pt x="186" y="528" on="0"/>
        <pt x="283" y="528" on="1"/>
        <pt x="404" y="528" on="0"/>
        <pt x="444" y="466" on="1"/>
        <pt x="460" y="466" on="1"/>
        <pt x="492" y="502" on="0"/>
        <pt x="560" y="528" on="0"/>
      </contour>
      <contour>
        <pt x="388" y="165" on="1"/>
        <pt x="388" y="247" on="1"/>
        <pt x="292" y="243" on="1"/>
        <pt x="170" y="239" on="0"/>
        <pt x="170" y="150" on="1"/>
        <pt x="170" y="56" on="0"/>
        <pt x="264" y="56" on="1"/>
        <pt x="317" y="56" on="0"/>
        <pt x="388" y="107" on="0"/>
      </contour>
      <contour>
        <pt x="724" y="309" on="1"/>
        <pt x="724" y="380" on="0"/>
        <pt x="673" y="461" on="0"/>
        <pt x="541" y="461" on="0"/>
        <pt x="491" y="381" on="0"/>
        <pt x="487" y="309" on="1"/>
      </contour>
      <contour>
        <pt x="646" y="711" on="1"/>
        <pt x="646" y="684" on="0"/>
        <pt x="612" y="669" on="1"/>
        <pt x="438" y="587" on="1"/>
        <pt x="407" y="632" on="1"/>
        <pt x="607" y="777" on="1"/>
        <pt x="639" y="732" on="1"/>
        <pt x="646" y="722" on="0"/>
      </contour>
    </TTGlyph>
    <TTGlyph name="afii08941" xMin="40" yMin="0" xMax="522" yMax="712">
      <contour>
        <pt x="210" y="378" on="1"/>
        <pt x="214" y="338" on="0"/>
        <pt x="214" y="319" on="1"/>
        <pt x="398" y="319" on="1"/>
        <pt x="398" y="256" on="1"/>
        <pt x="218" y="256" on="1"/>
        <pt x="221" y="220" on="0"/>
        <pt x="221" y="201" on="1"/>
        <pt x="221" y="118" on="0"/>
        <pt x="162" y="87" on="1"/>
        <pt x="171" y="71" on="1"/>
        <pt x="206" y="82" on="0"/>
        <pt x="246" y="82" on="1"/>
        <pt x="522" y="82" on="1"/>
        <pt x="522" y="0" on="1"/>
        <pt x="42" y="0" on="1"/>
        <pt x="42" y="83" on="1"/>
        <pt x="80" y="101" on="0"/>
        <pt x="122" y="157" on="0"/>
        <pt x="122" y="204" on="0"/>
        <pt x="120" y="256" on="1"/>
        <pt x="40" y="256" on="1"/>
        <pt x="40" y="319" on="1"/>
        <pt x="117" y="319" on="1"/>
        <pt x="116" y="338" on="0"/>
        <pt x="114" y="378" on="1"/>
        <pt x="40" y="378" on="1"/>
        <pt x="40" y="441" on="1"/>
        <pt x="110" y="441" on="1"/>
        <pt x="107" y="500" on="0"/>
        <pt x="107" y="534" on="1"/>
        <pt x="107" y="610" on="0"/>
        <pt x="225" y="712" on="0"/>
        <pt x="315" y="712" on="1"/>
        <pt x="352" y="712" on="0"/>
        <pt x="391" y="704" on="0"/>
        <pt x="412" y="700" on="0"/>
        <pt x="426" y="696" on="1"/>
        <pt x="445" y="689" on="1"/>
        <pt x="475" y="679" on="0"/>
        <pt x="479" y="677" on="1"/>
        <pt x="459" y="607" on="1"/>
        <pt x="378" y="634" on="0"/>
        <pt x="254" y="634" on="0"/>
        <pt x="206" y="572" on="0"/>
        <pt x="206" y="466" on="0"/>
        <pt x="207" y="441" on="1"/>
        <pt x="398" y="441" on="1"/>
        <pt x="398" y="378" on="1"/>
      </contour>
    </TTGlyph>
    <TTGlyph name="agrave" xMin="57" yMin="-12" xMax="514" yMax="778">
      <contour>
        <pt x="476" y="358" on="1"/>
        <pt x="476" y="123" on="1"/>
        <pt x="476" y="89" on="0"/>
        <pt x="490" y="60" on="0"/>
        <pt x="514" y="53" on="1"/>
        <pt x="500" y="-7" on="1"/>
        <pt x="493" y="-12" on="0"/>
        <pt x="446" y="-11" on="0"/>
        <pt x="416" y="6" on="0"/>
        <pt x="402" y="31" on="1"/>
        <pt x="387" y="58" on="1"/>
        <pt x="371" y="58" on="1"/>
        <pt x="318" y="-12" on="0"/>
        <pt x="224" y="-12" on="1"/>
        <pt x="147" y="-12" on="0"/>
        <pt x="57" y="69" on="0"/>
        <pt x="57" y="223" on="0"/>
        <pt x="157" y="299" on="0"/>
        <pt x="263" y="307" on="1"/>
        <pt x="377" y="316" on="1"/>
        <pt x="377" y="349" on="1"/>
        <pt x="377" y="409" on="0"/>
        <pt x="325" y="460" on="0"/>
        <pt x="204" y="460" on="0"/>
        <pt x="114" y="438" on="1"/>
        <pt x="96" y="497" on="1"/>
        <pt x="130" y="510" on="0"/>
        <pt x="234" y="528" on="0"/>
        <pt x="272" y="528" on="1"/>
        <pt x="373" y="528" on="0"/>
        <pt x="476" y="447" on="0"/>
      </contour>
      <contour>
        <pt x="377" y="165" on="1"/>
        <pt x="377" y="254" on="1"/>
        <pt x="281" y="247" on="1"/>
        <pt x="159" y="238" on="0"/>
        <pt x="159" y="150" on="1"/>
        <pt x="159" y="56" on="0"/>
        <pt x="253" y="56" on="1"/>
        <pt x="306" y="56" on="0"/>
        <pt x="377" y="107" on="0"/>
      </contour>
      <contour>
        <pt x="146" y="712" on="1"/>
        <pt x="146" y="723" on="0"/>
        <pt x="153" y="733" on="1"/>
        <pt x="185" y="778" on="1"/>
        <pt x="385" y="633" on="1"/>
        <pt x="354" y="588" on="1"/>
        <pt x="180" y="670" on="1"/>
        <pt x="146" y="685" on="0"/>
      </contour>
    </TTGlyph>
    <TTGlyph name="amacron" xMin="57" yMin="-12" xMax="514" yMax="706">
      <contour>
        <pt x="476" y="358" on="1"/>
        <pt x="476" y="123" on="1"/>
        <pt x="476" y="89" on="0"/>
        <pt x="490" y="60" on="0"/>
        <pt x="514" y="53" on="1"/>
        <pt x="500" y="-7" on="1"/>
        <pt x="493" y="-12" on="0"/>
        <pt x="446" y="-11" on="0"/>
        <pt x="416" y="6" on="0"/>
        <pt x="402" y="31" on="1"/>
        <pt x="387" y="58" on="1"/>
        <pt x="371" y="58" on="1"/>
        <pt x="318" y="-12" on="0"/>
        <pt x="224" y="-12" on="1"/>
        <pt x="147" y="-12" on="0"/>
        <pt x="57" y="69" on="0"/>
        <pt x="57" y="223" on="0"/>
        <pt x="157" y="299" on="0"/>
        <pt x="263" y="307" on="1"/>
        <pt x="377" y="316" on="1"/>
        <pt x="377" y="349" on="1"/>
        <pt x="377" y="409" on="0"/>
        <pt x="325" y="460" on="0"/>
        <pt x="204" y="460" on="0"/>
        <pt x="114" y="438" on="1"/>
        <pt x="96" y="497" on="1"/>
        <pt x="130" y="510" on="0"/>
        <pt x="234" y="528" on="0"/>
        <pt x="272" y="528" on="1"/>
        <pt x="373" y="528" on="0"/>
        <pt x="476" y="447" on="0"/>
      </contour>
      <contour>
        <pt x="377" y="165" on="1"/>
        <pt x="377" y="254" on="1"/>
        <pt x="281" y="247" on="1"/>
        <pt x="159" y="238" on="0"/>
        <pt x="159" y="150" on="1"/>
        <pt x="159" y="56" on="0"/>
        <pt x="253" y="56" on="1"/>
        <pt x="306" y="56" on="0"/>
        <pt x="377" y="107" on="0"/>
      </contour>
      <contour>
        <pt x="126" y="637" on="1"/>
        <pt x="126" y="706" on="1"/>
        <pt x="440" y="706" on="1"/>
        <pt x="440" y="637" on="1"/>
      </contour>
    </TTGlyph>
    <TTGlyph name="ampersand" xMin="57" yMin="-13" xMax="733" yMax="712">
      <contour>
        <pt x="251" y="629" on="0"/>
        <pt x="203" y="582" on="0"/>
        <pt x="203" y="506" on="0"/>
        <pt x="279" y="415" on="0"/>
        <pt x="358" y="352" on="1"/>
        <pt x="494" y="244" on="1"/>
        <pt x="505" y="300" on="0"/>
        <pt x="505" y="361" on="1"/>
        <pt x="505" y="396" on="1"/>
        <pt x="597" y="396" on="1"/>
        <pt x="597" y="349" on="1"/>
        <pt x="597" y="252" on="0"/>
        <pt x="575" y="179" on="1"/>
        <pt x="733" y="54" on="1"/>
        <pt x="664" y="-12" on="1"/>
        <pt x="535" y="93" on="1"/>
        <pt x="461" y="-13" on="0"/>
        <pt x="296" y="-13" on="1"/>
        <pt x="191" y="-13" on="0"/>
        <pt x="57" y="99" on="0"/>
        <pt x="57" y="194" on="1"/>
        <pt x="57" y="309" on="0"/>
        <pt x="192" y="377" on="1"/>
        <pt x="100" y="469" on="0"/>
        <pt x="100" y="629" on="0"/>
        <pt x="222" y="712" on="0"/>
        <pt x="377" y="712" on="0"/>
        <pt x="468" y="677" on="1"/>
        <pt x="438" y="599" on="1"/>
        <pt x="354" y="629" on="0"/>
      </contour>
      <contour>
        <pt x="309" y="66" on="1"/>
        <pt x="412" y="66" on="0"/>
        <pt x="461" y="153" on="1"/>
        <pt x="261" y="316" on="1"/>
        <pt x="213" y="304" on="0"/>
        <pt x="161" y="234" on="0"/>
        <pt x="161" y="138" on="0"/>
        <pt x="243" y="66" on="0"/>
      </contour>
    </TTGlyph>
    <TTGlyph name="aogonek" xMin="57" yMin="-220" xMax="526" yMax="528">
      <contour>
        <pt x="476" y="358" on="1"/>
        <pt x="476" y="123" on="1"/>
        <pt x="476" y="89" on="0"/>
        <pt x="490" y="60" on="0"/>
        <pt x="514" y="53" on="1"/>
        <pt x="500" y="-7" on="1"/>
        <pt x="498" y="-8" on="0"/>
        <pt x="495" y="-9" on="1"/>
        <pt x="401" y="-61" on="0"/>
        <pt x="401" y="-118" on="1"/>
        <pt x="401" y="-140" on="0"/>
        <pt x="429" y="-165" on="0"/>
        <pt x="476" y="-165" on="0"/>
        <pt x="497" y="-151" on="1"/>
        <pt x="526" y="-196" on="1"/>
        <pt x="485" y="-220" on="0"/>
        <pt x="390" y="-220" on="0"/>
        <pt x="334" y="-162" on="0"/>
        <pt x="334" y="-118" on="1"/>
        <pt x="334" y="-54" on="0"/>
        <pt x="419" y="6" on="1"/>
        <pt x="412" y="13" on="0"/>
        <pt x="402" y="31" on="1"/>
        <pt x="387" y="58" on="1"/>
        <pt x="371" y="58" on="1"/>
        <pt x="318" y="-12" on="0"/>
        <pt x="224" y="-12" on="1"/>
        <pt x="147" y="-12" on="0"/>
        <pt x="57" y="69" on="0"/>
        <pt x="57" y="223" on="0"/>
        <pt x="157" y="299" on="0"/>
        <pt x="263" y="307" on="1"/>
        <pt x="377" y="316" on="1"/>
        <pt x="377" y="349" on="1"/>
        <pt x="377" y="409" on="0"/>
        <pt x="325" y="460" on="0"/>
        <pt x="204" y="460" on="0"/>
        <pt x="114" y="438" on="1"/>
        <pt x="96" y="497" on="1"/>
        <pt x="130" y="510" on="0"/>
        <pt x="234" y="528" on="0"/>
        <pt x="272" y="528" on="1"/>
        <pt x="373" y="528" on="0"/>
        <pt x="476" y="447" on="0"/>
      </contour>
      <contour>
        <pt x="377" y="165" on="1"/>
        <pt x="377" y="254" on="1"/>
        <pt x="281" y="247" on="1"/>
        <pt x="159" y="238" on="0"/>
        <pt x="159" y="150" on="1"/>
        <pt x="159" y="56" on="0"/>
        <pt x="253" y="56" on="1"/>
        <pt x="306" y="56" on="0"/>
        <pt x="377" y="107" on="0"/>
      </contour>
    </TTGlyph>
    <TTGlyph name="approxequal" xMin="35" yMin="164" xMax="560" yMax="467">
      <contour>
        <pt x="445" y="348" on="1"/>
        <pt x="385" y="348" on="0"/>
        <pt x="195" y="392" on="0"/>
        <pt x="137" y="392" on="0"/>
        <pt x="112" y="380" on="0"/>
        <pt x="101" y="366" on="0"/>
        <pt x="90" y="350" on="1"/>
        <pt x="35" y="386" on="1"/>
        <pt x="75" y="467" on="0"/>
        <pt x="149" y="467" on="1"/>
        <pt x="208" y="467" on="0"/>
        <pt x="401" y="423" on="0"/>
        <pt x="432" y="423" on="1"/>
        <pt x="486" y="423" on="0"/>
        <pt x="504" y="463" on="1"/>
        <pt x="560" y="425" on="1"/>
        <pt x="522" y="348" on="0"/>
      </contour>
      <contour>
        <pt x="445" y="164" on="1"/>
        <pt x="385" y="164" on="0"/>
        <pt x="195" y="208" on="0"/>
        <pt x="137" y="208" on="0"/>
        <pt x="112" y="196" on="0"/>
        <pt x="101" y="182" on="0"/>
        <pt x="90" y="166" on="1"/>
        <pt x="35" y="202" on="1"/>
        <pt x="75" y="283" on="0"/>
        <pt x="149" y="283" on="1"/>
        <pt x="208" y="283" on="0"/>
        <pt x="401" y="239" on="0"/>
        <pt x="432" y="239" on="1"/>
        <pt x="486" y="239" on="0"/>
        <pt x="504" y="279" on="1"/>
        <pt x="560" y="241" on="1"/>
        <pt x="522" y="164" on="0"/>
      </contour>
    </TTGlyph>
    <TTGlyph name="aring" xMin="57" yMin="-12" xMax="514" yMax="772">
      <contour>
        <pt x="476" y="358" on="1"/>
        <pt x="476" y="123" on="1"/>
        <pt x="476" y="89" on="0"/>
        <pt x="490" y="60" on="0"/>
        <pt x="514" y="53" on="1"/>
        <pt x="500" y="-7" on="1"/>
        <pt x="493" y="-12" on="0"/>
        <pt x="446" y="-11" on="0"/>
        <pt x="416" y="6" on="0"/>
        <pt x="402" y="31" on="1"/>
        <pt x="387" y="58" on="1"/>
        <pt x="371" y="58" on="1"/>
        <pt x="318" y="-12" on="0"/>
        <pt x="224" y="-12" on="1"/>
        <pt x="147" y="-12" on="0"/>
        <pt x="57" y="69" on="0"/>
        <pt x="57" y="223" on="0"/>
        <pt x="157" y="299" on="0"/>
        <pt x="263" y="307" on="1"/>
        <pt x="377" y="316" on="1"/>
        <pt x="377" y="349" on="1"/>
        <pt x="377" y="409" on="0"/>
        <pt x="325" y="460" on="0"/>
        <pt x="204" y="460" on="0"/>
        <pt x="114" y="438" on="1"/>
        <pt x="96" y="497" on="1"/>
        <pt x="130" y="510" on="0"/>
        <pt x="234" y="528" on="0"/>
        <pt x="272" y="528" on="1"/>
        <pt x="373" y="528" on="0"/>
        <pt x="476" y="447" on="0"/>
      </contour>
      <contour>
        <pt x="377" y="165" on="1"/>
        <pt x="377" y="254" on="1"/>
        <pt x="281" y="247" on="1"/>
        <pt x="159" y="238" on="0"/>
        <pt x="159" y="150" on="1"/>
        <pt x="159" y="56" on="0"/>
        <pt x="253" y="56" on="1"/>
        <pt x="306" y="56" on="0"/>
        <pt x="377" y="107" on="0"/>
      </contour>
      <contour>
        <pt x="174" y="625" on="0"/>
        <pt x="174" y="713" on="0"/>
        <pt x="236" y="772" on="0"/>
        <pt x="326" y="772" on="0"/>
        <pt x="390" y="713" on="0"/>
        <pt x="390" y="625" on="0"/>
        <pt x="326" y="568" on="0"/>
        <pt x="236" y="568" on="0"/>
      </contour>
      <contour>
        <pt x="261" y="719" on="0"/>
        <pt x="233" y="691" on="0"/>
        <pt x="233" y="648" on="0"/>
        <pt x="261" y="621" on="0"/>
        <pt x="302" y="621" on="0"/>
        <pt x="331" y="648" on="0"/>
        <pt x="331" y="691" on="0"/>
        <pt x="302" y="719" on="0"/>
      </contour>
    </TTGlyph>
    <TTGlyph name="aringacute" xMin="57" yMin="-12" xMax="514" yMax="1014">
      <contour>
        <pt x="476" y="358" on="1"/>
        <pt x="476" y="123" on="1"/>
        <pt x="476" y="89" on="0"/>
        <pt x="490" y="60" on="0"/>
        <pt x="514" y="53" on="1"/>
        <pt x="500" y="-7" on="1"/>
        <pt x="493" y="-12" on="0"/>
        <pt x="446" y="-11" on="0"/>
        <pt x="416" y="6" on="0"/>
        <pt x="402" y="31" on="1"/>
        <pt x="387" y="58" on="1"/>
        <pt x="371" y="58" on="1"/>
        <pt x="318" y="-12" on="0"/>
        <pt x="224" y="-12" on="1"/>
        <pt x="147" y="-12" on="0"/>
        <pt x="57" y="69" on="0"/>
        <pt x="57" y="223" on="0"/>
        <pt x="157" y="299" on="0"/>
        <pt x="263" y="307" on="1"/>
        <pt x="377" y="316" on="1"/>
        <pt x="377" y="349" on="1"/>
        <pt x="377" y="409" on="0"/>
        <pt x="325" y="460" on="0"/>
        <pt x="204" y="460" on="0"/>
        <pt x="114" y="438" on="1"/>
        <pt x="96" y="497" on="1"/>
        <pt x="130" y="510" on="0"/>
        <pt x="234" y="528" on="0"/>
        <pt x="272" y="528" on="1"/>
        <pt x="373" y="528" on="0"/>
        <pt x="476" y="447" on="0"/>
      </contour>
      <contour>
        <pt x="377" y="165" on="1"/>
        <pt x="377" y="254" on="1"/>
        <pt x="281" y="247" on="1"/>
        <pt x="159" y="238" on="0"/>
        <pt x="159" y="150" on="1"/>
        <pt x="159" y="56" on="0"/>
        <pt x="253" y="56" on="1"/>
        <pt x="306" y="56" on="0"/>
        <pt x="377" y="107" on="0"/>
      </contour>
      <contour>
        <pt x="174" y="625" on="0"/>
        <pt x="174" y="713" on="0"/>
        <pt x="236" y="772" on="0"/>
        <pt x="326" y="772" on="0"/>
        <pt x="390" y="713" on="0"/>
        <pt x="390" y="625" on="0"/>
        <pt x="326" y="568" on="0"/>
        <pt x="236" y="568" on="0"/>
      </contour>
      <contour>
        <pt x="261" y="719" on="0"/>
        <pt x="233" y="691" on="0"/>
        <pt x="233" y="648" on="0"/>
        <pt x="261" y="621" on="0"/>
        <pt x="302" y="621" on="0"/>
        <pt x="331" y="648" on="0"/>
        <pt x="331" y="691" on="0"/>
        <pt x="302" y="719" on="0"/>
      </contour>
      <contour>
        <pt x="426" y="948" on="1"/>
        <pt x="426" y="921" on="0"/>
        <pt x="392" y="906" on="1"/>
        <pt x="218" y="824" on="1"/>
        <pt x="187" y="869" on="1"/>
        <pt x="387" y="1014" on="1"/>
        <pt x="419" y="969" on="1"/>
        <pt x="426" y="959" on="0"/>
      </contour>
    </TTGlyph>
    <TTGlyph name="asciicircum" xMin="60" yMin="179" xMax="492" yMax="581">
      <contour>
        <pt x="451" y="179" on="1"/>
        <pt x="334" y="365" on="1"/>
        <pt x="306" y="405" on="0"/>
        <pt x="290" y="468" on="1"/>
        <pt x="284" y="489" on="1"/>
        <pt x="268" y="489" on="1"/>
        <pt x="250" y="410" on="0"/>
        <pt x="218" y="365" on="1"/>
        <pt x="101" y="179" on="1"/>
        <pt x="60" y="200" on="1"/>
        <pt x="251" y="581" on="1"/>
        <pt x="301" y="581" on="1"/>
        <pt x="492" y="200" on="1"/>
      </contour>
    </TTGlyph>
    <TTGlyph name="asciitilde" xMin="28" yMin="210" xMax="553" yMax="329">
      <contour>
        <pt x="438" y="210" on="1"/>
        <pt x="378" y="210" on="0"/>
        <pt x="188" y="254" on="0"/>
        <pt x="130" y="254" on="0"/>
        <pt x="105" y="242" on="0"/>
        <pt x="94" y="228" on="0"/>
        <pt x="83" y="212" on="1"/>
        <pt x="28" y="248" on="1"/>
        <pt x="68" y="329" on="0"/>
        <pt x="142" y="329" on="1"/>
        <pt x="201" y="329" on="0"/>
        <pt x="394" y="285" on="0"/>
        <pt x="426" y="285" on="1"/>
        <pt x="479" y="285" on="0"/>
        <pt x="497" y="325" on="1"/>
        <pt x="553" y="287" on="1"/>
        <pt x="515" y="210" on="0"/>
      </contour>
    </TTGlyph>
    <TTGlyph name="ascript" xMin="50" yMin="-12" xMax="543" yMax="528">
      <contour>
        <pt x="229" y="460" on="0"/>
        <pt x="152" y="341" on="0"/>
        <pt x="152" y="162" on="0"/>
        <pt x="218" y="56" on="0"/>
        <pt x="281" y="56" on="1"/>
        <pt x="331" y="56" on="0"/>
        <pt x="408" y="107" on="0"/>
        <pt x="408" y="155" on="1"/>
        <pt x="408" y="422" on="1"/>
        <pt x="395" y="434" on="0"/>
        <pt x="339" y="460" on="0"/>
        <pt x="307" y="460" on="1"/>
      </contour>
      <contour>
        <pt x="288" y="528" on="1"/>
        <pt x="333" y="528" on="0"/>
        <pt x="387" y="505" on="0"/>
        <pt x="410" y="472" on="1"/>
        <pt x="426" y="472" on="1"/>
        <pt x="441" y="500" on="1"/>
        <pt x="450" y="516" on="0"/>
        <pt x="477" y="524" on="0"/>
        <pt x="504" y="524" on="1"/>
        <pt x="523" y="524" on="1"/>
        <pt x="505" y="411" on="1"/>
        <pt x="505" y="123" on="1"/>
        <pt x="505" y="89" on="0"/>
        <pt x="519" y="60" on="0"/>
        <pt x="543" y="53" on="1"/>
        <pt x="532" y="-7" on="1"/>
        <pt x="525" y="-12" on="0"/>
        <pt x="507" y="-12" on="1"/>
        <pt x="457" y="-12" on="0"/>
        <pt x="441" y="18" on="1"/>
        <pt x="419" y="58" on="1"/>
        <pt x="403" y="58" on="1"/>
        <pt x="374" y="20" on="0"/>
        <pt x="316" y="-12" on="0"/>
        <pt x="260" y="-12" on="1"/>
        <pt x="157" y="-12" on="0"/>
        <pt x="50" y="134" on="0"/>
        <pt x="50" y="366" on="0"/>
        <pt x="181" y="528" on="0"/>
      </contour>
    </TTGlyph>
    <TTGlyph name="asterisk" xMin="6" yMin="425" xMax="346" yMax="752">
      <contour>
        <pt x="346" y="614" on="1"/>
        <pt x="346" y="590" on="0"/>
        <pt x="309" y="584" on="1"/>
        <pt x="207" y="567" on="1"/>
        <pt x="280" y="493" on="1"/>
        <pt x="296" y="477" on="0"/>
        <pt x="296" y="450" on="0"/>
        <pt x="285" y="442" on="1"/>
        <pt x="271" y="431" on="1"/>
        <pt x="265" y="426" on="0"/>
        <pt x="256" y="426" on="1"/>
        <pt x="237" y="426" on="0"/>
        <pt x="223" y="452" on="1"/>
        <pt x="176" y="543" on="1"/>
        <pt x="128" y="451" on="1"/>
        <pt x="115" y="425" on="0"/>
        <pt x="97" y="425" on="1"/>
        <pt x="88" y="425" on="0"/>
        <pt x="81" y="431" on="1"/>
        <pt x="66" y="441" on="1"/>
        <pt x="55" y="448" on="0"/>
        <pt x="55" y="475" on="0"/>
        <pt x="71" y="493" on="1"/>
        <pt x="143" y="565" on="1"/>
        <pt x="40" y="583" on="1"/>
        <pt x="6" y="588" on="0"/>
        <pt x="6" y="612" on="1"/>
        <pt x="6" y="618" on="0"/>
        <pt x="7" y="621" on="1"/>
        <pt x="12" y="639" on="1"/>
        <pt x="18" y="656" on="0"/>
        <pt x="51" y="656" on="0"/>
        <pt x="63" y="650" on="1"/>
        <pt x="156" y="602" on="1"/>
        <pt x="140" y="707" on="1"/>
        <pt x="139" y="712" on="0"/>
        <pt x="139" y="717" on="1"/>
        <pt x="139" y="751" on="0"/>
        <pt x="166" y="752" on="1"/>
        <pt x="184" y="752" on="1"/>
        <pt x="211" y="752" on="0"/>
        <pt x="211" y="717" on="1"/>
        <pt x="211" y="712" on="0"/>
        <pt x="210" y="707" on="1"/>
        <pt x="194" y="604" on="1"/>
        <pt x="288" y="651" on="1"/>
        <pt x="302" y="658" on="0"/>
        <pt x="331" y="658" on="0"/>
        <pt x="338" y="640" on="1"/>
        <pt x="344" y="623" on="1"/>
        <pt x="346" y="617" on="0"/>
      </contour>
    </TTGlyph>
    <TTGlyph name="at" xMin="42" yMin="-74" xMax="752" yMax="649">
      <contour>
        <pt x="671" y="435" on="0"/>
        <pt x="526" y="581" on="0"/>
        <pt x="267" y="581" on="0"/>
        <pt x="132" y="421" on="0"/>
        <pt x="132" y="154" on="0"/>
        <pt x="267" y="-7" on="0"/>
        <pt x="394" y="-7" on="1"/>
        <pt x="469" y="-7" on="0"/>
        <pt x="550" y="20" on="1"/>
        <pt x="572" y="-38" on="1"/>
        <pt x="486" y="-74" on="0"/>
        <pt x="393" y="-74" on="1"/>
        <pt x="231" y="-74" on="0"/>
        <pt x="42" y="122" on="0"/>
        <pt x="42" y="456" on="0"/>
        <pt x="234" y="649" on="0"/>
        <pt x="558" y="649" on="0"/>
        <pt x="752" y="473" on="0"/>
        <pt x="752" y="324" on="1"/>
        <pt x="752" y="219" on="0"/>
        <pt x="649" y="92" on="0"/>
        <pt x="516" y="92" on="0"/>
        <pt x="487" y="137" on="1"/>
        <pt x="473" y="137" on="1"/>
        <pt x="432" y="92" on="0"/>
        <pt x="296" y="92" on="0"/>
        <pt x="214" y="198" on="0"/>
        <pt x="214" y="365" on="0"/>
        <pt x="309" y="480" on="0"/>
        <pt x="390" y="480" on="1"/>
        <pt x="448" y="480" on="0"/>
        <pt x="478" y="440" on="1"/>
        <pt x="490" y="440" on="1"/>
        <pt x="499" y="458" on="1"/>
        <pt x="509" y="477" on="0"/>
        <pt x="546" y="477" on="1"/>
        <pt x="568" y="477" on="1"/>
        <pt x="555" y="395" on="1"/>
        <pt x="555" y="196" on="1"/>
        <pt x="555" y="153" on="0"/>
        <pt x="593" y="153" on="1"/>
        <pt x="628" y="153" on="0"/>
        <pt x="671" y="218" on="0"/>
        <pt x="671" y="309" on="1"/>
      </contour>
      <contour>
        <pt x="306" y="281" on="1"/>
        <pt x="306" y="153" on="0"/>
        <pt x="385" y="153" on="1"/>
        <pt x="418" y="153" on="0"/>
        <pt x="472" y="187" on="0"/>
        <pt x="472" y="217" on="1"/>
        <pt x="472" y="395" on="1"/>
        <pt x="447" y="417" on="0"/>
        <pt x="353" y="417" on="0"/>
        <pt x="306" y="341" on="0"/>
      </contour>
    </TTGlyph>
    <TTGlyph name="atilde" xMin="57" yMin="-12" xMax="514" yMax="726">
      <contour>
        <pt x="476" y="358" on="1"/>
        <pt x="476" y="123" on="1"/>
        <pt x="476" y="89" on="0"/>
        <pt x="490" y="60" on="0"/>
        <pt x="514" y="53" on="1"/>
        <pt x="500" y="-7" on="1"/>
        <pt x="493" y="-12" on="0"/>
        <pt x="446" y="-11" on="0"/>
        <pt x="416" y="6" on="0"/>
        <pt x="402" y="31" on="1"/>
        <pt x="387" y="58" on="1"/>
        <pt x="371" y="58" on="1"/>
        <pt x="318" y="-12" on="0"/>
        <pt x="224" y="-12" on="1"/>
        <pt x="147" y="-12" on="0"/>
        <pt x="57" y="69" on="0"/>
        <pt x="57" y="223" on="0"/>
        <pt x="157" y="299" on="0"/>
        <pt x="263" y="307" on="1"/>
        <pt x="377" y="316" on="1"/>
        <pt x="377" y="349" on="1"/>
        <pt x="377" y="409" on="0"/>
        <pt x="325" y="460" on="0"/>
        <pt x="204" y="460" on="0"/>
        <pt x="114" y="438" on="1"/>
        <pt x="96" y="497" on="1"/>
        <pt x="130" y="510" on="0"/>
        <pt x="234" y="528" on="0"/>
        <pt x="272" y="528" on="1"/>
        <pt x="373" y="528" on="0"/>
        <pt x="476" y="447" on="0"/>
      </contour>
      <contour>
        <pt x="377" y="165" on="1"/>
        <pt x="377" y="254" on="1"/>
        <pt x="281" y="247" on="1"/>
        <pt x="159" y="238" on="0"/>
        <pt x="159" y="150" on="1"/>
        <pt x="159" y="56" on="0"/>
        <pt x="253" y="56" on="1"/>
        <pt x="306" y="56" on="0"/>
        <pt x="377" y="107" on="0"/>
      </contour>
      <contour>
        <pt x="352" y="610" on="1"/>
        <pt x="319" y="610" on="0"/>
        <pt x="237" y="651" on="0"/>
        <pt x="198" y="651" on="0"/>
        <pt x="175" y="634" on="0"/>
        <pt x="159" y="612" on="1"/>
        <pt x="104" y="648" on="1"/>
        <pt x="144" y="726" on="0"/>
        <pt x="218" y="726" on="1"/>
        <pt x="250" y="726" on="0"/>
        <pt x="335" y="685" on="0"/>
        <pt x="351" y="685" on="1"/>
        <pt x="395" y="685" on="0"/>
        <pt x="411" y="722" on="1"/>
        <pt x="467" y="687" on="1"/>
        <pt x="429" y="610" on="0"/>
      </contour>
    </TTGlyph>
    <TTGlyph name="aturned" xMin="50" yMin="-12" xMax="507" yMax="528">
      <contour>
        <pt x="88" y="158" on="1"/>
        <pt x="88" y="393" on="1"/>
        <pt x="88" y="427" on="0"/>
        <pt x="74" y="456" on="0"/>
        <pt x="50" y="463" on="1"/>
        <pt x="64" y="523" on="1"/>
        <pt x="71" y="528" on="0"/>
        <pt x="118" y="527" on="0"/>
        <pt x="148" y="510" on="0"/>
        <pt x="162" y="485" on="1"/>
        <pt x="177" y="458" on="1"/>
        <pt x="193" y="458" on="1"/>
        <pt x="246" y="528" on="0"/>
        <pt x="340" y="528" on="1"/>
        <pt x="417" y="528" on="0"/>
        <pt x="507" y="447" on="0"/>
        <pt x="507" y="293" on="0"/>
        <pt x="407" y="217" on="0"/>
        <pt x="301" y="209" on="1"/>
        <pt x="187" y="200" on="1"/>
        <pt x="187" y="167" on="1"/>
        <pt x="187" y="107" on="0"/>
        <pt x="239" y="56" on="0"/>
        <pt x="360" y="56" on="0"/>
        <pt x="450" y="78" on="1"/>
        <pt x="468" y="19" on="1"/>
        <pt x="434" y="6" on="0"/>
        <pt x="330" y="-12" on="0"/>
        <pt x="292" y="-12" on="1"/>
        <pt x="191" y="-12" on="0"/>
        <pt x="88" y="69" on="0"/>
      </contour>
      <contour>
        <pt x="187" y="351" on="1"/>
        <pt x="187" y="262" on="1"/>
        <pt x="283" y="269" on="1"/>
        <pt x="405" y="278" on="0"/>
        <pt x="405" y="366" on="1"/>
        <pt x="405" y="460" on="0"/>
        <pt x="311" y="460" on="1"/>
        <pt x="258" y="460" on="0"/>
        <pt x="187" y="409" on="0"/>
      </contour>
    </TTGlyph>
    <TTGlyph name="b" xMin="78" yMin="-12" xMax="533" yMax="740">
      <contour>
        <pt x="225" y="528" on="0"/>
        <pt x="429" y="528" on="0"/>
        <pt x="533" y="387" on="0"/>
        <pt x="533" y="129" on="0"/>
        <pt x="414" y="-12" on="0"/>
        <pt x="291" y="-12" on="1"/>
        <pt x="217" y="-12" on="0"/>
        <pt x="78" y="18" on="1"/>
        <pt x="78" y="740" on="1"/>
        <pt x="178" y="740" on="1"/>
        <pt x="178" y="550" on="1"/>
        <pt x="178" y="505" on="0"/>
        <pt x="166" y="466" on="1"/>
        <pt x="162" y="453" on="1"/>
        <pt x="178" y="444" on="1"/>
      </contour>
      <contour>
        <pt x="393" y="432" on="0"/>
        <pt x="342" y="460" on="0"/>
        <pt x="250" y="460" on="0"/>
        <pt x="178" y="408" on="0"/>
        <pt x="178" y="350" on="1"/>
        <pt x="178" y="73" on="1"/>
        <pt x="226" y="55" on="0"/>
        <pt x="327" y="55" on="0"/>
        <pt x="387" y="84" on="0"/>
        <pt x="417" y="143" on="0"/>
        <pt x="427" y="209" on="0"/>
        <pt x="427" y="309" on="0"/>
        <pt x="418" y="374" on="0"/>
      </contour>
    </TTGlyph>
    <TTGlyph name="backslash" xMin="-25" yMin="-208" xMax="377" yMax="740">
      <contour>
        <pt x="377" y="-208" on="1"/>
        <pt x="282" y="-208" on="1"/>
        <pt x="-25" y="740" on="1"/>
        <pt x="70" y="740" on="1"/>
      </contour>
    </TTGlyph>
    <TTGlyph name="bar" xMin="90" yMin="-208" xMax="180" yMax="740">
      <contour>
        <pt x="180" y="-208" on="1"/>
        <pt x="90" y="-208" on="1"/>
        <pt x="90" y="740" on="1"/>
        <pt x="180" y="740" on="1"/>
      </contour>
    </TTGlyph>
</ttFont>
